<svg width="94" height="94" viewBox="0 0 94 94" fill="none" xmlns="http://www.w3.org/2000/svg">
<g filter="url(#filter0_d_350_726)">
<circle cx="47" cy="43" r="35" fill="#F69C0F"/>
<circle cx="47.0004" cy="44.3868" r="6.13208" fill="white"/>
<path d="M47 31.7685C51.02 31.7685 54.3803 32.8935 57.1285 34.4975M47 31.7685C42.98 31.7685 39.6197 32.8935 36.8715 34.4974M47 31.7685L47 22.217M57.1285 34.4975L64.5 26.3105M57.1285 34.4975C60.277 36.3351 62.6219 38.8015 64.2343 40.9249M36.8715 34.4974L30.75 26.3105M36.8715 34.4974C33.5455 36.4387 31.1163 39.0815 29.5 41.2805M64.2343 40.9249C66.1158 43.4027 67 45.4134 67 45.4134M64.2343 40.9249L72 37.2264M27 45.4134C27 45.4134 27.8008 43.5922 29.5 41.2805M29.5 41.2805L22 37.2264M67.8333 45.4134C67.8333 45.4134 61.5833 58.066 47 58.066C32.4167 58.066 26.1667 45.4134 26.1667 45.4134C26.1667 45.4134 32.4167 31.8174 47 31.8174C61.5833 31.8174 67.8333 45.4134 67.8333 45.4134Z" stroke="white" stroke-width="2" stroke-linecap="round"/>
</g>
<defs>
<filter id="filter0_d_350_726" x="0" y="0" width="94" height="94" filterUnits="userSpaceOnUse" color-interpolation-filters="sRGB">
<feFlood flood-opacity="0" result="BackgroundImageFix"/>
<feColorMatrix in="SourceAlpha" type="matrix" values="0 0 0 0 0 0 0 0 0 0 0 0 0 0 0 0 0 0 127 0" result="hardAlpha"/>
<feOffset dy="4"/>
<feGaussianBlur stdDeviation="6"/>
<feComposite in2="hardAlpha" operator="out"/>
<feColorMatrix type="matrix" values="0 0 0 0 0.0981771 0 0 0 0 0.120833 0 0 0 0 0.111318 0 0 0 0.15 0"/>
<feBlend mode="normal" in2="BackgroundImageFix" result="effect1_dropShadow_350_726"/>
<feBlend mode="normal" in="SourceGraphic" in2="effect1_dropShadow_350_726" result="shape"/>
</filter>
</defs>
</svg>
