<svg width="94" height="94" viewBox="0 0 94 94" fill="none" xmlns="http://www.w3.org/2000/svg">
<g filter="url(#filter0_d_350_720)">
<circle cx="47" cy="43" r="35" fill="#F69C0F"/>
<path d="M59.6824 30.8824V27H34.3176V30.8824M59.6824 30.8824V34.7647H55.5412M59.6824 30.8824H69M34.3176 30.8824V34.7647H38.9765M34.3176 30.8824H25M55.5412 34.7647L51.4 43.5647H47.5176M55.5412 34.7647H38.9765M38.9765 34.7647L43.6353 43.5647H47.5176M47.5176 43.5647V49.2588" stroke="white" stroke-width="2" stroke-linecap="round" stroke-linejoin="round"/>
<path d="M47.0729 55C44.2403 55 41.9007 55.335 40 55.8177C40 55.8177 40.1459 61 47.0729 61C54 61 54 55.8177 54 55.8177C52.1854 55.335 49.9056 55 47.0729 55Z" fill="white"/>
<path d="M34 59C34 59 38.6929 54 47.4109 54C56.1289 54 60 59 60 59" stroke="white" stroke-width="2" stroke-linecap="round" stroke-linejoin="round"/>
</g>
<defs>
<filter id="filter0_d_350_720" x="0" y="0" width="94" height="94" filterUnits="userSpaceOnUse" color-interpolation-filters="sRGB">
<feFlood flood-opacity="0" result="BackgroundImageFix"/>
<feColorMatrix in="SourceAlpha" type="matrix" values="0 0 0 0 0 0 0 0 0 0 0 0 0 0 0 0 0 0 127 0" result="hardAlpha"/>
<feOffset dy="4"/>
<feGaussianBlur stdDeviation="6"/>
<feComposite in2="hardAlpha" operator="out"/>
<feColorMatrix type="matrix" values="0 0 0 0 0.0981771 0 0 0 0 0.120833 0 0 0 0 0.111318 0 0 0 0.15 0"/>
<feBlend mode="normal" in2="BackgroundImageFix" result="effect1_dropShadow_350_720"/>
<feBlend mode="normal" in="SourceGraphic" in2="effect1_dropShadow_350_720" result="shape"/>
</filter>
</defs>
</svg>
