<svg width="100" height="27" viewBox="0 0 100 27" fill="none" xmlns="http://www.w3.org/2000/svg">
<path d="M17.7476 16.1621C18.0269 16.1621 18.285 16.105 18.522 15.9907C18.759 15.8765 18.9536 15.7199 19.106 15.521C19.2583 15.3179 19.3451 15.0872 19.3662 14.8291H20.4834C20.4622 15.2354 20.3247 15.6141 20.0708 15.9653C19.8211 16.3123 19.4932 16.5938 19.0869 16.8096C18.6807 17.0212 18.2342 17.127 17.7476 17.127C17.2313 17.127 16.7806 17.036 16.3955 16.854C16.0146 16.672 15.6973 16.4224 15.4434 16.105C15.1937 15.7876 15.0054 15.4237 14.8784 15.0132C14.7557 14.5985 14.6943 14.1605 14.6943 13.6992V13.4326C14.6943 12.9714 14.7557 12.5355 14.8784 12.125C15.0054 11.7103 15.1937 11.3442 15.4434 11.0269C15.6973 10.7095 16.0146 10.4598 16.3955 10.2778C16.7806 10.0959 17.2313 10.0049 17.7476 10.0049C18.285 10.0049 18.7547 10.1149 19.1567 10.335C19.5588 10.5508 19.874 10.847 20.1025 11.2236C20.3353 11.596 20.4622 12.0192 20.4834 12.4932H19.3662C19.3451 12.2096 19.2646 11.9536 19.125 11.7251C18.9896 11.4966 18.8034 11.3146 18.5664 11.1792C18.3337 11.0396 18.0607 10.9697 17.7476 10.9697C17.3879 10.9697 17.0853 11.0417 16.8398 11.1855C16.5986 11.3252 16.4061 11.5156 16.2622 11.7568C16.1226 11.9938 16.021 12.2583 15.9575 12.5503C15.8983 12.8381 15.8687 13.1322 15.8687 13.4326V13.6992C15.8687 13.9997 15.8983 14.2959 15.9575 14.5879C16.0168 14.8799 16.1162 15.1444 16.2559 15.3813C16.3997 15.6183 16.5923 15.8088 16.8335 15.9526C17.0789 16.0923 17.3836 16.1621 17.7476 16.1621ZM21.4927 13.6421V13.4961C21.4927 13.001 21.5646 12.5418 21.7085 12.1187C21.8524 11.6912 22.0597 11.321 22.3306 11.0078C22.6014 10.6904 22.9294 10.445 23.3145 10.2715C23.6995 10.0938 24.1312 10.0049 24.6094 10.0049C25.0918 10.0049 25.5256 10.0938 25.9106 10.2715C26.3 10.445 26.63 10.6904 26.9009 11.0078C27.1759 11.321 27.3854 11.6912 27.5293 12.1187C27.6732 12.5418 27.7451 13.001 27.7451 13.4961V13.6421C27.7451 14.1372 27.6732 14.5964 27.5293 15.0195C27.3854 15.4427 27.1759 15.813 26.9009 16.1304C26.63 16.4435 26.3021 16.689 25.917 16.8667C25.5361 17.0402 25.1045 17.127 24.6221 17.127C24.1396 17.127 23.7059 17.0402 23.3208 16.8667C22.9357 16.689 22.6056 16.4435 22.3306 16.1304C22.0597 15.813 21.8524 15.4427 21.7085 15.0195C21.5646 14.5964 21.4927 14.1372 21.4927 13.6421ZM22.667 13.4961V13.6421C22.667 13.9849 22.7072 14.3086 22.7876 14.6133C22.868 14.9137 22.9886 15.1803 23.1494 15.4131C23.3145 15.6458 23.5197 15.8299 23.7651 15.9653C24.0106 16.0965 24.2962 16.1621 24.6221 16.1621C24.9437 16.1621 25.2251 16.0965 25.4663 15.9653C25.7118 15.8299 25.9149 15.6458 26.0757 15.4131C26.2365 15.1803 26.3571 14.9137 26.4375 14.6133C26.5221 14.3086 26.5645 13.9849 26.5645 13.6421V13.4961C26.5645 13.1576 26.5221 12.8381 26.4375 12.5376C26.3571 12.2329 26.2344 11.9642 26.0693 11.7314C25.9085 11.4945 25.7054 11.3083 25.46 11.1729C25.2188 11.0374 24.9352 10.9697 24.6094 10.9697C24.2878 10.9697 24.0042 11.0374 23.7588 11.1729C23.5176 11.3083 23.3145 11.4945 23.1494 11.7314C22.9886 11.9642 22.868 12.2329 22.7876 12.5376C22.7072 12.8381 22.667 13.1576 22.667 13.4961ZM30.3921 11.5981V17H29.2178V10.1318H30.3286L30.3921 11.5981ZM30.1128 13.3057L29.624 13.2866C29.6283 12.8169 29.6981 12.3831 29.8335 11.9854C29.9689 11.5833 30.1593 11.2342 30.4048 10.938C30.6502 10.6418 30.9422 10.4132 31.2808 10.2524C31.6235 10.0874 32.0023 10.0049 32.417 10.0049C32.7555 10.0049 33.0602 10.0514 33.3311 10.1445C33.6019 10.2334 33.8325 10.3773 34.0229 10.5762C34.2176 10.7751 34.3657 11.0332 34.4673 11.3506C34.5688 11.6637 34.6196 12.0467 34.6196 12.4995V17H33.439V12.4868C33.439 12.1271 33.3861 11.8394 33.2803 11.6235C33.1745 11.4035 33.02 11.2448 32.8169 11.1475C32.6138 11.0459 32.3641 10.9951 32.0679 10.9951C31.7759 10.9951 31.5093 11.0565 31.2681 11.1792C31.0311 11.3019 30.8258 11.4712 30.6523 11.687C30.4831 11.9028 30.3498 12.1504 30.2524 12.4297C30.1593 12.7048 30.1128 12.9967 30.1128 13.3057ZM40.4023 15.1782C40.4023 15.009 40.3643 14.8524 40.2881 14.7085C40.2161 14.5604 40.0659 14.4271 39.8374 14.3086C39.6131 14.1859 39.2746 14.0801 38.8218 13.9912C38.4409 13.9108 38.096 13.8156 37.7871 13.7056C37.4824 13.5955 37.2222 13.4622 37.0063 13.3057C36.7948 13.1491 36.6318 12.965 36.5176 12.7534C36.4033 12.5418 36.3462 12.2943 36.3462 12.0107C36.3462 11.7399 36.4054 11.4839 36.5239 11.2427C36.6466 11.0015 36.818 10.7878 37.0381 10.6016C37.2624 10.4154 37.5311 10.2694 37.8442 10.1636C38.1574 10.0578 38.5065 10.0049 38.8916 10.0049C39.4417 10.0049 39.9115 10.1022 40.3008 10.2969C40.6901 10.4915 40.9884 10.7518 41.1958 11.0776C41.4032 11.3993 41.5068 11.7568 41.5068 12.1504H40.3325C40.3325 11.96 40.2754 11.7759 40.1611 11.5981C40.0511 11.4162 39.8882 11.266 39.6724 11.1475C39.4608 11.029 39.2005 10.9697 38.8916 10.9697C38.5658 10.9697 38.3013 11.0205 38.0981 11.1221C37.8993 11.2194 37.7533 11.3442 37.6602 11.4966C37.5713 11.6489 37.5269 11.8097 37.5269 11.979C37.5269 12.106 37.548 12.2202 37.5903 12.3218C37.6369 12.4191 37.7173 12.5101 37.8315 12.5947C37.9458 12.6751 38.1066 12.7513 38.314 12.8232C38.5213 12.8952 38.7858 12.9671 39.1074 13.0391C39.6702 13.166 40.1336 13.3184 40.4976 13.4961C40.8615 13.6738 41.1323 13.8918 41.3101 14.1499C41.4878 14.408 41.5767 14.7212 41.5767 15.0894C41.5767 15.3898 41.5132 15.6649 41.3862 15.9146C41.2635 16.1642 41.0837 16.38 40.8467 16.562C40.6139 16.7397 40.3346 16.8794 40.0088 16.981C39.6872 17.0783 39.3254 17.127 38.9233 17.127C38.3182 17.127 37.8062 17.019 37.3872 16.8032C36.9683 16.5874 36.6509 16.3081 36.4351 15.9653C36.2192 15.6226 36.1113 15.2607 36.1113 14.8799H37.292C37.3089 15.2015 37.402 15.4575 37.5713 15.6479C37.7406 15.8341 37.9479 15.9674 38.1934 16.0479C38.4388 16.124 38.6821 16.1621 38.9233 16.1621C39.245 16.1621 39.5137 16.1198 39.7295 16.0352C39.9495 15.9505 40.1167 15.8341 40.231 15.686C40.3452 15.5379 40.4023 15.3687 40.4023 15.1782ZM47.3213 15.4131V10.1318H48.502V17H47.3784L47.3213 15.4131ZM47.5435 13.9658L48.0322 13.9531C48.0322 14.4102 47.9836 14.8333 47.8862 15.2227C47.7931 15.6077 47.6408 15.9421 47.4292 16.2256C47.2176 16.5091 46.9404 16.7313 46.5977 16.8921C46.2549 17.0487 45.8381 17.127 45.3472 17.127C45.0129 17.127 44.7061 17.0783 44.4268 16.981C44.1517 16.8836 43.9147 16.7334 43.7158 16.5303C43.5169 16.3271 43.3625 16.0627 43.2524 15.7368C43.1466 15.411 43.0938 15.0195 43.0938 14.5625V10.1318H44.2681V14.5752C44.2681 14.8841 44.3019 15.1401 44.3696 15.3433C44.4416 15.5422 44.5368 15.7008 44.6553 15.8193C44.778 15.9336 44.9134 16.014 45.0615 16.0605C45.2139 16.1071 45.3704 16.1304 45.5312 16.1304C46.0306 16.1304 46.4263 16.0352 46.7183 15.8447C47.0103 15.6501 47.2197 15.3898 47.3467 15.064C47.4779 14.7339 47.5435 14.3678 47.5435 13.9658ZM51.5679 7.25V17H50.3872V7.25H51.5679ZM56.3286 10.1318V11.0332H52.6152V10.1318H56.3286ZM53.8721 8.4624H55.0464V15.2988C55.0464 15.5316 55.0824 15.7072 55.1543 15.8257C55.2262 15.9442 55.3193 16.0225 55.4336 16.0605C55.5479 16.0986 55.6706 16.1177 55.8018 16.1177C55.8991 16.1177 56.0007 16.1092 56.1064 16.0923C56.2165 16.0711 56.299 16.0542 56.354 16.0415L56.3604 17C56.2673 17.0296 56.1445 17.0571 55.9922 17.0825C55.8441 17.1121 55.6642 17.127 55.4526 17.127C55.1649 17.127 54.9004 17.0698 54.6592 16.9556C54.418 16.8413 54.2254 16.6509 54.0815 16.3843C53.9419 16.1134 53.8721 15.7495 53.8721 15.2925V8.4624ZM61.7559 15.8257V12.29C61.7559 12.0192 61.7008 11.7843 61.5908 11.5854C61.485 11.3823 61.3242 11.2257 61.1084 11.1157C60.8926 11.0057 60.626 10.9507 60.3086 10.9507C60.0124 10.9507 59.7521 11.0015 59.5278 11.103C59.3078 11.2046 59.1343 11.3379 59.0073 11.5029C58.8846 11.668 58.8232 11.8457 58.8232 12.0361H57.6489C57.6489 11.7907 57.7124 11.5474 57.8394 11.3062C57.9663 11.0649 58.1483 10.847 58.3853 10.6523C58.6265 10.4535 58.9142 10.2969 59.2485 10.1826C59.5871 10.0641 59.9637 10.0049 60.3784 10.0049C60.8778 10.0049 61.3179 10.0895 61.6987 10.2588C62.0838 10.4281 62.3843 10.6841 62.6001 11.0269C62.8201 11.3654 62.9302 11.7907 62.9302 12.3027V15.502C62.9302 15.7305 62.9492 15.9738 62.9873 16.2319C63.0296 16.4901 63.091 16.7122 63.1714 16.8984V17H61.9463C61.887 16.8646 61.8405 16.6847 61.8066 16.4604C61.7728 16.2319 61.7559 16.0203 61.7559 15.8257ZM61.959 12.8359L61.9717 13.6611H60.7847C60.4504 13.6611 60.152 13.6886 59.8896 13.7437C59.6273 13.7944 59.4072 13.8727 59.2295 13.9785C59.0518 14.0843 58.9163 14.2176 58.8232 14.3784C58.7301 14.535 58.6836 14.7191 58.6836 14.9307C58.6836 15.1465 58.7323 15.3433 58.8296 15.521C58.9269 15.6987 59.0729 15.8405 59.2676 15.9463C59.4665 16.0479 59.7098 16.0986 59.9976 16.0986C60.3573 16.0986 60.6746 16.0225 60.9497 15.8701C61.2248 15.7178 61.4427 15.5316 61.6035 15.3115C61.7686 15.0915 61.8574 14.8778 61.8701 14.6704L62.3716 15.2354C62.342 15.4131 62.2616 15.6099 62.1304 15.8257C61.9992 16.0415 61.8236 16.2489 61.6035 16.4478C61.3877 16.6424 61.1296 16.8053 60.8291 16.9365C60.5329 17.0635 60.1986 17.127 59.8262 17.127C59.3607 17.127 58.9523 17.036 58.6011 16.854C58.2541 16.672 57.9832 16.4287 57.7886 16.124C57.5981 15.8151 57.5029 15.4702 57.5029 15.0894C57.5029 14.7212 57.5749 14.3975 57.7188 14.1182C57.8626 13.8346 58.07 13.5998 58.3408 13.4136C58.6117 13.2231 58.9375 13.0793 59.3184 12.9819C59.6992 12.8846 60.1245 12.8359 60.5942 12.8359H61.959ZM67.6528 10.1318V11.0332H63.9395V10.1318H67.6528ZM65.1963 8.4624H66.3706V15.2988C66.3706 15.5316 66.4066 15.7072 66.4785 15.8257C66.5505 15.9442 66.6436 16.0225 66.7578 16.0605C66.8721 16.0986 66.9948 16.1177 67.126 16.1177C67.2233 16.1177 67.3249 16.1092 67.4307 16.0923C67.5407 16.0711 67.6232 16.0542 67.6782 16.0415L67.6846 17C67.5915 17.0296 67.4688 17.0571 67.3164 17.0825C67.1683 17.1121 66.9884 17.127 66.7769 17.127C66.4891 17.127 66.2246 17.0698 65.9834 16.9556C65.7422 16.8413 65.5496 16.6509 65.4058 16.3843C65.2661 16.1134 65.1963 15.7495 65.1963 15.2925V8.4624ZM70.3062 10.1318V17H69.1255V10.1318H70.3062ZM69.0366 8.31006C69.0366 8.11963 69.0938 7.95882 69.208 7.82764C69.3265 7.69645 69.5 7.63086 69.7285 7.63086C69.9528 7.63086 70.1242 7.69645 70.2427 7.82764C70.3654 7.95882 70.4268 8.11963 70.4268 8.31006C70.4268 8.49202 70.3654 8.6486 70.2427 8.77979C70.1242 8.90674 69.9528 8.97021 69.7285 8.97021C69.5 8.97021 69.3265 8.90674 69.208 8.77979C69.0938 8.6486 69.0366 8.49202 69.0366 8.31006ZM71.8804 13.6421V13.4961C71.8804 13.001 71.9523 12.5418 72.0962 12.1187C72.2401 11.6912 72.4474 11.321 72.7183 11.0078C72.9891 10.6904 73.3171 10.445 73.7021 10.2715C74.0872 10.0938 74.5189 10.0049 74.9971 10.0049C75.4795 10.0049 75.9132 10.0938 76.2983 10.2715C76.6877 10.445 77.0177 10.6904 77.2886 11.0078C77.5636 11.321 77.7731 11.6912 77.917 12.1187C78.0609 12.5418 78.1328 13.001 78.1328 13.4961V13.6421C78.1328 14.1372 78.0609 14.5964 77.917 15.0195C77.7731 15.4427 77.5636 15.813 77.2886 16.1304C77.0177 16.4435 76.6898 16.689 76.3047 16.8667C75.9238 17.0402 75.4922 17.127 75.0098 17.127C74.5273 17.127 74.0936 17.0402 73.7085 16.8667C73.3234 16.689 72.9933 16.4435 72.7183 16.1304C72.4474 15.813 72.2401 15.4427 72.0962 15.0195C71.9523 14.5964 71.8804 14.1372 71.8804 13.6421ZM73.0547 13.4961V13.6421C73.0547 13.9849 73.0949 14.3086 73.1753 14.6133C73.2557 14.9137 73.3763 15.1803 73.5371 15.4131C73.7021 15.6458 73.9074 15.8299 74.1528 15.9653C74.3983 16.0965 74.6839 16.1621 75.0098 16.1621C75.3314 16.1621 75.6128 16.0965 75.854 15.9653C76.0994 15.8299 76.3026 15.6458 76.4634 15.4131C76.6242 15.1803 76.7448 14.9137 76.8252 14.6133C76.9098 14.3086 76.9521 13.9849 76.9521 13.6421V13.4961C76.9521 13.1576 76.9098 12.8381 76.8252 12.5376C76.7448 12.2329 76.6221 11.9642 76.457 11.7314C76.2962 11.4945 76.0931 11.3083 75.8477 11.1729C75.6064 11.0374 75.3229 10.9697 74.9971 10.9697C74.6755 10.9697 74.3919 11.0374 74.1465 11.1729C73.9053 11.3083 73.7021 11.4945 73.5371 11.7314C73.3763 11.9642 73.2557 12.2329 73.1753 12.5376C73.0949 12.8381 73.0547 13.1576 73.0547 13.4961ZM80.7798 11.5981V17H79.6055V10.1318H80.7163L80.7798 11.5981ZM80.5005 13.3057L80.0117 13.2866C80.016 12.8169 80.0858 12.3831 80.2212 11.9854C80.3566 11.5833 80.547 11.2342 80.7925 10.938C81.0379 10.6418 81.3299 10.4132 81.6685 10.2524C82.0112 10.0874 82.39 10.0049 82.8047 10.0049C83.1432 10.0049 83.4479 10.0514 83.7188 10.1445C83.9896 10.2334 84.2202 10.3773 84.4106 10.5762C84.6053 10.7751 84.7534 11.0332 84.855 11.3506C84.9565 11.6637 85.0073 12.0467 85.0073 12.4995V17H83.8267V12.4868C83.8267 12.1271 83.7738 11.8394 83.668 11.6235C83.5622 11.4035 83.4077 11.2448 83.2046 11.1475C83.0015 11.0459 82.7518 10.9951 82.4556 10.9951C82.1636 10.9951 81.897 11.0565 81.6558 11.1792C81.4188 11.3019 81.2135 11.4712 81.04 11.687C80.8708 11.9028 80.7375 12.1504 80.6401 12.4297C80.547 12.7048 80.5005 12.9967 80.5005 13.3057Z" fill="#F69C0F"/>
<rect x="1" y="1" width="98" height="25" rx="12.5" stroke="#F69C0F"/>
</svg>
