<svg width="39" height="39" viewBox="0 0 39 39" fill="none" xmlns="http://www.w3.org/2000/svg">
<path d="M38.9907 19.4961C38.9907 8.72941 30.2627 8.36901e-05 19.4947 8.36901e-05C8.72799 8.36901e-05 0 8.72941 0 19.4961C0 29.2267 7.12933 37.2921 16.4493 38.7534V25.1321H11.4987V19.4961H16.4493V15.2001C16.4493 10.3147 19.36 7.61608 23.8133 7.61608C25.9453 7.61608 28.1773 7.99741 28.1773 7.99741V12.7947H25.7187C23.2973 12.7947 22.5427 14.2974 22.5427 15.8388V19.4961H27.948L27.084 25.1321H22.5427V38.7534C31.8613 37.2921 38.9907 29.2267 38.9907 19.4961" fill="#5AC134"/>
<path d="M26.5853 24.5163L27.4493 18.8803H22.044V15.223C22.044 13.6817 22.7987 12.179 25.22 12.179H27.6787V7.38167C27.6787 7.38167 25.4467 7.00034 23.3147 7.00034C18.8613 7.00034 15.9507 9.699 15.9507 14.5843V18.8803H11V24.5163H15.9507V38.1377C16.9427 38.2937 17.96 38.375 18.996 38.375C20.0333 38.375 21.0493 38.2937 22.044 38.1377V24.5163H26.5853" fill="white"/>
</svg>
