<svg width="351" height="184" viewBox="0 0 351 184" fill="none" xmlns="http://www.w3.org/2000/svg">
<path d="M128.343 133.065C142.136 137.398 158.263 139.891 175.5 139.891C226.341 139.891 267.555 118.226 267.555 91.4998C267.555 89.6287 267.347 87.783 266.953 85.9668C270.995 86.6962 274.881 87.3983 277.848 87.9367C277.995 89.1152 278.077 90.3026 278.077 91.4998C278.077 121.28 232.152 145.422 175.5 145.422C145.365 145.422 118.266 138.591 99.4999 127.714C99.5858 127.73 127.858 132.917 126.674 133.945C126.536 134.065 127.155 133.735 128.343 133.065V133.065ZM175.5 37.5783C205.093 37.5783 231.757 44.1684 250.477 54.7068C249.843 54.5901 222.144 49.4954 223.317 48.4778C223.466 48.3489 222.735 48.7421 221.346 49.5279C207.849 45.4447 192.193 43.1089 175.5 43.1089C124.658 43.1089 83.4435 64.7744 83.4435 91.4998C83.4435 93.2304 83.6197 94.9388 83.9567 96.6228C80.0126 95.9108 76.1631 95.2153 73.1024 94.6604C72.987 93.6141 72.9224 92.5612 72.9224 91.4998C72.9224 61.7197 118.848 37.5783 175.5 37.5783" fill="#F8B90A"/>
<path d="M21.3906 94.8376C98.9268 86.3929 197.961 150.916 250.853 91.0617C250.853 91.0617 230.401 132.771 171.915 125.218C113.431 117.666 78.5964 95.8678 21.3906 94.8376" fill="#20B6C9"/>
<path d="M255.87 87.5546C257.146 91.225 226.513 153.951 100.147 128.26C157.576 154.577 267.221 130.912 255.87 87.5546Z" fill="#F8B90A"/>
<path d="M329.61 87.38C252.073 95.6136 153.039 32.7033 100.147 91.0615C100.147 91.0615 120.599 50.3953 179.085 57.7588C237.568 65.1223 272.404 86.3756 329.61 87.38Z" fill="#F8B90A"/>
<path d="M95.1303 95.4456C93.8544 91.7129 124.488 27.924 250.853 54.0501C193.424 27.2871 83.7806 51.3533 95.1303 95.4456Z" fill="#20B6C9"/>
<path d="M178.776 139.869C177.6 141.748 176.276 143.597 174.825 145.417C175.245 145.42 175.666 145.422 176.086 145.422C232.414 145.422 278.078 121.28 278.078 91.4998C278.078 90.3026 277.996 89.1152 277.85 87.9367C274.899 87.3983 271.036 86.6962 267.017 85.9668C267.408 87.783 267.616 89.6287 267.616 91.4998C267.616 117.75 228.082 139.116 178.776 139.869V139.869ZM176.086 37.5783C205.511 37.5783 232.022 44.1684 250.635 54.7068C250.004 54.5901 222.464 49.4954 223.63 48.4778C223.779 48.3489 223.052 48.7421 221.67 49.5279C208.25 45.4447 192.684 43.1089 176.086 43.1089C171.676 43.1089 167.341 43.2773 163.098 43.5956C161.89 41.7828 160.673 40.0156 159.457 38.2954C164.869 37.8261 170.423 37.5783 176.086 37.5783" fill="#20B6C9"/>
<path d="M187.484 116.777C211.908 116.852 233.804 110.557 250.853 91.0617C250.853 91.0617 233.673 126.461 185.709 126.131C186.552 123.048 187.137 119.926 187.484 116.777" fill="#20B6C9"/>
<path d="M255.865 87.5544C256.801 90.2467 240.668 124.52 182.619 132.87C181.818 134.737 180.912 136.585 179.875 138.407C224.168 133.571 262.858 114.285 255.865 87.5544" fill="#F69C0F"/>
<path d="M329.609 87.6623C281.327 92.8583 224.728 70.159 176.075 66.4483C174.523 63.1887 172.862 59.9897 171.125 56.8674C173.604 57.0148 176.155 57.2484 178.786 57.5841C237.386 65.0612 272.29 86.6424 329.609 87.6623Z" fill="#20B6C9"/>
<path d="M167.365 49.8793C188.885 46.5494 216.267 46.9454 250.853 54.2371C226.902 42.8554 193.848 40.518 164.318 44.9236C165.345 46.5441 166.362 48.1993 167.365 49.8793" fill="#20B6C9"/>
<path fill-rule="evenodd" clip-rule="evenodd" d="M175.501 69.1423C198.859 69.1423 217.795 79.1521 217.795 91.5001C217.795 103.848 198.859 113.858 175.501 113.858C152.141 113.858 133.205 103.848 133.205 91.5001C133.205 79.1521 152.141 69.1423 175.501 69.1423Z" fill="#5AC134"/>
<path fill-rule="evenodd" clip-rule="evenodd" d="M175.5 78.7868C162.88 78.7868 152.651 84.4789 152.651 91.5001C152.651 98.5213 162.88 104.213 175.5 104.213C188.119 104.213 198.349 98.5213 198.349 91.5001C198.349 84.4789 188.119 78.7868 175.5 78.7868Z" fill="#163723"/>
<path fill-rule="evenodd" clip-rule="evenodd" d="M161.402 77.9099C153.884 77.9099 147.79 80.854 147.79 84.4857C147.79 88.1174 153.884 91.0615 161.402 91.0615C168.919 91.0615 175.014 88.1174 175.014 84.4857C175.014 80.854 168.919 77.9099 161.402 77.9099Z" fill="white"/>
<path fill-rule="evenodd" clip-rule="evenodd" d="M196.404 74.4029C207.003 78.2223 213.906 84.4563 213.906 91.5C213.906 98.5437 207.003 104.778 196.404 108.597C204.027 104.227 208.746 98.1805 208.746 91.5C208.746 84.8195 204.027 78.7733 196.404 74.4029Z" fill="#2EAB49"/>
</svg>
