<svg width="90" height="90" viewBox="0 0 90 90" fill="none" xmlns="http://www.w3.org/2000/svg">
<g filter="url(#filter0_d_103_4571)">
<circle cx="45" cy="41" r="33" fill="#FFD362"/>
<path d="M56.785 46.8624V50.4109C56.7905 51.7673 55.5708 52.9001 54.2013 52.7765C42.381 52.7858 33.2144 43.534 33.2236 31.7931C33.1003 30.4308 34.2274 29.2157 35.5821 29.2145H39.1377C39.7128 29.2088 40.2704 29.4121 40.7066 29.7864C41.9464 30.8506 42.7439 34.4626 42.4371 35.8985C42.1975 37.0196 41.0674 37.8039 40.2991 38.5707C41.9863 41.532 44.4431 43.9839 47.4102 45.6677C48.1785 44.9009 48.9644 43.7731 50.0877 43.534C51.5287 43.2273 55.1639 44.0259 56.2238 45.2744C56.5997 45.7171 56.7994 46.2823 56.785 46.8624Z" stroke="#2E3A40" stroke-width="2" stroke-linecap="round" stroke-linejoin="round"/>
<path d="M48.2739 33.7977C49.2393 33.986 50.1975 34.4118 50.893 35.1072C51.5884 35.8027 52.0142 36.7609 52.2025 37.7263M48.9287 29.2144C50.9343 29.4372 52.739 30.4074 54.1668 31.8334C55.5946 33.2594 56.5605 35.0662 56.7858 37.0715" stroke="#2E3A40" stroke-width="2" stroke-linecap="round" stroke-linejoin="round"/>
</g>
<defs>
<filter id="filter0_d_103_4571" x="0" y="0" width="90" height="90" filterUnits="userSpaceOnUse" color-interpolation-filters="sRGB">
<feFlood flood-opacity="0" result="BackgroundImageFix"/>
<feColorMatrix in="SourceAlpha" type="matrix" values="0 0 0 0 0 0 0 0 0 0 0 0 0 0 0 0 0 0 127 0" result="hardAlpha"/>
<feOffset dy="4"/>
<feGaussianBlur stdDeviation="6"/>
<feComposite in2="hardAlpha" operator="out"/>
<feColorMatrix type="matrix" values="0 0 0 0 0.0981771 0 0 0 0 0.120833 0 0 0 0 0.111318 0 0 0 0.15 0"/>
<feBlend mode="normal" in2="BackgroundImageFix" result="effect1_dropShadow_103_4571"/>
<feBlend mode="normal" in="SourceGraphic" in2="effect1_dropShadow_103_4571" result="shape"/>
</filter>
</defs>
</svg>
