<svg width="39" height="39" viewBox="0 0 39 39" fill="none" xmlns="http://www.w3.org/2000/svg">
<path d="M38.9907 19.496C38.9907 30.2626 30.2627 38.9902 19.4947 38.9902C8.72799 38.9902 0 30.2626 0 19.496C0 8.7293 8.72799 -0.000298783 19.4947 -0.000298783C30.2627 -0.000298783 38.9907 8.7293 38.9907 19.496" fill="#5AC134"/>
<path d="M13.2093 9.83739C14.416 9.83739 15.3933 10.8177 15.3933 12.0229C15.3933 13.2281 14.416 14.2093 13.2093 14.2093C11.9973 14.2093 11.02 13.2281 11.02 12.0229C11.02 10.8177 11.9973 9.83739 13.2093 9.83739ZM11.32 15.8655H15.096V27.9937H11.32V15.8655Z" fill="white"/>
<path d="M17.4614 15.8655H21.0774V17.5238H21.1268C21.6321 16.5691 22.8614 15.5639 24.6974 15.5639C28.5148 15.5639 29.2174 18.0749 29.2174 21.3415V27.9937H25.4508V22.0962C25.4508 20.6895 25.4241 18.8801 23.4908 18.8801C21.5294 18.8801 21.2294 20.4134 21.2294 21.9937V27.9937H17.4614V15.8655" fill="white"/>
</svg>
