<svg width="19" height="22" viewBox="0 0 19 22" fill="none" xmlns="http://www.w3.org/2000/svg">
<path d="M18 9.18182C18 15.5455 9.5 21 9.5 21C9.5 21 1 15.5455 1 9.18182C1 7.01187 1.89553 4.93079 3.48959 3.3964C5.08365 1.86201 7.24566 1 9.5 1C11.7543 1 13.9163 1.86201 15.5104 3.3964C17.1045 4.93079 18 7.01187 18 9.18182Z" stroke="#F69C0F" stroke-width="2" stroke-linecap="round" stroke-linejoin="round"/>
<path d="M9.49984 12.2923C11.0646 12.2923 12.3332 10.9856 12.3332 9.37358C12.3332 7.7616 11.0646 6.45483 9.49984 6.45483C7.93503 6.45483 6.6665 7.7616 6.6665 9.37358C6.6665 10.9856 7.93503 12.2923 9.49984 12.2923Z" stroke="#F69C0F" stroke-width="2" stroke-linecap="round" stroke-linejoin="round"/>
</svg>
