<svg width="351" height="186" viewBox="0 0 351 186" fill="none" xmlns="http://www.w3.org/2000/svg">
<path d="M128.343 127.907C142.136 132.849 158.263 135.692 175.5 135.692C226.341 135.692 267.555 110.982 267.555 80.4997C267.555 78.3656 267.347 76.2605 266.953 74.1891C270.995 75.021 274.881 75.8218 277.848 76.4359C277.995 77.7799 278.077 79.1342 278.077 80.4997C278.077 114.465 232.152 142 175.5 142C145.365 142 118.266 134.209 99.4999 121.804C99.5858 121.822 127.858 127.738 126.674 128.911C126.536 129.047 127.155 128.67 128.343 127.907V127.907ZM175.5 19C205.093 19 231.757 26.5163 250.477 38.5357C249.843 38.4027 222.144 32.592 223.317 31.4314C223.466 31.2844 222.735 31.7328 221.346 32.629C207.849 27.9719 192.193 25.3079 175.5 25.3079C124.658 25.3079 83.4435 50.0183 83.4435 80.4997C83.4435 82.4735 83.6197 84.422 83.9567 86.3427C80.0126 85.5306 76.1631 84.7374 73.1024 84.1045C72.987 82.9111 72.9224 81.7103 72.9224 80.4997C72.9224 46.5342 118.848 19 175.5 19" fill="#F8B90A"/>
<path d="M21.3906 84.3066C98.9268 74.675 197.961 148.267 250.853 80C250.853 80 230.401 127.571 171.915 118.957C113.431 110.343 78.5964 85.4816 21.3906 84.3066" fill="#20B6C9"/>
<path d="M255.87 76C257.146 80.1863 226.513 151.727 100.147 122.426C157.576 152.442 267.221 125.451 255.87 76Z" fill="#F8B90A"/>
<path d="M329.61 75.8011C252.073 85.1919 153.039 13.4401 100.147 80C100.147 80 120.599 33.6185 179.085 42.0169C237.568 50.4153 272.404 74.6555 329.61 75.8011Z" fill="#F8B90A"/>
<path d="M95.1303 85C93.8544 80.7428 124.488 7.98895 250.853 37.7868C193.424 7.26249 83.7806 34.711 95.1303 85Z" fill="#20B6C9"/>
<path d="M178.776 135.666C177.6 137.81 176.276 139.918 174.825 141.995C175.245 141.998 175.666 142 176.086 142C232.414 142 278.078 114.465 278.078 80.4997C278.078 79.1342 277.996 77.7799 277.85 76.4359C274.899 75.8218 271.036 75.021 267.017 74.1891C267.408 76.2605 267.616 78.3656 267.616 80.4997C267.616 110.439 228.082 134.808 178.776 135.666V135.666ZM176.086 19C205.511 19 232.022 26.5163 250.635 38.5357C250.004 38.4027 222.464 32.592 223.63 31.4314C223.779 31.2844 223.052 31.7328 221.67 32.629C208.25 27.9719 192.684 25.3079 176.086 25.3079C171.676 25.3079 167.341 25.4999 163.098 25.863C161.89 23.7954 160.673 21.7799 159.457 19.8179C164.869 19.2827 170.423 19 176.086 19" fill="#20B6C9"/>
<path d="M187.484 109.329C211.908 109.415 233.804 102.235 250.853 80C250.853 80 233.673 120.375 185.709 119.997C186.552 116.482 187.137 112.921 187.484 109.329" fill="#F69C0F"/>
<path d="M255.865 76C256.801 79.0706 240.668 118.161 182.619 127.685C181.818 129.814 180.912 131.921 179.875 134C224.168 128.484 262.858 106.488 255.865 76" fill="#F69C0F"/>
<path d="M329.609 76.1229C281.327 82.0491 224.728 56.1596 176.075 51.9274C174.523 48.2097 172.862 44.5611 171.125 41C173.604 41.168 176.155 41.4345 178.786 41.8174C237.386 50.3454 272.29 74.9596 329.609 76.1229Z" fill="#F69C0F"/>
<path d="M167.365 33.0298C188.885 29.2319 216.267 29.6836 250.853 38C226.902 25.0188 193.848 22.3528 164.318 27.3777C165.345 29.2258 166.362 31.1137 167.365 33.0298" fill="#F69C0F"/>
<path fill-rule="evenodd" clip-rule="evenodd" d="M175.501 55C198.859 55 217.795 66.4166 217.795 80.5C217.795 94.5834 198.859 106 175.501 106C152.141 106 133.205 94.5834 133.205 80.5C133.205 66.4166 152.141 55 175.501 55Z" fill="#5AC134"/>
<path fill-rule="evenodd" clip-rule="evenodd" d="M175.5 66C162.88 66 152.651 72.492 152.651 80.5C152.651 88.508 162.88 95 175.5 95C188.119 95 198.349 88.508 198.349 80.5C198.349 72.492 188.119 66 175.5 66Z" fill="#163723"/>
<path fill-rule="evenodd" clip-rule="evenodd" d="M161.402 65C153.884 65 147.79 68.3579 147.79 72.5C147.79 76.6421 153.884 80 161.402 80C168.919 80 175.014 76.6421 175.014 72.5C175.014 68.3579 168.919 65 161.402 65Z" fill="white"/>
<path fill-rule="evenodd" clip-rule="evenodd" d="M196.404 61C207.003 65.3563 213.906 72.4664 213.906 80.5C213.906 88.5336 207.003 95.6437 196.404 100C204.027 95.0153 208.746 88.1194 208.746 80.5C208.746 72.8806 204.027 65.9847 196.404 61Z" fill="#2EAB49"/>
</svg>
