<svg width="107" height="27" viewBox="0 0 107 27" fill="none" xmlns="http://www.w3.org/2000/svg">
<path d="M20.6572 17H19.4829V9.53516C19.4829 9.01465 19.5845 8.57454 19.7876 8.21484C19.9907 7.85514 20.2806 7.58219 20.6572 7.396C21.0339 7.2098 21.4803 7.1167 21.9966 7.1167C22.3013 7.1167 22.5996 7.15479 22.8916 7.23096C23.1836 7.3029 23.484 7.39388 23.793 7.50391L23.5962 8.49414C23.4015 8.41797 23.1751 8.34603 22.917 8.27832C22.6631 8.20638 22.3838 8.17041 22.0791 8.17041C21.5755 8.17041 21.2116 8.28467 20.9873 8.51318C20.7673 8.73747 20.6572 9.07812 20.6572 9.53516V17ZM22.0601 10.1318V11.0332H18.3975V10.1318H22.0601ZM24.3706 10.1318V17H23.1963V10.1318H24.3706ZM27.4746 11.2109V17H26.3003V10.1318H27.4429L27.4746 11.2109ZM29.6201 10.0938L29.6138 11.1855C29.5164 11.1644 29.4233 11.1517 29.3345 11.1475C29.2498 11.139 29.1525 11.1348 29.0425 11.1348C28.7716 11.1348 28.5326 11.1771 28.3252 11.2617C28.1178 11.3464 27.9422 11.4648 27.7983 11.6172C27.6545 11.7695 27.5402 11.9515 27.4556 12.1631C27.3752 12.3704 27.3223 12.599 27.2969 12.8486L26.9668 13.0391C26.9668 12.6243 27.007 12.235 27.0874 11.8711C27.172 11.5072 27.3011 11.1855 27.4746 10.9062C27.6481 10.6227 27.8682 10.4027 28.1348 10.2461C28.4056 10.0853 28.7272 10.0049 29.0996 10.0049C29.1842 10.0049 29.2816 10.0155 29.3916 10.0366C29.5016 10.0535 29.5778 10.0726 29.6201 10.0938ZM34.7046 15.1782C34.7046 15.009 34.6665 14.8524 34.5903 14.7085C34.5184 14.5604 34.3682 14.4271 34.1396 14.3086C33.9154 14.1859 33.5768 14.0801 33.124 13.9912C32.7432 13.9108 32.3983 13.8156 32.0894 13.7056C31.7847 13.5955 31.5244 13.4622 31.3086 13.3057C31.097 13.1491 30.9341 12.965 30.8198 12.7534C30.7056 12.5418 30.6484 12.2943 30.6484 12.0107C30.6484 11.7399 30.7077 11.4839 30.8262 11.2427C30.9489 11.0015 31.1203 10.7878 31.3403 10.6016C31.5646 10.4154 31.8333 10.2694 32.1465 10.1636C32.4596 10.0578 32.8088 10.0049 33.1938 10.0049C33.744 10.0049 34.2137 10.1022 34.603 10.2969C34.9924 10.4915 35.2907 10.7518 35.498 11.0776C35.7054 11.3993 35.8091 11.7568 35.8091 12.1504H34.6348C34.6348 11.96 34.5776 11.7759 34.4634 11.5981C34.3534 11.4162 34.1904 11.266 33.9746 11.1475C33.763 11.029 33.5028 10.9697 33.1938 10.9697C32.868 10.9697 32.6035 11.0205 32.4004 11.1221C32.2015 11.2194 32.0555 11.3442 31.9624 11.4966C31.8735 11.6489 31.8291 11.8097 31.8291 11.979C31.8291 12.106 31.8503 12.2202 31.8926 12.3218C31.9391 12.4191 32.0195 12.5101 32.1338 12.5947C32.248 12.6751 32.4089 12.7513 32.6162 12.8232C32.8236 12.8952 33.0881 12.9671 33.4097 13.0391C33.9725 13.166 34.4359 13.3184 34.7998 13.4961C35.1637 13.6738 35.4346 13.8918 35.6123 14.1499C35.79 14.408 35.8789 14.7212 35.8789 15.0894C35.8789 15.3898 35.8154 15.6649 35.6885 15.9146C35.5658 16.1642 35.3859 16.38 35.1489 16.562C34.9162 16.7397 34.6369 16.8794 34.311 16.981C33.9894 17.0783 33.6276 17.127 33.2256 17.127C32.6204 17.127 32.1084 17.019 31.6895 16.8032C31.2705 16.5874 30.9531 16.3081 30.7373 15.9653C30.5215 15.6226 30.4136 15.2607 30.4136 14.8799H31.5942C31.6112 15.2015 31.7043 15.4575 31.8735 15.6479C32.0428 15.8341 32.2502 15.9674 32.4956 16.0479C32.741 16.124 32.9844 16.1621 33.2256 16.1621C33.5472 16.1621 33.8159 16.1198 34.0317 16.0352C34.2518 15.9505 34.4189 15.8341 34.5332 15.686C34.6475 15.5379 34.7046 15.3687 34.7046 15.1782ZM40.2969 10.1318V11.0332H36.5835V10.1318H40.2969ZM37.8403 8.4624H39.0146V15.2988C39.0146 15.5316 39.0506 15.7072 39.1226 15.8257C39.1945 15.9442 39.2876 16.0225 39.4019 16.0605C39.5161 16.0986 39.6388 16.1177 39.77 16.1177C39.8674 16.1177 39.9689 16.1092 40.0747 16.0923C40.1847 16.0711 40.2673 16.0542 40.3223 16.0415L40.3286 17C40.2355 17.0296 40.1128 17.0571 39.9604 17.0825C39.8123 17.1121 39.6325 17.127 39.4209 17.127C39.1331 17.127 38.8687 17.0698 38.6274 16.9556C38.3862 16.8413 38.1937 16.6509 38.0498 16.3843C37.9102 16.1134 37.8403 15.7495 37.8403 15.2925V8.4624ZM48.8979 15.1782C48.8979 15.009 48.8599 14.8524 48.7837 14.7085C48.7118 14.5604 48.5615 14.4271 48.333 14.3086C48.1087 14.1859 47.7702 14.0801 47.3174 13.9912C46.9365 13.9108 46.5916 13.8156 46.2827 13.7056C45.978 13.5955 45.7178 13.4622 45.502 13.3057C45.2904 13.1491 45.1274 12.965 45.0132 12.7534C44.8989 12.5418 44.8418 12.2943 44.8418 12.0107C44.8418 11.7399 44.901 11.4839 45.0195 11.2427C45.1423 11.0015 45.3136 10.7878 45.5337 10.6016C45.758 10.4154 46.0267 10.2694 46.3398 10.1636C46.653 10.0578 47.0021 10.0049 47.3872 10.0049C47.9373 10.0049 48.4071 10.1022 48.7964 10.2969C49.1857 10.4915 49.484 10.7518 49.6914 11.0776C49.8988 11.3993 50.0024 11.7568 50.0024 12.1504H48.8281C48.8281 11.96 48.771 11.7759 48.6567 11.5981C48.5467 11.4162 48.3838 11.266 48.168 11.1475C47.9564 11.029 47.6961 10.9697 47.3872 10.9697C47.0614 10.9697 46.7969 11.0205 46.5938 11.1221C46.3949 11.2194 46.2489 11.3442 46.1558 11.4966C46.0669 11.6489 46.0225 11.8097 46.0225 11.979C46.0225 12.106 46.0436 12.2202 46.0859 12.3218C46.1325 12.4191 46.2129 12.5101 46.3271 12.5947C46.4414 12.6751 46.6022 12.7513 46.8096 12.8232C47.0169 12.8952 47.2814 12.9671 47.603 13.0391C48.1659 13.166 48.6292 13.3184 48.9932 13.4961C49.3571 13.6738 49.6279 13.8918 49.8057 14.1499C49.9834 14.408 50.0723 14.7212 50.0723 15.0894C50.0723 15.3898 50.0088 15.6649 49.8818 15.9146C49.7591 16.1642 49.5793 16.38 49.3423 16.562C49.1095 16.7397 48.8302 16.8794 48.5044 16.981C48.1828 17.0783 47.821 17.127 47.4189 17.127C46.8138 17.127 46.3018 17.019 45.8828 16.8032C45.4639 16.5874 45.1465 16.3081 44.9307 15.9653C44.7148 15.6226 44.6069 15.2607 44.6069 14.8799H45.7876C45.8045 15.2015 45.8976 15.4575 46.0669 15.6479C46.2362 15.8341 46.4435 15.9674 46.689 16.0479C46.9344 16.124 47.1777 16.1621 47.4189 16.1621C47.7406 16.1621 48.0093 16.1198 48.2251 16.0352C48.4451 15.9505 48.6123 15.8341 48.7266 15.686C48.8408 15.5379 48.8979 15.3687 48.8979 15.1782ZM54.4648 17.127C53.9867 17.127 53.5529 17.0465 53.1636 16.8857C52.7785 16.7207 52.4463 16.4901 52.167 16.1938C51.8919 15.8976 51.6803 15.5464 51.5322 15.1401C51.3841 14.7339 51.3101 14.2896 51.3101 13.8071V13.5405C51.3101 12.9819 51.3926 12.4847 51.5576 12.0488C51.7227 11.6087 51.9469 11.2363 52.2305 10.9316C52.514 10.627 52.8356 10.3963 53.1953 10.2397C53.555 10.0832 53.9274 10.0049 54.3125 10.0049C54.8034 10.0049 55.2266 10.0895 55.582 10.2588C55.9417 10.4281 56.2358 10.665 56.4644 10.9697C56.6929 11.2702 56.8621 11.6257 56.9722 12.0361C57.0822 12.4424 57.1372 12.8867 57.1372 13.3691V13.896H52.0083V12.9375H55.9629V12.8486C55.946 12.5439 55.8825 12.2477 55.7725 11.96C55.6667 11.6722 55.4974 11.4352 55.2646 11.249C55.0319 11.0628 54.7145 10.9697 54.3125 10.9697C54.0459 10.9697 53.8005 11.0269 53.5762 11.1411C53.3519 11.2511 53.1593 11.4162 52.9985 11.6362C52.8377 11.8563 52.7129 12.125 52.624 12.4424C52.5352 12.7598 52.4907 13.1258 52.4907 13.5405V13.8071C52.4907 14.133 52.5352 14.4398 52.624 14.7275C52.7171 15.0111 52.8504 15.2607 53.0239 15.4766C53.2017 15.6924 53.4154 15.8617 53.665 15.9844C53.9189 16.1071 54.2067 16.1685 54.5283 16.1685C54.943 16.1685 55.2943 16.0838 55.582 15.9146C55.8698 15.7453 56.1216 15.5189 56.3374 15.2354L57.0483 15.8003C56.9002 16.0246 56.7119 16.2383 56.4834 16.4414C56.2549 16.6445 55.9735 16.8096 55.6392 16.9365C55.3091 17.0635 54.9176 17.127 54.4648 17.127ZM62.5073 15.1782C62.5073 15.009 62.4692 14.8524 62.3931 14.7085C62.3211 14.5604 62.1709 14.4271 61.9424 14.3086C61.7181 14.1859 61.3796 14.0801 60.9268 13.9912C60.5459 13.9108 60.201 13.8156 59.8921 13.7056C59.5874 13.5955 59.3271 13.4622 59.1113 13.3057C58.8997 13.1491 58.7368 12.965 58.6226 12.7534C58.5083 12.5418 58.4512 12.2943 58.4512 12.0107C58.4512 11.7399 58.5104 11.4839 58.6289 11.2427C58.7516 11.0015 58.923 10.7878 59.1431 10.6016C59.3674 10.4154 59.6361 10.2694 59.9492 10.1636C60.2624 10.0578 60.6115 10.0049 60.9966 10.0049C61.5467 10.0049 62.0164 10.1022 62.4058 10.2969C62.7951 10.4915 63.0934 10.7518 63.3008 11.0776C63.5081 11.3993 63.6118 11.7568 63.6118 12.1504H62.4375C62.4375 11.96 62.3804 11.7759 62.2661 11.5981C62.1561 11.4162 61.9932 11.266 61.7773 11.1475C61.5658 11.029 61.3055 10.9697 60.9966 10.9697C60.6707 10.9697 60.4062 11.0205 60.2031 11.1221C60.0042 11.2194 59.8582 11.3442 59.7651 11.4966C59.6763 11.6489 59.6318 11.8097 59.6318 11.979C59.6318 12.106 59.653 12.2202 59.6953 12.3218C59.7419 12.4191 59.8223 12.5101 59.9365 12.5947C60.0508 12.6751 60.2116 12.7513 60.4189 12.8232C60.6263 12.8952 60.8908 12.9671 61.2124 13.0391C61.7752 13.166 62.2386 13.3184 62.6025 13.4961C62.9665 13.6738 63.2373 13.8918 63.415 14.1499C63.5928 14.408 63.6816 14.7212 63.6816 15.0894C63.6816 15.3898 63.6182 15.6649 63.4912 15.9146C63.3685 16.1642 63.1886 16.38 62.9517 16.562C62.7189 16.7397 62.4396 16.8794 62.1138 16.981C61.7922 17.0783 61.4303 17.127 61.0283 17.127C60.4232 17.127 59.9111 17.019 59.4922 16.8032C59.0732 16.5874 58.7559 16.3081 58.54 15.9653C58.3242 15.6226 58.2163 15.2607 58.2163 14.8799H59.397C59.4139 15.2015 59.507 15.4575 59.6763 15.6479C59.8455 15.8341 60.0529 15.9674 60.2983 16.0479C60.5438 16.124 60.7871 16.1621 61.0283 16.1621C61.3499 16.1621 61.6187 16.1198 61.8345 16.0352C62.0545 15.9505 62.2217 15.8341 62.3359 15.686C62.4502 15.5379 62.5073 15.3687 62.5073 15.1782ZM69.2231 15.1782C69.2231 15.009 69.1851 14.8524 69.1089 14.7085C69.0369 14.5604 68.8867 14.4271 68.6582 14.3086C68.4339 14.1859 68.0954 14.0801 67.6426 13.9912C67.2617 13.9108 66.9168 13.8156 66.6079 13.7056C66.3032 13.5955 66.043 13.4622 65.8271 13.3057C65.6156 13.1491 65.4526 12.965 65.3384 12.7534C65.2241 12.5418 65.167 12.2943 65.167 12.0107C65.167 11.7399 65.2262 11.4839 65.3447 11.2427C65.4674 11.0015 65.6388 10.7878 65.8589 10.6016C66.0832 10.4154 66.3519 10.2694 66.665 10.1636C66.9782 10.0578 67.3273 10.0049 67.7124 10.0049C68.2625 10.0049 68.7323 10.1022 69.1216 10.2969C69.5109 10.4915 69.8092 10.7518 70.0166 11.0776C70.224 11.3993 70.3276 11.7568 70.3276 12.1504H69.1533C69.1533 11.96 69.0962 11.7759 68.9819 11.5981C68.8719 11.4162 68.709 11.266 68.4932 11.1475C68.2816 11.029 68.0213 10.9697 67.7124 10.9697C67.3866 10.9697 67.1221 11.0205 66.9189 11.1221C66.7201 11.2194 66.5741 11.3442 66.481 11.4966C66.3921 11.6489 66.3477 11.8097 66.3477 11.979C66.3477 12.106 66.3688 12.2202 66.4111 12.3218C66.4577 12.4191 66.5381 12.5101 66.6523 12.5947C66.7666 12.6751 66.9274 12.7513 67.1348 12.8232C67.3421 12.8952 67.6066 12.9671 67.9282 13.0391C68.491 13.166 68.9544 13.3184 69.3184 13.4961C69.6823 13.6738 69.9531 13.8918 70.1309 14.1499C70.3086 14.408 70.3975 14.7212 70.3975 15.0894C70.3975 15.3898 70.334 15.6649 70.207 15.9146C70.0843 16.1642 69.9045 16.38 69.6675 16.562C69.4347 16.7397 69.1554 16.8794 68.8296 16.981C68.508 17.0783 68.1462 17.127 67.7441 17.127C67.139 17.127 66.627 17.019 66.208 16.8032C65.7891 16.5874 65.4717 16.3081 65.2559 15.9653C65.04 15.6226 64.9321 15.2607 64.9321 14.8799H66.1128C66.1297 15.2015 66.2228 15.4575 66.3921 15.6479C66.5614 15.8341 66.7687 15.9674 67.0142 16.0479C67.2596 16.124 67.5029 16.1621 67.7441 16.1621C68.0658 16.1621 68.3345 16.1198 68.5503 16.0352C68.7703 15.9505 68.9375 15.8341 69.0518 15.686C69.166 15.5379 69.2231 15.3687 69.2231 15.1782ZM73.2158 10.1318V17H72.0352V10.1318H73.2158ZM71.9463 8.31006C71.9463 8.11963 72.0034 7.95882 72.1177 7.82764C72.2362 7.69645 72.4097 7.63086 72.6382 7.63086C72.8625 7.63086 73.0339 7.69645 73.1523 7.82764C73.2751 7.95882 73.3364 8.11963 73.3364 8.31006C73.3364 8.49202 73.2751 8.6486 73.1523 8.77979C73.0339 8.90674 72.8625 8.97021 72.6382 8.97021C72.4097 8.97021 72.2362 8.90674 72.1177 8.77979C72.0034 8.6486 71.9463 8.49202 71.9463 8.31006ZM74.79 13.6421V13.4961C74.79 13.001 74.862 12.5418 75.0059 12.1187C75.1497 11.6912 75.3571 11.321 75.6279 11.0078C75.8988 10.6904 76.2267 10.445 76.6118 10.2715C76.9969 10.0938 77.4285 10.0049 77.9067 10.0049C78.3892 10.0049 78.8229 10.0938 79.208 10.2715C79.5973 10.445 79.9274 10.6904 80.1982 11.0078C80.4733 11.321 80.6828 11.6912 80.8267 12.1187C80.9705 12.5418 81.0425 13.001 81.0425 13.4961V13.6421C81.0425 14.1372 80.9705 14.5964 80.8267 15.0195C80.6828 15.4427 80.4733 15.813 80.1982 16.1304C79.9274 16.4435 79.5994 16.689 79.2144 16.8667C78.8335 17.0402 78.4019 17.127 77.9194 17.127C77.437 17.127 77.0033 17.0402 76.6182 16.8667C76.2331 16.689 75.903 16.4435 75.6279 16.1304C75.3571 15.813 75.1497 15.4427 75.0059 15.0195C74.862 14.5964 74.79 14.1372 74.79 13.6421ZM75.9644 13.4961V13.6421C75.9644 13.9849 76.0046 14.3086 76.085 14.6133C76.1654 14.9137 76.286 15.1803 76.4468 15.4131C76.6118 15.6458 76.8171 15.8299 77.0625 15.9653C77.3079 16.0965 77.5936 16.1621 77.9194 16.1621C78.241 16.1621 78.5225 16.0965 78.7637 15.9653C79.0091 15.8299 79.2122 15.6458 79.373 15.4131C79.5339 15.1803 79.6545 14.9137 79.7349 14.6133C79.8195 14.3086 79.8618 13.9849 79.8618 13.6421V13.4961C79.8618 13.1576 79.8195 12.8381 79.7349 12.5376C79.6545 12.2329 79.5317 11.9642 79.3667 11.7314C79.2059 11.4945 79.0028 11.3083 78.7573 11.1729C78.5161 11.0374 78.2326 10.9697 77.9067 10.9697C77.5851 10.9697 77.3016 11.0374 77.0562 11.1729C76.8149 11.3083 76.6118 11.4945 76.4468 11.7314C76.286 11.9642 76.1654 12.2329 76.085 12.5376C76.0046 12.8381 75.9644 13.1576 75.9644 13.4961ZM83.6895 11.5981V17H82.5151V10.1318H83.626L83.6895 11.5981ZM83.4102 13.3057L82.9214 13.2866C82.9256 12.8169 82.9954 12.3831 83.1309 11.9854C83.2663 11.5833 83.4567 11.2342 83.7021 10.938C83.9476 10.6418 84.2396 10.4132 84.5781 10.2524C84.9209 10.0874 85.2996 10.0049 85.7144 10.0049C86.0529 10.0049 86.3576 10.0514 86.6284 10.1445C86.8993 10.2334 87.1299 10.3773 87.3203 10.5762C87.515 10.7751 87.6631 11.0332 87.7646 11.3506C87.8662 11.6637 87.917 12.0467 87.917 12.4995V17H86.7363V12.4868C86.7363 12.1271 86.6834 11.8394 86.5776 11.6235C86.4718 11.4035 86.3174 11.2448 86.1143 11.1475C85.9111 11.0459 85.6615 10.9951 85.3652 10.9951C85.0732 10.9951 84.8066 11.0565 84.5654 11.1792C84.3285 11.3019 84.1232 11.4712 83.9497 11.687C83.7804 11.9028 83.6471 12.1504 83.5498 12.4297C83.4567 12.7048 83.4102 12.9967 83.4102 13.3057Z" fill="#F69C0F"/>
<rect x="1" y="1" width="105" height="25" rx="12.5" stroke="#F69C0F"/>
</svg>
