<svg width="276" height="27" viewBox="0 0 276 27" fill="none" xmlns="http://www.w3.org/2000/svg">
<path d="M28.1841 15.8257V12.29C28.1841 12.0192 28.1291 11.7843 28.019 11.5854C27.9132 11.3823 27.7524 11.2257 27.5366 11.1157C27.3208 11.0057 27.0542 10.9507 26.7368 10.9507C26.4406 10.9507 26.1803 11.0015 25.9561 11.103C25.736 11.2046 25.5625 11.3379 25.4355 11.5029C25.3128 11.668 25.2515 11.8457 25.2515 12.0361H24.0771C24.0771 11.7907 24.1406 11.5474 24.2676 11.3062C24.3945 11.0649 24.5765 10.847 24.8135 10.6523C25.0547 10.4535 25.3424 10.2969 25.6768 10.1826C26.0153 10.0641 26.3919 10.0049 26.8066 10.0049C27.306 10.0049 27.7461 10.0895 28.127 10.2588C28.512 10.4281 28.8125 10.6841 29.0283 11.0269C29.2484 11.3654 29.3584 11.7907 29.3584 12.3027V15.502C29.3584 15.7305 29.3774 15.9738 29.4155 16.2319C29.4578 16.4901 29.5192 16.7122 29.5996 16.8984V17H28.3745C28.3153 16.8646 28.2687 16.6847 28.2349 16.4604C28.201 16.2319 28.1841 16.0203 28.1841 15.8257ZM28.3872 12.8359L28.3999 13.6611H27.2129C26.8786 13.6611 26.5802 13.6886 26.3179 13.7437C26.0555 13.7944 25.8354 13.8727 25.6577 13.9785C25.48 14.0843 25.3446 14.2176 25.2515 14.3784C25.1584 14.535 25.1118 14.7191 25.1118 14.9307C25.1118 15.1465 25.1605 15.3433 25.2578 15.521C25.3551 15.6987 25.5011 15.8405 25.6958 15.9463C25.8947 16.0479 26.138 16.0986 26.4258 16.0986C26.7855 16.0986 27.1029 16.0225 27.3779 15.8701C27.653 15.7178 27.8709 15.5316 28.0317 15.3115C28.1968 15.0915 28.2856 14.8778 28.2983 14.6704L28.7998 15.2354C28.7702 15.4131 28.6898 15.6099 28.5586 15.8257C28.4274 16.0415 28.2518 16.2489 28.0317 16.4478C27.8159 16.6424 27.5578 16.8053 27.2573 16.9365C26.9611 17.0635 26.6268 17.127 26.2544 17.127C25.7889 17.127 25.3805 17.036 25.0293 16.854C24.6823 16.672 24.4115 16.4287 24.2168 16.124C24.0264 15.8151 23.9312 15.4702 23.9312 15.0894C23.9312 14.7212 24.0031 14.3975 24.147 14.1182C24.2909 13.8346 24.4982 13.5998 24.769 13.4136C25.0399 13.2231 25.3657 13.0793 25.7466 12.9819C26.1274 12.8846 26.5527 12.8359 27.0225 12.8359H28.3872ZM32.9575 17H31.7832V9.4082C31.7832 8.91309 31.8721 8.49626 32.0498 8.15771C32.2318 7.81494 32.492 7.5568 32.8306 7.3833C33.1691 7.20557 33.5711 7.1167 34.0366 7.1167C34.172 7.1167 34.3075 7.12516 34.4429 7.14209C34.5825 7.15902 34.7179 7.18441 34.8491 7.21826L34.7856 8.17676C34.6968 8.1556 34.5952 8.14079 34.481 8.13232C34.3709 8.12386 34.2609 8.11963 34.1509 8.11963C33.9012 8.11963 33.6854 8.17041 33.5034 8.27197C33.3257 8.3693 33.1903 8.51318 33.0972 8.70361C33.0041 8.89404 32.9575 9.12891 32.9575 9.4082V17ZM34.4175 10.1318V11.0332H30.6978V10.1318H34.4175ZM38.6006 10.1318V11.0332H34.8872V10.1318H38.6006ZM36.144 8.4624H37.3184V15.2988C37.3184 15.5316 37.3543 15.7072 37.4263 15.8257C37.4982 15.9442 37.5913 16.0225 37.7056 16.0605C37.8198 16.0986 37.9425 16.1177 38.0737 16.1177C38.1711 16.1177 38.2726 16.1092 38.3784 16.0923C38.4884 16.0711 38.571 16.0542 38.626 16.0415L38.6323 17C38.5392 17.0296 38.4165 17.0571 38.2642 17.0825C38.116 17.1121 37.9362 17.127 37.7246 17.127C37.4368 17.127 37.1724 17.0698 36.9312 16.9556C36.6899 16.8413 36.4974 16.6509 36.3535 16.3843C36.2139 16.1134 36.144 15.7495 36.144 15.2925V8.4624ZM42.8281 17.127C42.3499 17.127 41.9162 17.0465 41.5269 16.8857C41.1418 16.7207 40.8096 16.4901 40.5303 16.1938C40.2552 15.8976 40.0436 15.5464 39.8955 15.1401C39.7474 14.7339 39.6733 14.2896 39.6733 13.8071V13.5405C39.6733 12.9819 39.7559 12.4847 39.9209 12.0488C40.0859 11.6087 40.3102 11.2363 40.5938 10.9316C40.8773 10.627 41.1989 10.3963 41.5586 10.2397C41.9183 10.0832 42.2907 10.0049 42.6758 10.0049C43.1667 10.0049 43.5898 10.0895 43.9453 10.2588C44.305 10.4281 44.5991 10.665 44.8276 10.9697C45.0562 11.2702 45.2254 11.6257 45.3354 12.0361C45.4455 12.4424 45.5005 12.8867 45.5005 13.3691V13.896H40.3716V12.9375H44.3262V12.8486C44.3092 12.5439 44.2458 12.2477 44.1357 11.96C44.0299 11.6722 43.8607 11.4352 43.6279 11.249C43.3952 11.0628 43.0778 10.9697 42.6758 10.9697C42.4092 10.9697 42.1637 11.0269 41.9395 11.1411C41.7152 11.2511 41.5226 11.4162 41.3618 11.6362C41.201 11.8563 41.0762 12.125 40.9873 12.4424C40.8984 12.7598 40.854 13.1258 40.854 13.5405V13.8071C40.854 14.133 40.8984 14.4398 40.9873 14.7275C41.0804 15.0111 41.2137 15.2607 41.3872 15.4766C41.5649 15.6924 41.7786 15.8617 42.0283 15.9844C42.2822 16.1071 42.57 16.1685 42.8916 16.1685C43.3063 16.1685 43.6576 16.0838 43.9453 15.9146C44.2331 15.7453 44.4849 15.5189 44.7007 15.2354L45.4116 15.8003C45.2635 16.0246 45.0752 16.2383 44.8467 16.4414C44.6182 16.6445 44.3368 16.8096 44.0024 16.9365C43.6724 17.0635 43.2809 17.127 42.8281 17.127ZM48.0459 11.2109V17H46.8716V10.1318H48.0142L48.0459 11.2109ZM50.1914 10.0938L50.1851 11.1855C50.0877 11.1644 49.9946 11.1517 49.9058 11.1475C49.8211 11.139 49.7238 11.1348 49.6138 11.1348C49.3429 11.1348 49.1038 11.1771 48.8965 11.2617C48.6891 11.3464 48.5135 11.4648 48.3696 11.6172C48.2257 11.7695 48.1115 11.9515 48.0269 12.1631C47.9465 12.3704 47.8936 12.599 47.8682 12.8486L47.5381 13.0391C47.5381 12.6243 47.5783 12.235 47.6587 11.8711C47.7433 11.5072 47.8724 11.1855 48.0459 10.9062C48.2194 10.6227 48.4395 10.4027 48.7061 10.2461C48.9769 10.0853 49.2985 10.0049 49.6709 10.0049C49.7555 10.0049 49.8529 10.0155 49.9629 10.0366C50.0729 10.0535 50.1491 10.0726 50.1914 10.0938ZM55.7773 7.25V17H54.5967V7.25H55.7773ZM60.5127 17.127C60.0345 17.127 59.6007 17.0465 59.2114 16.8857C58.8263 16.7207 58.4941 16.4901 58.2148 16.1938C57.9398 15.8976 57.7282 15.5464 57.5801 15.1401C57.432 14.7339 57.3579 14.2896 57.3579 13.8071V13.5405C57.3579 12.9819 57.4404 12.4847 57.6055 12.0488C57.7705 11.6087 57.9948 11.2363 58.2783 10.9316C58.5618 10.627 58.8835 10.3963 59.2432 10.2397C59.6029 10.0832 59.9753 10.0049 60.3604 10.0049C60.8512 10.0049 61.2744 10.0895 61.6299 10.2588C61.9896 10.4281 62.2837 10.665 62.5122 10.9697C62.7407 11.2702 62.91 11.6257 63.02 12.0361C63.13 12.4424 63.1851 12.8867 63.1851 13.3691V13.896H58.0562V12.9375H62.0107V12.8486C61.9938 12.5439 61.9303 12.2477 61.8203 11.96C61.7145 11.6722 61.5452 11.4352 61.3125 11.249C61.0798 11.0628 60.7624 10.9697 60.3604 10.9697C60.0938 10.9697 59.8483 11.0269 59.624 11.1411C59.3997 11.2511 59.2072 11.4162 59.0464 11.6362C58.8856 11.8563 58.7607 12.125 58.6719 12.4424C58.583 12.7598 58.5386 13.1258 58.5386 13.5405V13.8071C58.5386 14.133 58.583 14.4398 58.6719 14.7275C58.765 15.0111 58.8983 15.2607 59.0718 15.4766C59.2495 15.6924 59.4632 15.8617 59.7129 15.9844C59.9668 16.1071 60.2546 16.1685 60.5762 16.1685C60.9909 16.1685 61.3421 16.0838 61.6299 15.9146C61.9176 15.7453 62.1694 15.5189 62.3853 15.2354L63.0962 15.8003C62.9481 16.0246 62.7598 16.2383 62.5312 16.4414C62.3027 16.6445 62.0213 16.8096 61.687 16.9365C61.3569 17.0635 60.9655 17.127 60.5127 17.127ZM65.7305 11.5981V17H64.5562V10.1318H65.667L65.7305 11.5981ZM65.4512 13.3057L64.9624 13.2866C64.9666 12.8169 65.0365 12.3831 65.1719 11.9854C65.3073 11.5833 65.4977 11.2342 65.7432 10.938C65.9886 10.6418 66.2806 10.4132 66.6191 10.2524C66.9619 10.0874 67.3407 10.0049 67.7554 10.0049C68.0939 10.0049 68.3986 10.0514 68.6694 10.1445C68.9403 10.2334 69.1709 10.3773 69.3613 10.5762C69.556 10.7751 69.7041 11.0332 69.8057 11.3506C69.9072 11.6637 69.958 12.0467 69.958 12.4995V17H68.7773V12.4868C68.7773 12.1271 68.7244 11.8394 68.6187 11.6235C68.5129 11.4035 68.3584 11.2448 68.1553 11.1475C67.9521 11.0459 67.7025 10.9951 67.4062 10.9951C67.1143 10.9951 66.8477 11.0565 66.6064 11.1792C66.3695 11.3019 66.1642 11.4712 65.9907 11.687C65.8215 11.9028 65.6882 12.1504 65.5908 12.4297C65.4977 12.7048 65.4512 12.9967 65.4512 13.3057ZM75.7407 15.1782C75.7407 15.009 75.7026 14.8524 75.6265 14.7085C75.5545 14.5604 75.4043 14.4271 75.1758 14.3086C74.9515 14.1859 74.613 14.0801 74.1602 13.9912C73.7793 13.9108 73.4344 13.8156 73.1255 13.7056C72.8208 13.5955 72.5605 13.4622 72.3447 13.3057C72.1331 13.1491 71.9702 12.965 71.856 12.7534C71.7417 12.5418 71.6846 12.2943 71.6846 12.0107C71.6846 11.7399 71.7438 11.4839 71.8623 11.2427C71.985 11.0015 72.1564 10.7878 72.3765 10.6016C72.6007 10.4154 72.8695 10.2694 73.1826 10.1636C73.4958 10.0578 73.8449 10.0049 74.23 10.0049C74.7801 10.0049 75.2498 10.1022 75.6392 10.2969C76.0285 10.4915 76.3268 10.7518 76.5342 11.0776C76.7415 11.3993 76.8452 11.7568 76.8452 12.1504H75.6709C75.6709 11.96 75.6138 11.7759 75.4995 11.5981C75.3895 11.4162 75.2266 11.266 75.0107 11.1475C74.7992 11.029 74.5389 10.9697 74.23 10.9697C73.9041 10.9697 73.6396 11.0205 73.4365 11.1221C73.2376 11.2194 73.0916 11.3442 72.9985 11.4966C72.9097 11.6489 72.8652 11.8097 72.8652 11.979C72.8652 12.106 72.8864 12.2202 72.9287 12.3218C72.9753 12.4191 73.0557 12.5101 73.1699 12.5947C73.2842 12.6751 73.445 12.7513 73.6523 12.8232C73.8597 12.8952 74.1242 12.9671 74.4458 13.0391C75.0086 13.166 75.472 13.3184 75.8359 13.4961C76.1999 13.6738 76.4707 13.8918 76.6484 14.1499C76.8262 14.408 76.915 14.7212 76.915 15.0894C76.915 15.3898 76.8516 15.6649 76.7246 15.9146C76.6019 16.1642 76.422 16.38 76.1851 16.562C75.9523 16.7397 75.673 16.8794 75.3472 16.981C75.0256 17.0783 74.6637 17.127 74.2617 17.127C73.6566 17.127 73.1445 17.019 72.7256 16.8032C72.3066 16.5874 71.9893 16.3081 71.7734 15.9653C71.5576 15.6226 71.4497 15.2607 71.4497 14.8799H72.6304C72.6473 15.2015 72.7404 15.4575 72.9097 15.6479C73.0789 15.8341 73.2863 15.9674 73.5317 16.0479C73.7772 16.124 74.0205 16.1621 74.2617 16.1621C74.5833 16.1621 74.8521 16.1198 75.0679 16.0352C75.2879 15.9505 75.4551 15.8341 75.5693 15.686C75.6836 15.5379 75.7407 15.3687 75.7407 15.1782ZM82.8564 11.2109V17H81.6821V10.1318H82.8247L82.8564 11.2109ZM85.002 10.0938L84.9956 11.1855C84.8983 11.1644 84.8052 11.1517 84.7163 11.1475C84.6317 11.139 84.5343 11.1348 84.4243 11.1348C84.1535 11.1348 83.9144 11.1771 83.707 11.2617C83.4997 11.3464 83.3241 11.4648 83.1802 11.6172C83.0363 11.7695 82.922 11.9515 82.8374 12.1631C82.757 12.3704 82.7041 12.599 82.6787 12.8486L82.3486 13.0391C82.3486 12.6243 82.3888 12.235 82.4692 11.8711C82.5539 11.5072 82.6829 11.1855 82.8564 10.9062C83.0299 10.6227 83.25 10.4027 83.5166 10.2461C83.7874 10.0853 84.109 10.0049 84.4814 10.0049C84.5661 10.0049 84.6634 10.0155 84.7734 10.0366C84.8835 10.0535 84.9596 10.0726 85.002 10.0938ZM88.8105 17.127C88.3324 17.127 87.8986 17.0465 87.5093 16.8857C87.1242 16.7207 86.792 16.4901 86.5127 16.1938C86.2376 15.8976 86.026 15.5464 85.8779 15.1401C85.7298 14.7339 85.6558 14.2896 85.6558 13.8071V13.5405C85.6558 12.9819 85.7383 12.4847 85.9033 12.0488C86.0684 11.6087 86.2926 11.2363 86.5762 10.9316C86.8597 10.627 87.1813 10.3963 87.541 10.2397C87.9007 10.0832 88.2731 10.0049 88.6582 10.0049C89.1491 10.0049 89.5723 10.0895 89.9277 10.2588C90.2874 10.4281 90.5815 10.665 90.8101 10.9697C91.0386 11.2702 91.2078 11.6257 91.3179 12.0361C91.4279 12.4424 91.4829 12.8867 91.4829 13.3691V13.896H86.354V12.9375H90.3086V12.8486C90.2917 12.5439 90.2282 12.2477 90.1182 11.96C90.0124 11.6722 89.8431 11.4352 89.6104 11.249C89.3776 11.0628 89.0602 10.9697 88.6582 10.9697C88.3916 10.9697 88.1462 11.0269 87.9219 11.1411C87.6976 11.2511 87.505 11.4162 87.3442 11.6362C87.1834 11.8563 87.0586 12.125 86.9697 12.4424C86.8809 12.7598 86.8364 13.1258 86.8364 13.5405V13.8071C86.8364 14.133 86.8809 14.4398 86.9697 14.7275C87.0628 15.0111 87.1961 15.2607 87.3696 15.4766C87.5474 15.6924 87.7611 15.8617 88.0107 15.9844C88.2646 16.1071 88.5524 16.1685 88.874 16.1685C89.2887 16.1685 89.64 16.0838 89.9277 15.9146C90.2155 15.7453 90.4673 15.5189 90.6831 15.2354L91.394 15.8003C91.2459 16.0246 91.0576 16.2383 90.8291 16.4414C90.6006 16.6445 90.3192 16.8096 89.9849 16.9365C89.6548 17.0635 89.2633 17.127 88.8105 17.127ZM94.0283 11.4521V19.6406H92.8477V10.1318H93.9268L94.0283 11.4521ZM98.6558 13.5088V13.6421C98.6558 14.1414 98.5965 14.6048 98.478 15.0322C98.3595 15.4554 98.186 15.8236 97.9575 16.1367C97.7332 16.4499 97.4561 16.6932 97.126 16.8667C96.7959 17.0402 96.4172 17.127 95.9897 17.127C95.5539 17.127 95.1688 17.055 94.8345 16.9111C94.5002 16.7673 94.2166 16.5578 93.9839 16.2827C93.7511 16.0076 93.5649 15.6776 93.4253 15.2925C93.2899 14.9074 93.1968 14.4736 93.146 13.9912V13.2803C93.1968 12.7725 93.292 12.3175 93.4316 11.9155C93.5713 11.5135 93.7554 11.1707 93.9839 10.8872C94.2166 10.5994 94.498 10.3815 94.8281 10.2334C95.1582 10.0811 95.5391 10.0049 95.9707 10.0049C96.4023 10.0049 96.7853 10.0895 97.1196 10.2588C97.4539 10.4238 97.7354 10.6608 97.9639 10.9697C98.1924 11.2786 98.3638 11.6489 98.478 12.0806C98.5965 12.508 98.6558 12.984 98.6558 13.5088ZM97.4751 13.6421V13.5088C97.4751 13.166 97.4391 12.8444 97.3672 12.5439C97.2952 12.2393 97.1831 11.9727 97.0308 11.7441C96.8826 11.5114 96.6922 11.3294 96.4595 11.1982C96.2267 11.0628 95.9495 10.9951 95.6279 10.9951C95.3317 10.9951 95.0736 11.0459 94.8535 11.1475C94.6377 11.249 94.4536 11.3866 94.3013 11.5601C94.1489 11.7293 94.0241 11.924 93.9268 12.144C93.8337 12.3599 93.7638 12.5841 93.7173 12.8169V14.4609C93.8019 14.7572 93.9204 15.0365 94.0728 15.2988C94.2251 15.557 94.4282 15.7664 94.6821 15.9272C94.936 16.0838 95.2555 16.1621 95.6406 16.1621C95.958 16.1621 96.231 16.0965 96.4595 15.9653C96.6922 15.8299 96.8826 15.6458 97.0308 15.4131C97.1831 15.1803 97.2952 14.9137 97.3672 14.6133C97.4391 14.3086 97.4751 13.9849 97.4751 13.6421ZM101.43 7.25V17H100.249V7.25H101.43ZM107.365 15.8257V12.29C107.365 12.0192 107.31 11.7843 107.2 11.5854C107.094 11.3823 106.933 11.2257 106.717 11.1157C106.501 11.0057 106.235 10.9507 105.917 10.9507C105.621 10.9507 105.361 11.0015 105.137 11.103C104.917 11.2046 104.743 11.3379 104.616 11.5029C104.493 11.668 104.432 11.8457 104.432 12.0361H103.258C103.258 11.7907 103.321 11.5474 103.448 11.3062C103.575 11.0649 103.757 10.847 103.994 10.6523C104.235 10.4535 104.523 10.2969 104.857 10.1826C105.196 10.0641 105.573 10.0049 105.987 10.0049C106.487 10.0049 106.927 10.0895 107.308 10.2588C107.693 10.4281 107.993 10.6841 108.209 11.0269C108.429 11.3654 108.539 11.7907 108.539 12.3027V15.502C108.539 15.7305 108.558 15.9738 108.596 16.2319C108.639 16.4901 108.7 16.7122 108.78 16.8984V17H107.555C107.496 16.8646 107.449 16.6847 107.416 16.4604C107.382 16.2319 107.365 16.0203 107.365 15.8257ZM107.568 12.8359L107.581 13.6611H106.394C106.059 13.6611 105.761 13.6886 105.499 13.7437C105.236 13.7944 105.016 13.8727 104.838 13.9785C104.661 14.0843 104.525 14.2176 104.432 14.3784C104.339 14.535 104.292 14.7191 104.292 14.9307C104.292 15.1465 104.341 15.3433 104.438 15.521C104.536 15.6987 104.682 15.8405 104.876 15.9463C105.075 16.0479 105.319 16.0986 105.606 16.0986C105.966 16.0986 106.284 16.0225 106.559 15.8701C106.834 15.7178 107.052 15.5316 107.212 15.3115C107.377 15.0915 107.466 14.8778 107.479 14.6704L107.98 15.2354C107.951 15.4131 107.87 15.6099 107.739 15.8257C107.608 16.0415 107.432 16.2489 107.212 16.4478C106.997 16.6424 106.738 16.8053 106.438 16.9365C106.142 17.0635 105.807 17.127 105.435 17.127C104.97 17.127 104.561 17.036 104.21 16.854C103.863 16.672 103.592 16.4287 103.397 16.124C103.207 15.8151 103.112 15.4702 103.112 15.0894C103.112 14.7212 103.184 14.3975 103.328 14.1182C103.472 13.8346 103.679 13.5998 103.95 13.4136C104.221 13.2231 104.546 13.0793 104.927 12.9819C105.308 12.8846 105.733 12.8359 106.203 12.8359H107.568ZM113.135 16.1621C113.414 16.1621 113.672 16.105 113.909 15.9907C114.146 15.8765 114.341 15.7199 114.493 15.521C114.646 15.3179 114.732 15.0872 114.753 14.8291H115.871C115.849 15.2354 115.712 15.6141 115.458 15.9653C115.208 16.3123 114.88 16.5938 114.474 16.8096C114.068 17.0212 113.621 17.127 113.135 17.127C112.618 17.127 112.168 17.036 111.783 16.854C111.402 16.672 111.084 16.4224 110.831 16.105C110.581 15.7876 110.393 15.4237 110.266 15.0132C110.143 14.5985 110.082 14.1605 110.082 13.6992V13.4326C110.082 12.9714 110.143 12.5355 110.266 12.125C110.393 11.7103 110.581 11.3442 110.831 11.0269C111.084 10.7095 111.402 10.4598 111.783 10.2778C112.168 10.0959 112.618 10.0049 113.135 10.0049C113.672 10.0049 114.142 10.1149 114.544 10.335C114.946 10.5508 115.261 10.847 115.49 11.2236C115.722 11.596 115.849 12.0192 115.871 12.4932H114.753C114.732 12.2096 114.652 11.9536 114.512 11.7251C114.377 11.4966 114.191 11.3146 113.954 11.1792C113.721 11.0396 113.448 10.9697 113.135 10.9697C112.775 10.9697 112.472 11.0417 112.227 11.1855C111.986 11.3252 111.793 11.5156 111.649 11.7568C111.51 11.9938 111.408 12.2583 111.345 12.5503C111.285 12.8381 111.256 13.1322 111.256 13.4326V13.6992C111.256 13.9997 111.285 14.2959 111.345 14.5879C111.404 14.8799 111.503 15.1444 111.643 15.3813C111.787 15.6183 111.979 15.8088 112.221 15.9526C112.466 16.0923 112.771 16.1621 113.135 16.1621ZM120.041 17.127C119.563 17.127 119.129 17.0465 118.74 16.8857C118.355 16.7207 118.022 16.4901 117.743 16.1938C117.468 15.8976 117.257 15.5464 117.108 15.1401C116.96 14.7339 116.886 14.2896 116.886 13.8071V13.5405C116.886 12.9819 116.969 12.4847 117.134 12.0488C117.299 11.6087 117.523 11.2363 117.807 10.9316C118.09 10.627 118.412 10.3963 118.771 10.2397C119.131 10.0832 119.504 10.0049 119.889 10.0049C120.38 10.0049 120.803 10.0895 121.158 10.2588C121.518 10.4281 121.812 10.665 122.041 10.9697C122.269 11.2702 122.438 11.6257 122.548 12.0361C122.658 12.4424 122.713 12.8867 122.713 13.3691V13.896H117.584V12.9375H121.539V12.8486C121.522 12.5439 121.459 12.2477 121.349 11.96C121.243 11.6722 121.074 11.4352 120.841 11.249C120.608 11.0628 120.291 10.9697 119.889 10.9697C119.622 10.9697 119.377 11.0269 119.152 11.1411C118.928 11.2511 118.736 11.4162 118.575 11.6362C118.414 11.8563 118.289 12.125 118.2 12.4424C118.111 12.7598 118.067 13.1258 118.067 13.5405V13.8071C118.067 14.133 118.111 14.4398 118.2 14.7275C118.293 15.0111 118.427 15.2607 118.6 15.4766C118.778 15.6924 118.992 15.8617 119.241 15.9844C119.495 16.1071 119.783 16.1685 120.104 16.1685C120.519 16.1685 120.87 16.0838 121.158 15.9146C121.446 15.7453 121.698 15.5189 121.914 15.2354L122.625 15.8003C122.476 16.0246 122.288 16.2383 122.06 16.4414C121.831 16.6445 121.55 16.8096 121.215 16.9365C120.885 17.0635 120.494 17.127 120.041 17.127ZM125.252 11.4966V17H124.072V10.1318H125.189L125.252 11.4966ZM125.011 13.3057L124.465 13.2866C124.47 12.8169 124.531 12.3831 124.649 11.9854C124.768 11.5833 124.944 11.2342 125.176 10.938C125.409 10.6418 125.699 10.4132 126.046 10.2524C126.393 10.0874 126.795 10.0049 127.252 10.0049C127.574 10.0049 127.87 10.0514 128.141 10.1445C128.411 10.2334 128.646 10.3752 128.845 10.5698C129.044 10.7645 129.199 11.0142 129.309 11.3188C129.419 11.6235 129.474 11.9917 129.474 12.4233V17H128.299V12.4805C128.299 12.1208 128.238 11.833 128.115 11.6172C127.997 11.4014 127.827 11.2448 127.607 11.1475C127.387 11.0459 127.129 10.9951 126.833 10.9951C126.486 10.9951 126.196 11.0565 125.963 11.1792C125.731 11.3019 125.544 11.4712 125.405 11.687C125.265 11.9028 125.164 12.1504 125.1 12.4297C125.041 12.7048 125.011 12.9967 125.011 13.3057ZM129.461 12.6582L128.674 12.8994C128.678 12.5228 128.739 12.161 128.858 11.814C128.981 11.467 129.156 11.158 129.385 10.8872C129.618 10.6164 129.903 10.4027 130.242 10.2461C130.58 10.0853 130.967 10.0049 131.403 10.0049C131.771 10.0049 132.097 10.0535 132.381 10.1509C132.669 10.2482 132.91 10.3984 133.104 10.6016C133.303 10.8005 133.454 11.0565 133.555 11.3696C133.657 11.6828 133.708 12.0552 133.708 12.4868V17H132.527V12.4741C132.527 12.089 132.465 11.7907 132.343 11.5791C132.224 11.3633 132.055 11.2131 131.835 11.1284C131.619 11.0396 131.361 10.9951 131.061 10.9951C130.802 10.9951 130.574 11.0396 130.375 11.1284C130.176 11.2173 130.009 11.34 129.874 11.4966C129.738 11.6489 129.634 11.8245 129.562 12.0234C129.495 12.2223 129.461 12.4339 129.461 12.6582ZM138.335 17.127C137.857 17.127 137.423 17.0465 137.034 16.8857C136.649 16.7207 136.316 16.4901 136.037 16.1938C135.762 15.8976 135.55 15.5464 135.402 15.1401C135.254 14.7339 135.18 14.2896 135.18 13.8071V13.5405C135.18 12.9819 135.263 12.4847 135.428 12.0488C135.593 11.6087 135.817 11.2363 136.101 10.9316C136.384 10.627 136.706 10.3963 137.065 10.2397C137.425 10.0832 137.798 10.0049 138.183 10.0049C138.674 10.0049 139.097 10.0895 139.452 10.2588C139.812 10.4281 140.106 10.665 140.334 10.9697C140.563 11.2702 140.732 11.6257 140.842 12.0361C140.952 12.4424 141.007 12.8867 141.007 13.3691V13.896H135.878V12.9375H139.833V12.8486C139.816 12.5439 139.753 12.2477 139.643 11.96C139.537 11.6722 139.368 11.4352 139.135 11.249C138.902 11.0628 138.585 10.9697 138.183 10.9697C137.916 10.9697 137.671 11.0269 137.446 11.1411C137.222 11.2511 137.029 11.4162 136.869 11.6362C136.708 11.8563 136.583 12.125 136.494 12.4424C136.405 12.7598 136.361 13.1258 136.361 13.5405V13.8071C136.361 14.133 136.405 14.4398 136.494 14.7275C136.587 15.0111 136.721 15.2607 136.894 15.4766C137.072 15.6924 137.285 15.8617 137.535 15.9844C137.789 16.1071 138.077 16.1685 138.398 16.1685C138.813 16.1685 139.164 16.0838 139.452 15.9146C139.74 15.7453 139.992 15.5189 140.208 15.2354L140.918 15.8003C140.77 16.0246 140.582 16.2383 140.354 16.4414C140.125 16.6445 139.844 16.8096 139.509 16.9365C139.179 17.0635 138.788 17.127 138.335 17.127ZM143.553 11.5981V17H142.378V10.1318H143.489L143.553 11.5981ZM143.273 13.3057L142.785 13.2866C142.789 12.8169 142.859 12.3831 142.994 11.9854C143.13 11.5833 143.32 11.2342 143.565 10.938C143.811 10.6418 144.103 10.4132 144.441 10.2524C144.784 10.0874 145.163 10.0049 145.578 10.0049C145.916 10.0049 146.221 10.0514 146.492 10.1445C146.763 10.2334 146.993 10.3773 147.184 10.5762C147.378 10.7751 147.526 11.0332 147.628 11.3506C147.729 11.6637 147.78 12.0467 147.78 12.4995V17H146.6V12.4868C146.6 12.1271 146.547 11.8394 146.441 11.6235C146.335 11.4035 146.181 11.2448 145.978 11.1475C145.774 11.0459 145.525 10.9951 145.229 10.9951C144.937 10.9951 144.67 11.0565 144.429 11.1792C144.192 11.3019 143.986 11.4712 143.813 11.687C143.644 11.9028 143.51 12.1504 143.413 12.4297C143.32 12.7048 143.273 12.9967 143.273 13.3057ZM152.439 10.1318V11.0332H148.726V10.1318H152.439ZM149.983 8.4624H151.157V15.2988C151.157 15.5316 151.193 15.7072 151.265 15.8257C151.337 15.9442 151.43 16.0225 151.544 16.0605C151.659 16.0986 151.781 16.1177 151.913 16.1177C152.01 16.1177 152.111 16.1092 152.217 16.0923C152.327 16.0711 152.41 16.0542 152.465 16.0415L152.471 17C152.378 17.0296 152.255 17.0571 152.103 17.0825C151.955 17.1121 151.775 17.127 151.563 17.127C151.276 17.127 151.011 17.0698 150.77 16.9556C150.529 16.8413 150.336 16.6509 150.192 16.3843C150.053 16.1134 149.983 15.7495 149.983 15.2925V8.4624ZM158.317 10.1318V17H157.137V10.1318H158.317ZM157.048 8.31006C157.048 8.11963 157.105 7.95882 157.219 7.82764C157.338 7.69645 157.511 7.63086 157.74 7.63086C157.964 7.63086 158.135 7.69645 158.254 7.82764C158.377 7.95882 158.438 8.11963 158.438 8.31006C158.438 8.49202 158.377 8.6486 158.254 8.77979C158.135 8.90674 157.964 8.97021 157.74 8.97021C157.511 8.97021 157.338 8.90674 157.219 8.77979C157.105 8.6486 157.048 8.49202 157.048 8.31006ZM161.377 11.5981V17H160.203V10.1318H161.313L161.377 11.5981ZM161.098 13.3057L160.609 13.2866C160.613 12.8169 160.683 12.3831 160.818 11.9854C160.954 11.5833 161.144 11.2342 161.39 10.938C161.635 10.6418 161.927 10.4132 162.266 10.2524C162.608 10.0874 162.987 10.0049 163.402 10.0049C163.74 10.0049 164.045 10.0514 164.316 10.1445C164.587 10.2334 164.817 10.3773 165.008 10.5762C165.202 10.7751 165.351 11.0332 165.452 11.3506C165.554 11.6637 165.604 12.0467 165.604 12.4995V17H164.424V12.4868C164.424 12.1271 164.371 11.8394 164.265 11.6235C164.159 11.4035 164.005 11.2448 163.802 11.1475C163.599 11.0459 163.349 10.9951 163.053 10.9951C162.761 10.9951 162.494 11.0565 162.253 11.1792C162.016 11.3019 161.811 11.4712 161.637 11.687C161.468 11.9028 161.335 12.1504 161.237 12.4297C161.144 12.7048 161.098 12.9967 161.098 13.3057ZM174.663 15.8257V12.29C174.663 12.0192 174.608 11.7843 174.498 11.5854C174.392 11.3823 174.231 11.2257 174.015 11.1157C173.799 11.0057 173.533 10.9507 173.215 10.9507C172.919 10.9507 172.659 11.0015 172.435 11.103C172.215 11.2046 172.041 11.3379 171.914 11.5029C171.791 11.668 171.73 11.8457 171.73 12.0361H170.556C170.556 11.7907 170.619 11.5474 170.746 11.3062C170.873 11.0649 171.055 10.847 171.292 10.6523C171.533 10.4535 171.821 10.2969 172.155 10.1826C172.494 10.0641 172.87 10.0049 173.285 10.0049C173.785 10.0049 174.225 10.0895 174.605 10.2588C174.991 10.4281 175.291 10.6841 175.507 11.0269C175.727 11.3654 175.837 11.7907 175.837 12.3027V15.502C175.837 15.7305 175.856 15.9738 175.894 16.2319C175.936 16.4901 175.998 16.7122 176.078 16.8984V17H174.853C174.794 16.8646 174.747 16.6847 174.713 16.4604C174.68 16.2319 174.663 16.0203 174.663 15.8257ZM174.866 12.8359L174.878 13.6611H173.691C173.357 13.6611 173.059 13.6886 172.796 13.7437C172.534 13.7944 172.314 13.8727 172.136 13.9785C171.958 14.0843 171.823 14.2176 171.73 14.3784C171.637 14.535 171.59 14.7191 171.59 14.9307C171.59 15.1465 171.639 15.3433 171.736 15.521C171.834 15.6987 171.98 15.8405 172.174 15.9463C172.373 16.0479 172.617 16.0986 172.904 16.0986C173.264 16.0986 173.581 16.0225 173.856 15.8701C174.132 15.7178 174.349 15.5316 174.51 15.3115C174.675 15.0915 174.764 14.8778 174.777 14.6704L175.278 15.2354C175.249 15.4131 175.168 15.6099 175.037 15.8257C174.906 16.0415 174.73 16.2489 174.51 16.4478C174.294 16.6424 174.036 16.8053 173.736 16.9365C173.44 17.0635 173.105 17.127 172.733 17.127C172.267 17.127 171.859 17.036 171.508 16.854C171.161 16.672 170.89 16.4287 170.695 16.124C170.505 15.8151 170.41 15.4702 170.41 15.0894C170.41 14.7212 170.482 14.3975 170.625 14.1182C170.769 13.8346 170.977 13.5998 171.248 13.4136C171.518 13.2231 171.844 13.0793 172.225 12.9819C172.606 12.8846 173.031 12.8359 173.501 12.8359H174.866ZM178.858 11.5981V17H177.684V10.1318H178.795L178.858 11.5981ZM178.579 13.3057L178.09 13.2866C178.095 12.8169 178.164 12.3831 178.3 11.9854C178.435 11.5833 178.626 11.2342 178.871 10.938C179.117 10.6418 179.409 10.4132 179.747 10.2524C180.09 10.0874 180.469 10.0049 180.883 10.0049C181.222 10.0049 181.527 10.0514 181.797 10.1445C182.068 10.2334 182.299 10.3773 182.489 10.5762C182.684 10.7751 182.832 11.0332 182.934 11.3506C183.035 11.6637 183.086 12.0467 183.086 12.4995V17H181.905V12.4868C181.905 12.1271 181.852 11.8394 181.747 11.6235C181.641 11.4035 181.486 11.2448 181.283 11.1475C181.08 11.0459 180.83 10.9951 180.534 10.9951C180.242 10.9951 179.976 11.0565 179.734 11.1792C179.497 11.3019 179.292 11.4712 179.119 11.687C178.949 11.9028 178.816 12.1504 178.719 12.4297C178.626 12.7048 178.579 12.9967 178.579 13.3057ZM184.559 13.6421V13.4961C184.559 13.001 184.631 12.5418 184.774 12.1187C184.918 11.6912 185.126 11.321 185.396 11.0078C185.667 10.6904 185.995 10.445 186.38 10.2715C186.765 10.0938 187.197 10.0049 187.675 10.0049C188.158 10.0049 188.591 10.0938 188.977 10.2715C189.366 10.445 189.696 10.6904 189.967 11.0078C190.242 11.321 190.451 11.6912 190.595 12.1187C190.739 12.5418 190.811 13.001 190.811 13.4961V13.6421C190.811 14.1372 190.739 14.5964 190.595 15.0195C190.451 15.4427 190.242 15.813 189.967 16.1304C189.696 16.4435 189.368 16.689 188.983 16.8667C188.602 17.0402 188.17 17.127 187.688 17.127C187.206 17.127 186.772 17.0402 186.387 16.8667C186.002 16.689 185.672 16.4435 185.396 16.1304C185.126 15.813 184.918 15.4427 184.774 15.0195C184.631 14.5964 184.559 14.1372 184.559 13.6421ZM185.733 13.4961V13.6421C185.733 13.9849 185.773 14.3086 185.854 14.6133C185.934 14.9137 186.055 15.1803 186.215 15.4131C186.38 15.6458 186.586 15.8299 186.831 15.9653C187.076 16.0965 187.362 16.1621 187.688 16.1621C188.01 16.1621 188.291 16.0965 188.532 15.9653C188.778 15.8299 188.981 15.6458 189.142 15.4131C189.302 15.1803 189.423 14.9137 189.503 14.6133C189.588 14.3086 189.63 13.9849 189.63 13.6421V13.4961C189.63 13.1576 189.588 12.8381 189.503 12.5376C189.423 12.2329 189.3 11.9642 189.135 11.7314C188.974 11.4945 188.771 11.3083 188.526 11.1729C188.285 11.0374 188.001 10.9697 187.675 10.9697C187.354 10.9697 187.07 11.0374 186.825 11.1729C186.583 11.3083 186.38 11.4945 186.215 11.7314C186.055 11.9642 185.934 12.2329 185.854 12.5376C185.773 12.8381 185.733 13.1576 185.733 13.4961ZM195.159 10.1318V11.0332H191.446V10.1318H195.159ZM192.703 8.4624H193.877V15.2988C193.877 15.5316 193.913 15.7072 193.985 15.8257C194.057 15.9442 194.15 16.0225 194.264 16.0605C194.378 16.0986 194.501 16.1177 194.632 16.1177C194.73 16.1177 194.831 16.1092 194.937 16.0923C195.047 16.0711 195.13 16.0542 195.185 16.0415L195.191 17C195.098 17.0296 194.975 17.0571 194.823 17.0825C194.675 17.1121 194.495 17.127 194.283 17.127C193.995 17.127 193.731 17.0698 193.49 16.9556C193.249 16.8413 193.056 16.6509 192.912 16.3843C192.772 16.1134 192.703 15.7495 192.703 15.2925V8.4624ZM197.711 7.25V17H196.537V7.25H197.711ZM197.432 13.3057L196.943 13.2866C196.947 12.8169 197.017 12.3831 197.152 11.9854C197.288 11.5833 197.478 11.2342 197.724 10.938C197.969 10.6418 198.261 10.4132 198.6 10.2524C198.942 10.0874 199.321 10.0049 199.736 10.0049C200.074 10.0049 200.379 10.0514 200.65 10.1445C200.921 10.2334 201.151 10.3773 201.342 10.5762C201.536 10.7751 201.685 11.0332 201.786 11.3506C201.888 11.6637 201.938 12.0467 201.938 12.4995V17H200.758V12.4868C200.758 12.1271 200.705 11.8394 200.599 11.6235C200.493 11.4035 200.339 11.2448 200.136 11.1475C199.933 11.0459 199.683 10.9951 199.387 10.9951C199.095 10.9951 198.828 11.0565 198.587 11.1792C198.35 11.3019 198.145 11.4712 197.971 11.687C197.802 11.9028 197.669 12.1504 197.571 12.4297C197.478 12.7048 197.432 12.9967 197.432 13.3057ZM206.547 17.127C206.069 17.127 205.635 17.0465 205.246 16.8857C204.861 16.7207 204.528 16.4901 204.249 16.1938C203.974 15.8976 203.762 15.5464 203.614 15.1401C203.466 14.7339 203.392 14.2896 203.392 13.8071V13.5405C203.392 12.9819 203.475 12.4847 203.64 12.0488C203.805 11.6087 204.029 11.2363 204.312 10.9316C204.596 10.627 204.918 10.3963 205.277 10.2397C205.637 10.0832 206.009 10.0049 206.395 10.0049C206.885 10.0049 207.309 10.0895 207.664 10.2588C208.024 10.4281 208.318 10.665 208.546 10.9697C208.775 11.2702 208.944 11.6257 209.054 12.0361C209.164 12.4424 209.219 12.8867 209.219 13.3691V13.896H204.09V12.9375H208.045V12.8486C208.028 12.5439 207.965 12.2477 207.854 11.96C207.749 11.6722 207.579 11.4352 207.347 11.249C207.114 11.0628 206.797 10.9697 206.395 10.9697C206.128 10.9697 205.882 11.0269 205.658 11.1411C205.434 11.2511 205.241 11.4162 205.081 11.6362C204.92 11.8563 204.795 12.125 204.706 12.4424C204.617 12.7598 204.573 13.1258 204.573 13.5405V13.8071C204.573 14.133 204.617 14.4398 204.706 14.7275C204.799 15.0111 204.932 15.2607 205.106 15.4766C205.284 15.6924 205.497 15.8617 205.747 15.9844C206.001 16.1071 206.289 16.1685 206.61 16.1685C207.025 16.1685 207.376 16.0838 207.664 15.9146C207.952 15.7453 208.204 15.5189 208.419 15.2354L209.13 15.8003C208.982 16.0246 208.794 16.2383 208.565 16.4414C208.337 16.6445 208.056 16.8096 207.721 16.9365C207.391 17.0635 207 17.127 206.547 17.127ZM211.765 11.2109V17H210.59V10.1318H211.733L211.765 11.2109ZM213.91 10.0938L213.904 11.1855C213.806 11.1644 213.713 11.1517 213.625 11.1475C213.54 11.139 213.443 11.1348 213.333 11.1348C213.062 11.1348 212.823 11.1771 212.615 11.2617C212.408 11.3464 212.232 11.4648 212.088 11.6172C211.944 11.7695 211.83 11.9515 211.746 12.1631C211.665 12.3704 211.612 12.599 211.587 12.8486L211.257 13.0391C211.257 12.6243 211.297 12.235 211.377 11.8711C211.462 11.5072 211.591 11.1855 211.765 10.9062C211.938 10.6227 212.158 10.4027 212.425 10.2461C212.696 10.0853 213.017 10.0049 213.39 10.0049C213.474 10.0049 213.572 10.0155 213.682 10.0366C213.792 10.0535 213.868 10.0726 213.91 10.0938ZM220.969 16.1621C221.248 16.1621 221.506 16.105 221.743 15.9907C221.98 15.8765 222.175 15.7199 222.327 15.521C222.479 15.3179 222.566 15.0872 222.587 14.8291H223.705C223.683 15.2354 223.546 15.6141 223.292 15.9653C223.042 16.3123 222.714 16.5938 222.308 16.8096C221.902 17.0212 221.455 17.127 220.969 17.127C220.452 17.127 220.002 17.036 219.617 16.854C219.236 16.672 218.918 16.4224 218.665 16.105C218.415 15.7876 218.227 15.4237 218.1 15.0132C217.977 14.5985 217.916 14.1605 217.916 13.6992V13.4326C217.916 12.9714 217.977 12.5355 218.1 12.125C218.227 11.7103 218.415 11.3442 218.665 11.0269C218.918 10.7095 219.236 10.4598 219.617 10.2778C220.002 10.0959 220.452 10.0049 220.969 10.0049C221.506 10.0049 221.976 10.1149 222.378 10.335C222.78 10.5508 223.095 10.847 223.324 11.2236C223.556 11.596 223.683 12.0192 223.705 12.4932H222.587C222.566 12.2096 222.486 11.9536 222.346 11.7251C222.211 11.4966 222.025 11.3146 221.788 11.1792C221.555 11.0396 221.282 10.9697 220.969 10.9697C220.609 10.9697 220.306 11.0417 220.061 11.1855C219.82 11.3252 219.627 11.5156 219.483 11.7568C219.344 11.9938 219.242 12.2583 219.179 12.5503C219.119 12.8381 219.09 13.1322 219.09 13.4326V13.6992C219.09 13.9997 219.119 14.2959 219.179 14.5879C219.238 14.8799 219.337 15.1444 219.477 15.3813C219.621 15.6183 219.813 15.8088 220.055 15.9526C220.3 16.0923 220.605 16.1621 220.969 16.1621ZM227.875 17.127C227.397 17.127 226.963 17.0465 226.574 16.8857C226.189 16.7207 225.856 16.4901 225.577 16.1938C225.302 15.8976 225.09 15.5464 224.942 15.1401C224.794 14.7339 224.72 14.2896 224.72 13.8071V13.5405C224.72 12.9819 224.803 12.4847 224.968 12.0488C225.133 11.6087 225.357 11.2363 225.641 10.9316C225.924 10.627 226.246 10.3963 226.605 10.2397C226.965 10.0832 227.338 10.0049 227.723 10.0049C228.214 10.0049 228.637 10.0895 228.992 10.2588C229.352 10.4281 229.646 10.665 229.875 10.9697C230.103 11.2702 230.272 11.6257 230.382 12.0361C230.492 12.4424 230.547 12.8867 230.547 13.3691V13.896H225.418V12.9375H229.373V12.8486C229.356 12.5439 229.293 12.2477 229.183 11.96C229.077 11.6722 228.908 11.4352 228.675 11.249C228.442 11.0628 228.125 10.9697 227.723 10.9697C227.456 10.9697 227.211 11.0269 226.986 11.1411C226.762 11.2511 226.569 11.4162 226.409 11.6362C226.248 11.8563 226.123 12.125 226.034 12.4424C225.945 12.7598 225.901 13.1258 225.901 13.5405V13.8071C225.901 14.133 225.945 14.4398 226.034 14.7275C226.127 15.0111 226.261 15.2607 226.434 15.4766C226.612 15.6924 226.826 15.8617 227.075 15.9844C227.329 16.1071 227.617 16.1685 227.938 16.1685C228.353 16.1685 228.704 16.0838 228.992 15.9146C229.28 15.7453 229.532 15.5189 229.748 15.2354L230.458 15.8003C230.31 16.0246 230.122 16.2383 229.894 16.4414C229.665 16.6445 229.384 16.8096 229.049 16.9365C228.719 17.0635 228.328 17.127 227.875 17.127ZM233.093 11.5981V17H231.918V10.1318H233.029L233.093 11.5981ZM232.813 13.3057L232.325 13.2866C232.329 12.8169 232.399 12.3831 232.534 11.9854C232.67 11.5833 232.86 11.2342 233.105 10.938C233.351 10.6418 233.643 10.4132 233.981 10.2524C234.324 10.0874 234.703 10.0049 235.118 10.0049C235.456 10.0049 235.761 10.0514 236.032 10.1445C236.303 10.2334 236.533 10.3773 236.724 10.5762C236.918 10.7751 237.066 11.0332 237.168 11.3506C237.27 11.6637 237.32 12.0467 237.32 12.4995V17H236.14V12.4868C236.14 12.1271 236.087 11.8394 235.981 11.6235C235.875 11.4035 235.721 11.2448 235.518 11.1475C235.314 11.0459 235.065 10.9951 234.769 10.9951C234.477 10.9951 234.21 11.0565 233.969 11.1792C233.732 11.3019 233.527 11.4712 233.353 11.687C233.184 11.9028 233.05 12.1504 232.953 12.4297C232.86 12.7048 232.813 12.9967 232.813 13.3057ZM241.979 10.1318V11.0332H238.266V10.1318H241.979ZM239.523 8.4624H240.697V15.2988C240.697 15.5316 240.733 15.7072 240.805 15.8257C240.877 15.9442 240.97 16.0225 241.084 16.0605C241.199 16.0986 241.321 16.1177 241.453 16.1177C241.55 16.1177 241.652 16.1092 241.757 16.0923C241.867 16.0711 241.95 16.0542 242.005 16.0415L242.011 17C241.918 17.0296 241.795 17.0571 241.643 17.0825C241.495 17.1121 241.315 17.127 241.104 17.127C240.816 17.127 240.551 17.0698 240.31 16.9556C240.069 16.8413 239.876 16.6509 239.732 16.3843C239.593 16.1134 239.523 15.7495 239.523 15.2925V8.4624ZM246.207 17.127C245.729 17.127 245.295 17.0465 244.906 16.8857C244.521 16.7207 244.188 16.4901 243.909 16.1938C243.634 15.8976 243.423 15.5464 243.274 15.1401C243.126 14.7339 243.052 14.2896 243.052 13.8071V13.5405C243.052 12.9819 243.135 12.4847 243.3 12.0488C243.465 11.6087 243.689 11.2363 243.973 10.9316C244.256 10.627 244.578 10.3963 244.938 10.2397C245.297 10.0832 245.67 10.0049 246.055 10.0049C246.546 10.0049 246.969 10.0895 247.324 10.2588C247.684 10.4281 247.978 10.665 248.207 10.9697C248.435 11.2702 248.604 11.6257 248.714 12.0361C248.824 12.4424 248.879 12.8867 248.879 13.3691V13.896H243.75V12.9375H247.705V12.8486C247.688 12.5439 247.625 12.2477 247.515 11.96C247.409 11.6722 247.24 11.4352 247.007 11.249C246.774 11.0628 246.457 10.9697 246.055 10.9697C245.788 10.9697 245.543 11.0269 245.318 11.1411C245.094 11.2511 244.902 11.4162 244.741 11.6362C244.58 11.8563 244.455 12.125 244.366 12.4424C244.277 12.7598 244.233 13.1258 244.233 13.5405V13.8071C244.233 14.133 244.277 14.4398 244.366 14.7275C244.459 15.0111 244.593 15.2607 244.766 15.4766C244.944 15.6924 245.158 15.8617 245.407 15.9844C245.661 16.1071 245.949 16.1685 246.271 16.1685C246.685 16.1685 247.036 16.0838 247.324 15.9146C247.612 15.7453 247.864 15.5189 248.08 15.2354L248.791 15.8003C248.642 16.0246 248.454 16.2383 248.226 16.4414C247.997 16.6445 247.716 16.8096 247.381 16.9365C247.051 17.0635 246.66 17.127 246.207 17.127ZM251.425 11.2109V17H250.25V10.1318H251.393L251.425 11.2109ZM253.57 10.0938L253.564 11.1855C253.467 11.1644 253.374 11.1517 253.285 11.1475C253.2 11.139 253.103 11.1348 252.993 11.1348C252.722 11.1348 252.483 11.1771 252.275 11.2617C252.068 11.3464 251.892 11.4648 251.749 11.6172C251.605 11.7695 251.49 11.9515 251.406 12.1631C251.325 12.3704 251.272 12.599 251.247 12.8486L250.917 13.0391C250.917 12.6243 250.957 12.235 251.038 11.8711C251.122 11.5072 251.251 11.1855 251.425 10.9062C251.598 10.6227 251.818 10.4027 252.085 10.2461C252.356 10.0853 252.677 10.0049 253.05 10.0049C253.134 10.0049 253.232 10.0155 253.342 10.0366C253.452 10.0535 253.528 10.0726 253.57 10.0938Z" fill="#F69C0F"/>
<rect x="1" y="1" width="274" height="25" rx="12.5" stroke="#F69C0F"/>
</svg>
