<svg width="134" height="26" viewBox="0 0 134 26" fill="none" xmlns="http://www.w3.org/2000/svg">
<path d="M13 0L16.0565 8.79311L25.3637 8.98278L17.9455 14.6069L20.6412 23.5172L13 18.2L5.35879 23.5172L8.05451 14.6069L0.636266 8.98278L9.94352 8.79311L13 0Z" fill="#FFD362"/>
<path d="M67 0L70.0565 8.79311L79.3637 8.98278L71.9455 14.6069L74.6412 23.5172L67 18.2L59.3588 23.5172L62.0545 14.6069L54.6363 8.98278L63.9435 8.79311L67 0Z" fill="#FFD362"/>
<path d="M40 0L43.0565 8.79311L52.3637 8.98278L44.9455 14.6069L47.6412 23.5172L40 18.2L32.3588 23.5172L35.0545 14.6069L27.6363 8.98278L36.9435 8.79311L40 0Z" fill="#FFD362"/>
<path d="M94 0L97.0565 8.79311L106.364 8.98278L98.9455 14.6069L101.641 23.5172L94 18.2L86.3588 23.5172L89.0545 14.6069L81.6363 8.98278L90.9435 8.79311L94 0Z" fill="#FFD362"/>
<path d="M121 0L124.056 8.79311L133.364 8.98278L125.945 14.6069L128.641 23.5172L121 18.2L113.359 23.5172L116.055 14.6069L108.636 8.98278L117.944 8.79311L121 0Z" fill="#EAEAEA"/>
<path d="M113.359 23.5172L121 18.2L122.883 19.5102V5.41667L121 0L117.943 8.79311L108.636 8.98278L116.054 14.6069L113.359 23.5172Z" fill="#FFD362"/>
</svg>
