<svg width="39" height="39" viewBox="0 0 39 39" fill="none" xmlns="http://www.w3.org/2000/svg">
<path d="M38.992 19.4946C38.992 30.2613 30.264 38.9893 19.496 38.9893C8.72933 38.9893 0 30.2613 0 19.4946C0 8.7266 8.72933 -7.90563e-05 19.496 -7.90563e-05C30.264 -7.90563e-05 38.992 8.7266 38.992 19.4946Z" fill="#5AC134"/>
<path d="M29.1534 12.0984C28.4774 12.4037 27.7307 12.5891 27.0027 12.7118C27.348 12.6531 27.856 12.0264 28.06 11.7744C28.3707 11.3878 28.628 10.9478 28.7733 10.4718L28.7693 10.3598L28.6547 10.3704C27.8414 10.8051 27 11.1211 26.104 11.3451L25.9293 11.2997L25.7067 11.0718C25.3293 10.7504 24.9267 10.4997 24.472 10.3144C23.8747 10.0704 23.22 9.96776 22.5773 10.0091C21.9507 10.0504 21.336 10.2264 20.78 10.5171C20.2227 10.8078 19.7267 11.2131 19.3307 11.7011C18.9213 12.2064 18.62 12.8024 18.4653 13.4344C18.316 14.0451 18.328 14.6491 18.42 15.2651L18.3307 15.3678C14.8293 14.8464 11.928 13.5944 9.57067 10.9091C9.46934 10.7918 9.41333 10.7918 9.32933 10.9171C8.29866 12.4638 8.79869 14.9464 10.0867 16.1664C10.2587 16.3291 10.436 16.4918 10.6254 16.6411C10.5547 16.6544 9.69867 16.5624 8.93467 16.1664L8.77067 16.2544C8.76267 16.4224 8.776 16.5758 8.8 16.7571C8.99733 18.3238 10.0827 19.7731 11.568 20.3371C11.7453 20.4118 11.9387 20.4771 12.1293 20.5091C11.7907 20.5838 11.4427 20.6358 10.472 20.5611C10.3507 20.5371 10.3054 20.5984 10.3507 20.7144C11.0814 22.7024 12.656 23.2944 13.8347 23.6317C13.992 23.6584 14.1507 23.6584 14.3093 23.6958L14.28 23.7238C13.8893 24.3198 12.5333 24.7638 11.9013 24.9851C10.7533 25.3864 9.50269 25.5664 8.28802 25.4477C8.09469 25.4184 8.05333 25.4211 8 25.4477L8.05602 25.5771C8.30269 25.7398 8.55334 25.8838 8.80934 26.0238C9.58001 26.4318 10.3827 26.7571 11.224 26.9891C15.564 28.1878 20.4533 27.3078 23.7133 24.0691C26.272 21.5264 27.1693 18.0198 27.1693 14.5078C27.1693 14.3704 27.3307 14.2958 27.428 14.2224C28.0947 13.7224 28.6307 13.1238 29.128 12.4544C29.2387 12.3051 29.24 12.1718 29.24 12.1171V12.0984H29.1534" fill="white"/>
</svg>
