<svg width="39" height="39" viewBox="0 0 39 39" fill="none" xmlns="http://www.w3.org/2000/svg">
<path d="M38.992 19.4949C38.992 30.2626 30.2627 38.9907 19.496 38.9907C8.72933 38.9907 0 30.2626 0 19.4949C0 8.72819 8.72933 5.92902e-05 19.496 5.92902e-05C30.2627 5.92902e-05 38.992 8.72819 38.992 19.4949Z" fill="#5AC134"/>
<path d="M15.3629 26.6216L15.7455 26.8508C17.1562 27.6909 18.7589 28.1346 20.3829 28.1346C25.3882 28.1346 29.4629 24.0601 29.4629 19.0538C29.4629 14.0461 25.3882 9.97156 20.3829 9.97156C15.3749 9.97156 11.3002 14.0461 11.3002 19.0538C11.3002 20.7076 11.7602 22.3352 12.6282 23.7622L12.8642 24.1486L11.9562 27.5346L15.3629 26.6216ZM8.96289 30.5278L10.5896 24.4628C9.66822 22.8022 9.18421 20.9418 9.18421 19.0538C9.18421 12.8794 14.2082 7.85596 20.3829 7.85596C26.5562 7.85596 31.5802 12.8794 31.5802 19.0538C31.5802 25.2284 26.5562 30.2518 20.3829 30.2518C18.5282 30.2518 16.6976 29.7825 15.0589 28.8945L8.96289 30.5278" fill="white"/>
<path fill-rule="evenodd" clip-rule="evenodd" d="M24.548 20.6112C24.0867 20.3352 23.4867 20.0279 22.9427 20.2492C22.528 20.4195 22.2614 21.0722 21.992 21.4055C21.8534 21.5758 21.688 21.6019 21.4747 21.5175C19.9107 20.8935 18.7133 19.8492 17.8493 18.4118C17.704 18.1878 17.7294 18.0123 17.9067 17.805C18.1667 17.4976 18.4947 17.1487 18.564 16.7362C18.6347 16.3222 18.44 15.8388 18.2707 15.4706C18.0507 14.9992 17.808 14.3284 17.336 14.0618C16.9027 13.817 16.3307 13.955 15.9453 14.2686C15.2787 14.8118 14.9574 15.6618 14.968 16.5044C14.9707 16.744 14.9987 16.9836 15.0547 17.2138C15.1907 17.77 15.4467 18.2894 15.736 18.7831C15.9534 19.1555 16.1907 19.5159 16.4467 19.8638C17.2827 20.9992 18.324 21.9862 19.5294 22.7243C20.1307 23.093 20.7787 23.417 21.4507 23.6383C22.204 23.8872 22.8747 24.1462 23.688 23.9914C24.5387 23.83 25.3787 23.3039 25.7173 22.4836C25.816 22.2399 25.8667 21.969 25.8107 21.7128C25.6947 21.1826 24.976 20.8675 24.548 20.6112" fill="white"/>
</svg>
