<svg width="94" height="94" fill="none" xmlns="http://www.w3.org/2000/svg"><g filter="url(#filter0_d_350_720)"><circle cx="47" cy="43" r="35" fill="#F69C0F"/><path d="M59.682 30.882V27H34.318v3.882m25.364 0v3.883h-4.14m4.14-3.883H69m-34.682 0v3.883h4.659m-4.66-3.883H25m30.541 3.883l-4.141 8.8h-3.882m8.023-8.8H38.977m0 0l4.658 8.8h3.883m0 0v5.694" stroke="#fff" stroke-width="2" stroke-linecap="round" stroke-linejoin="round"/><path d="M47.073 55c-2.833 0-5.172.335-7.073.818 0 0 .146 5.182 7.073 5.182C54 61 54 55.818 54 55.818c-1.815-.483-4.094-.818-6.927-.818z" fill="#fff"/><path d="M34 59s4.693-5 13.41-5C56.13 54 60 59 60 59" stroke="#fff" stroke-width="2" stroke-linecap="round" stroke-linejoin="round"/></g><defs><filter id="filter0_d_350_720" x="0" y="0" width="94" height="94" filterUnits="userSpaceOnUse" color-interpolation-filters="sRGB"><feFlood flood-opacity="0" result="BackgroundImageFix"/><feColorMatrix in="SourceAlpha" values="0 0 0 0 0 0 0 0 0 0 0 0 0 0 0 0 0 0 127 0" result="hardAlpha"/><feOffset dy="4"/><feGaussianBlur stdDeviation="6"/><feComposite in2="hardAlpha" operator="out"/><feColorMatrix values="0 0 0 0 0.0981771 0 0 0 0 0.120833 0 0 0 0 0.111318 0 0 0 0.15 0"/><feBlend in2="BackgroundImageFix" result="effect1_dropShadow_350_720"/><feBlend in="SourceGraphic" in2="effect1_dropShadow_350_720" result="shape"/></filter></defs></svg>