<svg width="94" height="94" fill="none" xmlns="http://www.w3.org/2000/svg"><g filter="url(#filter0_d_350_712)"><circle cx="47" cy="43" r="35" fill="#F69C0F"/><path d="M32.18 25.9H29a1 1 0 00-1 1v12.9a7 7 0 007 7h6.9a7 7 0 007-7V26.9a1 1 0 00-1-1h-3.18m-6.27 20.9V55a7 7 0 007 7h9.75a7 7 0 007-7v-8.2M44.15 24v3.8M33.7 24v3.8" stroke="#fff" stroke-width="2" stroke-linecap="round" stroke-linejoin="round"/><circle cx="62.199" cy="42.05" r="4.75" fill="#fff"/></g><defs><filter id="filter0_d_350_712" x="0" y="0" width="94" height="94" filterUnits="userSpaceOnUse" color-interpolation-filters="sRGB"><feFlood flood-opacity="0" result="BackgroundImageFix"/><feColorMatrix in="SourceAlpha" values="0 0 0 0 0 0 0 0 0 0 0 0 0 0 0 0 0 0 127 0" result="hardAlpha"/><feOffset dy="4"/><feGaussianBlur stdDeviation="6"/><feComposite in2="hardAlpha" operator="out"/><feColorMatrix values="0 0 0 0 0.0981771 0 0 0 0 0.120833 0 0 0 0 0.111318 0 0 0 0.15 0"/><feBlend in2="BackgroundImageFix" result="effect1_dropShadow_350_712"/><feBlend in="SourceGraphic" in2="effect1_dropShadow_350_712" result="shape"/></filter></defs></svg>