<svg width="94" height="94" fill="none" xmlns="http://www.w3.org/2000/svg"><g filter="url(#filter0_d_350_726)"><circle cx="47" cy="43" r="35" fill="#F69C0F"/><circle cx="47" cy="44.387" r="6.132" fill="#fff"/><path d="M47 31.768c4.02 0 7.38 1.126 10.129 2.73M47 31.768c-4.02 0-7.38 1.126-10.129 2.73M47 31.767v-9.551m10.129 12.28L64.5 26.31m-7.371 8.187c3.148 1.837 5.493 4.303 7.105 6.427m-27.362-6.428L30.75 26.31m6.121 8.186c-3.326 1.942-5.755 4.584-7.371 6.784m34.734-.356C66.116 43.403 67 45.413 67 45.413m-2.766-4.488L72 37.226m-45 8.187s.8-1.82 2.5-4.132m0 0L22 37.226m45.833 8.187S61.583 58.066 47 58.066c-14.583 0-20.833-12.653-20.833-12.653S32.417 31.817 47 31.817c14.583 0 20.833 13.596 20.833 13.596z" stroke="#fff" stroke-width="2" stroke-linecap="round"/></g><defs><filter id="filter0_d_350_726" x="0" y="0" width="94" height="94" filterUnits="userSpaceOnUse" color-interpolation-filters="sRGB"><feFlood flood-opacity="0" result="BackgroundImageFix"/><feColorMatrix in="SourceAlpha" values="0 0 0 0 0 0 0 0 0 0 0 0 0 0 0 0 0 0 127 0" result="hardAlpha"/><feOffset dy="4"/><feGaussianBlur stdDeviation="6"/><feComposite in2="hardAlpha" operator="out"/><feColorMatrix values="0 0 0 0 0.0981771 0 0 0 0 0.120833 0 0 0 0 0.111318 0 0 0 0.15 0"/><feBlend in2="BackgroundImageFix" result="effect1_dropShadow_350_726"/><feBlend in="SourceGraphic" in2="effect1_dropShadow_350_726" result="shape"/></filter></defs></svg>