<svg width="100" height="27" fill="none" xmlns="http://www.w3.org/2000/svg"><path d="M17.748 16.162c.279 0 .537-.057.774-.171a1.59 1.59 0 00.584-.47c.152-.203.24-.434.26-.692h1.117a2.094 2.094 0 01-.412 1.136c-.25.347-.578.629-.984.845a2.855 2.855 0 01-1.34.317c-.516 0-.966-.091-1.352-.273a2.68 2.68 0 01-.952-.749 3.347 3.347 0 01-.565-1.092 4.608 4.608 0 01-.184-1.314v-.266c0-.462.062-.897.184-1.308.127-.415.316-.78.565-1.098a2.68 2.68 0 01.952-.75c.386-.181.836-.272 1.353-.272.537 0 1.007.11 1.409.33.402.216.717.512.945.889.233.372.36.795.381 1.27h-1.117a1.691 1.691 0 00-.241-.769 1.504 1.504 0 00-.559-.546 1.561 1.561 0 00-.818-.21c-.36 0-.663.073-.908.216-.241.14-.434.33-.578.572a2.67 2.67 0 00-.305.793 4.386 4.386 0 00-.088.883v.266c0 .3.03.597.088.889.06.292.16.556.299.793.144.237.336.428.578.572.245.14.55.21.914.21zm3.745-2.52v-.146c0-.495.072-.954.216-1.377.143-.428.35-.798.622-1.111.27-.318.598-.563.983-.736a3.054 3.054 0 011.295-.267c.483 0 .917.089 1.302.266.389.174.719.42.99.737.275.313.484.683.628 1.11.144.424.216.883.216 1.378v.146c0 .495-.072.954-.216 1.378a3.297 3.297 0 01-.628 1.11 2.88 2.88 0 01-.984.737 3.09 3.09 0 01-1.295.26c-.482 0-.916-.087-1.301-.26a2.944 2.944 0 01-.99-.737 3.355 3.355 0 01-.622-1.11 4.252 4.252 0 01-.216-1.378zm1.174-.146v.146c0 .343.04.667.12.971.081.3.202.567.362.8.165.233.37.417.616.552.246.131.531.197.857.197.322 0 .603-.066.844-.197.246-.135.449-.32.61-.552.16-.233.281-.5.361-.8.085-.304.127-.628.127-.97v-.147c0-.338-.042-.658-.127-.958a2.468 2.468 0 00-.368-.807 1.75 1.75 0 00-.609-.558 1.709 1.709 0 00-.85-.203c-.322 0-.606.067-.851.203a1.828 1.828 0 00-.61.558 2.55 2.55 0 00-.361.807c-.08.3-.121.62-.121.958zm7.725-1.898V17h-1.174v-6.868h1.11l.064 1.466zm-.28 1.708l-.488-.02c.004-.47.074-.903.21-1.3.135-.403.325-.752.57-1.048a2.545 2.545 0 012.013-.933c.338 0 .643.046.914.14.27.088.502.232.692.431.195.2.343.457.444.775.102.313.153.696.153 1.148V17h-1.181v-4.513c0-.36-.053-.648-.159-.864a.976.976 0 00-.463-.475 1.663 1.663 0 00-.75-.153c-.291 0-.558.062-.799.184a1.913 1.913 0 00-.616.508 2.573 2.573 0 00-.54 1.619zm10.29 1.872a.988.988 0 00-.114-.47c-.072-.148-.222-.28-.45-.4-.225-.122-.563-.228-1.016-.317a8.047 8.047 0 01-1.035-.285 3.145 3.145 0 01-.78-.4 1.678 1.678 0 01-.49-.553 1.54 1.54 0 01-.17-.742c0-.271.058-.527.177-.768a2.06 2.06 0 01.514-.641 2.5 2.5 0 01.806-.438 3.259 3.259 0 011.048-.16c.55 0 1.02.098 1.409.293.39.194.687.455.895.78.207.322.31.68.31 1.073h-1.173c0-.19-.058-.374-.172-.552a1.265 1.265 0 00-.489-.45c-.211-.119-.471-.178-.78-.178-.326 0-.59.05-.794.152a1.018 1.018 0 00-.438.375.942.942 0 00-.07.825.756.756 0 00.241.273c.115.08.276.156.483.228.207.072.472.144.793.216.563.127 1.027.28 1.39.457.364.178.635.396.813.654.178.258.267.571.267.94a1.83 1.83 0 01-.73 1.473 2.684 2.684 0 01-.838.418 3.744 3.744 0 01-1.086.146c-.605 0-1.117-.108-1.536-.324-.419-.216-.736-.495-.952-.838a2.004 2.004 0 01-.324-1.085h1.181c.017.321.11.577.28.768.169.186.376.32.621.4.246.076.49.114.73.114.322 0 .59-.042.806-.127.22-.085.388-.2.502-.349a.81.81 0 00.171-.508zm6.92.235v-5.281h1.18V17h-1.124l-.057-1.587zm.221-1.447l.49-.013c0 .457-.05.88-.147 1.27-.093.385-.245.72-.457 1.003a2.162 2.162 0 01-.831.666c-.343.157-.76.235-1.25.235-.335 0-.642-.049-.921-.146a1.84 1.84 0 01-.711-.45 2.052 2.052 0 01-.464-.794c-.105-.326-.158-.717-.158-1.175v-4.43h1.174v4.443c0 .31.034.565.102.768.072.2.167.358.285.476.123.115.258.195.407.242.152.046.308.07.47.07.499 0 .894-.096 1.186-.286a1.63 1.63 0 00.629-.781 2.95 2.95 0 00.197-1.098zm4.025-6.716V17h-1.18V7.25h1.18zm4.76 2.882v.901h-3.713v-.901h3.714zm-2.456-1.67h1.174V15.3c0 .233.036.408.108.527a.515.515 0 00.28.235c.114.038.237.057.368.057.097 0 .199-.009.304-.026a7.54 7.54 0 00.248-.05l.006.958c-.093.03-.215.057-.368.082-.148.03-.328.045-.54.045a1.83 1.83 0 01-.793-.171 1.277 1.277 0 01-.578-.572c-.14-.27-.209-.635-.209-1.091v-6.83zm7.884 7.364V12.29c0-.27-.055-.506-.165-.705a1.08 1.08 0 00-.483-.47c-.215-.11-.482-.164-.8-.164-.296 0-.556.05-.78.152a1.36 1.36 0 00-.52.4.877.877 0 00-.185.533H57.65c0-.245.063-.489.19-.73s.31-.459.546-.654c.242-.198.53-.355.864-.47a3.403 3.403 0 011.13-.177c.499 0 .939.084 1.32.254.385.17.685.425.901.768.22.338.33.764.33 1.276v3.199c0 .228.02.472.057.73a2.9 2.9 0 00.184.666V17h-1.225a2.193 2.193 0 01-.14-.54 4.358 4.358 0 01-.05-.634zm.203-2.99l.013.825h-1.187a4.38 4.38 0 00-.895.083c-.263.05-.483.129-.66.235a1.109 1.109 0 00-.407.4 1.06 1.06 0 00-.14.552c0 .216.05.412.147.59.097.178.243.32.438.425.199.102.442.153.73.153a1.98 1.98 0 001.606-.787c.165-.22.253-.434.266-.642l.502.565a1.69 1.69 0 01-.242.59 2.823 2.823 0 01-1.3 1.111 2.51 2.51 0 01-1.004.191c-.465 0-.874-.091-1.225-.273a2.094 2.094 0 01-.812-.73 1.932 1.932 0 01-.286-1.035c0-.368.072-.691.216-.97.144-.284.351-.52.622-.705.27-.19.596-.335.977-.432a5.173 5.173 0 011.276-.146h1.365zm5.694-2.704v.901h-3.714v-.901h3.714zm-2.457-1.67h1.175V15.3c0 .233.036.408.108.527a.516.516 0 00.279.235c.114.038.237.057.368.057.097 0 .199-.009.305-.026.11-.02.192-.038.247-.05l.007.958c-.094.03-.216.057-.369.082a2.8 2.8 0 01-.54.045 1.83 1.83 0 01-.793-.171 1.276 1.276 0 01-.577-.572c-.14-.27-.21-.635-.21-1.091v-6.83zm5.11 1.67V17h-1.18v-6.868h1.18zm-1.27-1.822a.71.71 0 01.172-.482c.118-.132.292-.197.52-.197.225 0 .396.065.515.197a.68.68 0 01.184.482.664.664 0 01-.184.47c-.119.127-.29.19-.514.19-.229 0-.403-.063-.521-.19a.692.692 0 01-.171-.47zm2.844 5.332v-.146c0-.495.072-.954.216-1.377.144-.428.351-.798.622-1.111.271-.318.6-.563.984-.736a3.055 3.055 0 011.295-.267c.483 0 .916.089 1.301.266.39.174.72.42.99.737.276.313.485.683.629 1.11.144.424.216.883.216 1.378v.146c0 .495-.072.954-.216 1.378a3.297 3.297 0 01-.628 1.11 2.88 2.88 0 01-.984.737 3.09 3.09 0 01-1.295.26c-.483 0-.916-.087-1.302-.26a2.944 2.944 0 01-.99-.737 3.355 3.355 0 01-.622-1.11 4.252 4.252 0 01-.216-1.378zm1.175-.146v.146c0 .343.04.667.12.971.08.3.201.567.362.8.165.233.37.417.616.552.245.131.53.197.857.197.321 0 .603-.066.844-.197.245-.135.449-.32.61-.552.16-.233.28-.5.361-.8.085-.304.127-.628.127-.97v-.147c0-.338-.042-.658-.127-.958a2.468 2.468 0 00-.368-.807 1.75 1.75 0 00-.61-.558 1.709 1.709 0 00-.85-.203c-.322 0-.605.067-.85.203a1.827 1.827 0 00-.61.558 2.55 2.55 0 00-.362.807c-.08.3-.12.62-.12.958zm7.725-1.898V17h-1.174v-6.868h1.11l.064 1.466zm-.28 1.708l-.488-.02c.004-.47.074-.903.21-1.3.135-.403.325-.752.57-1.048a2.545 2.545 0 012.013-.933c.338 0 .643.046.914.14.27.088.501.232.692.431.194.2.342.457.444.775.102.313.152.696.152 1.148V17h-1.18v-4.513c0-.36-.053-.648-.159-.864a.976.976 0 00-.463-.475 1.663 1.663 0 00-.75-.153c-.291 0-.558.062-.8.184a1.913 1.913 0 00-.615.508c-.17.216-.303.463-.4.743-.093.275-.14.567-.14.876z" fill="#F69C0F"/><rect x="1" y="1" width="98" height="25" rx="12.5" stroke="#F69C0F"/></svg>