<svg width="39" height="39" fill="none" xmlns="http://www.w3.org/2000/svg"><path d="M38.99 19.496C38.99 8.73 30.264 0 19.496 0 8.728 0 0 8.73 0 19.496c0 9.73 7.13 17.796 16.45 19.257v-13.62h-4.951v-5.637h4.95V15.2c0-4.885 2.911-7.584 7.364-7.584 2.132 0 4.364.381 4.364.381v4.798H25.72c-2.422 0-3.176 1.502-3.176 3.044v3.657h5.405l-.864 5.636h-4.541v13.621c9.318-1.46 16.448-9.526 16.448-19.257" fill="#5AC134"/><path d="M26.585 24.516l.864-5.636h-5.405v-3.657c0-1.541.755-3.044 3.176-3.044h2.459V7.382S25.447 7 23.315 7c-4.455 0-7.365 2.7-7.365 7.584v4.296H11v5.636h4.95v13.622a19.595 19.595 0 006.094 0V24.516h4.541" fill="#fff"/></svg>