<svg width="351" height="184" fill="none" xmlns="http://www.w3.org/2000/svg"><path d="M128.343 133.065c13.793 4.333 29.92 6.826 47.157 6.826 50.841 0 92.055-21.665 92.055-48.391 0-1.871-.208-3.717-.602-5.533 4.042.73 7.928 1.431 10.895 1.97a28.76 28.76 0 01.229 3.563c0 29.78-45.925 53.922-102.577 53.922-30.135 0-57.234-6.831-76-17.708.086.016 28.358 5.203 27.174 6.231-.138.12.481-.21 1.669-.88zM175.5 37.578c29.593 0 56.257 6.59 74.977 17.129-.634-.117-28.333-5.212-27.16-6.23.149-.128-.582.265-1.971 1.05-13.497-4.082-29.153-6.418-45.846-6.418-50.842 0-92.056 21.665-92.056 48.39 0 1.731.176 3.44.513 5.124-3.944-.712-7.794-1.408-10.855-1.963a28.892 28.892 0 01-.18-3.16c0-29.78 45.926-53.922 102.578-53.922" fill="#F8B90A"/><path d="M21.39 94.838c77.537-8.445 176.571 56.078 229.463-3.776 0 0-20.452 41.709-78.938 34.156-58.484-7.552-93.319-29.35-150.524-30.38" fill="#20B6C9"/><path d="M255.87 87.555c1.276 3.67-29.357 66.396-155.723 40.705 57.429 26.317 167.074 2.652 155.723-40.705z" fill="#F8B90A"/><path d="M329.61 87.38c-77.537 8.234-176.571-54.677-229.463 3.681 0 0 20.452-40.666 78.938-33.302 58.483 7.363 93.319 28.617 150.525 29.621z" fill="#F8B90A"/><path d="M95.13 95.446c-1.276-3.733 29.358-67.522 155.723-41.396C193.424 27.287 83.781 51.353 95.13 95.446z" fill="#20B6C9"/><path d="M178.776 139.869a59.923 59.923 0 01-3.951 5.548c.42.003.841.005 1.261.005 56.328 0 101.992-24.142 101.992-53.922 0-1.197-.082-2.385-.228-3.563-2.951-.539-6.814-1.24-10.833-1.97.391 1.816.599 3.662.599 5.533 0 26.25-39.534 47.616-88.84 48.369zm-2.69-102.29c29.425 0 55.936 6.59 74.549 17.128-.631-.117-28.171-5.212-27.005-6.23.149-.128-.578.265-1.96 1.05-13.42-4.082-28.986-6.418-45.584-6.418-4.41 0-8.745.168-12.988.487a233.5 233.5 0 00-3.641-5.3c5.412-.47 10.966-.718 16.629-.718" fill="#20B6C9"/><path d="M187.484 116.777c24.424.075 46.32-6.22 63.369-25.715 0 0-17.18 35.399-65.144 35.069a60.573 60.573 0 001.775-9.354" fill="#20B6C9"/><path d="M255.865 87.554c.936 2.693-15.197 36.966-73.246 45.316a55.04 55.04 0 01-2.744 5.537c44.293-4.836 82.983-24.122 75.99-50.853" fill="#F69C0F"/><path d="M329.609 87.662c-48.282 5.196-104.881-17.503-153.534-21.214a170.527 170.527 0 00-4.95-9.58c2.479.147 5.03.38 7.661.716 58.6 7.477 93.504 29.058 150.823 30.078zM167.365 49.88c21.52-3.33 48.902-2.935 83.488 4.357-23.951-11.382-57.005-13.719-86.535-9.313a218.592 218.592 0 013.047 4.955" fill="#20B6C9"/><path fill-rule="evenodd" clip-rule="evenodd" d="M175.501 69.142c23.358 0 42.294 10.01 42.294 22.358s-18.936 22.358-42.294 22.358c-23.36 0-42.296-10.01-42.296-22.358s18.936-22.358 42.296-22.358z" fill="#5AC134"/><path fill-rule="evenodd" clip-rule="evenodd" d="M175.5 78.787c-12.62 0-22.849 5.692-22.849 12.713 0 7.021 10.229 12.713 22.849 12.713 12.619 0 22.849-5.692 22.849-12.713 0-7.021-10.23-12.713-22.849-12.713z" fill="#163723"/><path fill-rule="evenodd" clip-rule="evenodd" d="M161.402 77.91c-7.518 0-13.612 2.944-13.612 6.576 0 3.631 6.094 6.575 13.612 6.575 7.517 0 13.612-2.944 13.612-6.575 0-3.632-6.095-6.576-13.612-6.576z" fill="#fff"/><path fill-rule="evenodd" clip-rule="evenodd" d="M196.404 74.403c10.599 3.82 17.502 10.053 17.502 17.097 0 7.044-6.903 13.278-17.502 17.097 7.623-4.37 12.342-10.416 12.342-17.097 0-6.68-4.719-12.727-12.342-17.097z" fill="#2EAB49"/></svg>