<svg width="90" height="90" fill="none" xmlns="http://www.w3.org/2000/svg"><g filter="url(#filter0_d_103_4571)"><circle cx="45" cy="41" r="33" fill="#FFD362"/><path d="M56.785 46.862v3.549c.006 1.356-1.214 2.49-2.584 2.365-11.82.01-20.987-9.242-20.977-20.983-.124-1.362 1.003-2.577 2.358-2.578h3.556a2.373 2.373 0 011.569.571c1.24 1.065 2.037 4.677 1.73 6.112-.24 1.122-1.37 1.906-2.138 2.673a18.944 18.944 0 007.111 7.097c.769-.767 1.554-1.895 2.678-2.134 1.44-.307 5.076.492 6.136 1.74.376.443.575 1.008.561 1.588zm-8.511-13.064c.965.188 1.923.614 2.619 1.31.695.695 1.121 1.653 1.31 2.618m-3.274-8.512c2.005.223 3.81 1.193 5.238 2.62 1.428 1.425 2.393 3.232 2.619 5.238" stroke="#2E3A40" stroke-width="2" stroke-linecap="round" stroke-linejoin="round"/></g><defs><filter id="filter0_d_103_4571" x="0" y="0" width="90" height="90" filterUnits="userSpaceOnUse" color-interpolation-filters="sRGB"><feFlood flood-opacity="0" result="BackgroundImageFix"/><feColorMatrix in="SourceAlpha" values="0 0 0 0 0 0 0 0 0 0 0 0 0 0 0 0 0 0 127 0" result="hardAlpha"/><feOffset dy="4"/><feGaussianBlur stdDeviation="6"/><feComposite in2="hardAlpha" operator="out"/><feColorMatrix values="0 0 0 0 0.0981771 0 0 0 0 0.120833 0 0 0 0 0.111318 0 0 0 0.15 0"/><feBlend in2="BackgroundImageFix" result="effect1_dropShadow_103_4571"/><feBlend in="SourceGraphic" in2="effect1_dropShadow_103_4571" result="shape"/></filter></defs></svg>