<svg width="39" height="39" fill="none" xmlns="http://www.w3.org/2000/svg"><path d="M38.99 19.496c0 10.767-8.727 19.494-19.495 19.494C8.728 38.99 0 30.263 0 19.496S8.728 0 19.495 0C30.263 0 38.99 8.73 38.99 19.496" fill="#5AC134"/><path d="M13.21 9.837a2.186 2.186 0 11-.004 4.372 2.186 2.186 0 01.003-4.372zm-1.89 6.029h3.776v12.128H11.32V15.866zm6.141 0h3.616v1.658h.05c.505-.955 1.734-1.96 3.57-1.96 3.818 0 4.52 2.51 4.52 5.777v6.653h-3.766v-5.898c0-1.407-.027-3.216-1.96-3.216-1.962 0-2.262 1.533-2.262 3.114v6h-3.768V15.866" fill="#fff"/></svg>