<svg width="90" height="711" fill="none" xmlns="http://www.w3.org/2000/svg"><path stroke="#E0E7EA" stroke-width="2" stroke-linecap="square" d="M44 710V9"/><g filter="url(#filter0_d_2104_752)"><circle cx="45" cy="41" r="33" fill="#5AC134"/><path d="M60.4 37.8C60.4 49 45 58.6 45 58.6S29.6 49 29.6 37.8c0-3.82 1.623-7.482 4.51-10.182C37 24.917 40.917 23.4 45 23.4c4.084 0 8.002 1.517 10.89 4.218 2.888 2.7 4.51 6.363 4.51 10.182z" stroke="#2E3A40" stroke-width="2" stroke-linecap="round" stroke-linejoin="round"/><path d="M45 43.274c2.835 0 5.133-2.3 5.133-5.137A5.135 5.135 0 0045 33a5.135 5.135 0 00-5.133 5.137A5.135 5.135 0 0045 43.274z" stroke="#2E3A40" stroke-width="2" stroke-linecap="round" stroke-linejoin="round"/></g><defs><filter id="filter0_d_2104_752" x="0" y="0" width="90" height="90" filterUnits="userSpaceOnUse" color-interpolation-filters="sRGB"><feFlood flood-opacity="0" result="BackgroundImageFix"/><feColorMatrix in="SourceAlpha" values="0 0 0 0 0 0 0 0 0 0 0 0 0 0 0 0 0 0 127 0" result="hardAlpha"/><feOffset dy="4"/><feGaussianBlur stdDeviation="6"/><feComposite in2="hardAlpha" operator="out"/><feColorMatrix values="0 0 0 0 0.0981771 0 0 0 0 0.120833 0 0 0 0 0.111318 0 0 0 0.15 0"/><feBlend in2="BackgroundImageFix" result="effect1_dropShadow_2104_752"/><feBlend in="SourceGraphic" in2="effect1_dropShadow_2104_752" result="shape"/></filter></defs></svg>