<svg width="19" height="22" fill="none" xmlns="http://www.w3.org/2000/svg"><path d="M18 9.182C18 15.546 9.5 21 9.5 21S1 15.546 1 9.182c0-2.17.896-4.251 2.49-5.786C5.084 1.862 7.246 1 9.5 1s4.416.862 6.01 2.396C17.105 4.931 18 7.012 18 9.182z" stroke="#F69C0F" stroke-width="2" stroke-linecap="round" stroke-linejoin="round"/><path d="M9.5 12.292c1.565 0 2.833-1.306 2.833-2.918s-1.268-2.92-2.833-2.92c-1.565 0-2.833 1.308-2.833 2.92 0 1.612 1.268 2.918 2.833 2.918z" stroke="#F69C0F" stroke-width="2" stroke-linecap="round" stroke-linejoin="round"/></svg>