<svg width="351" height="186" fill="none" xmlns="http://www.w3.org/2000/svg"><path d="M128.343 127.907c13.793 4.942 29.92 7.785 47.157 7.785 50.841 0 92.055-24.71 92.055-55.192a33.7 33.7 0 00-.602-6.31c4.042.831 7.928 1.632 10.895 2.246.147 1.344.229 2.698.229 4.064 0 33.965-45.925 61.5-102.577 61.5-30.135 0-57.234-7.791-76-20.196.086.018 28.358 5.934 27.174 7.107-.138.136.481-.241 1.669-1.004zM175.5 19c29.593 0 56.257 7.516 74.977 19.536-.634-.133-28.333-5.944-27.16-7.105.149-.147-.582.302-1.971 1.198-13.497-4.657-29.153-7.321-45.846-7.321-50.842 0-92.056 24.71-92.056 55.192 0 1.974.176 3.922.513 5.843-3.944-.812-7.794-1.606-10.855-2.239a37.419 37.419 0 01-.18-3.604c0-33.966 45.926-61.5 102.578-61.5" fill="#F8B90A"/><path d="M21.39 84.307c77.537-9.632 176.571 63.96 229.463-4.307 0 0-20.452 47.571-78.938 38.957-58.484-8.614-93.319-33.475-150.524-34.65" fill="#20B6C9"/><path d="M255.87 76c1.276 4.186-29.357 75.727-155.723 46.426C157.576 152.442 267.221 125.451 255.87 76z" fill="#F8B90A"/><path d="M329.61 75.801c-77.537 9.39-176.571-62.36-229.463 4.199 0 0 20.452-46.382 78.938-37.983 58.483 8.398 93.319 32.639 150.525 33.784z" fill="#F8B90A"/><path d="M95.13 85c-1.276-4.257 29.358-77.011 155.723-47.213C193.424 7.262 83.781 34.71 95.13 85z" fill="#20B6C9"/><path d="M178.776 135.666a69.087 69.087 0 01-3.951 6.329c.42.003.841.005 1.261.005 56.328 0 101.992-27.535 101.992-61.5a37.6 37.6 0 00-.228-4.064c-2.951-.614-6.814-1.415-10.833-2.247.391 2.072.599 4.177.599 6.31 0 29.94-39.534 54.309-88.84 55.167zM176.086 19c29.425 0 55.936 7.516 74.549 19.536-.631-.133-28.171-5.944-27.005-7.105.149-.147-.578.302-1.96 1.198-13.42-4.657-28.986-7.321-45.584-7.321-4.41 0-8.745.192-12.988.555a270.625 270.625 0 00-3.641-6.045A169.038 169.038 0 01176.086 19" fill="#20B6C9"/><path d="M187.484 109.329c24.424.086 46.32-7.094 63.369-29.329 0 0-17.18 40.375-65.144 39.997a77.768 77.768 0 001.775-10.668" fill="#F69C0F"/><path d="M255.865 76c.936 3.07-15.197 42.161-73.246 51.685a66.898 66.898 0 01-2.744 6.315c44.293-5.516 82.983-27.512 75.99-58m73.744.123c-48.282 5.926-104.881-19.963-153.534-24.196A205.802 205.802 0 00171.125 41c2.479.168 5.03.434 7.661.817 58.6 8.528 93.504 33.143 150.823 34.306zM167.365 33.03c21.52-3.798 48.902-3.346 83.488 4.97-23.951-12.981-57.005-15.647-86.535-10.622a257.4 257.4 0 013.047 5.652" fill="#F69C0F"/><path fill-rule="evenodd" clip-rule="evenodd" d="M175.501 55c23.358 0 42.294 11.417 42.294 25.5S198.859 106 175.501 106c-23.36 0-42.296-11.417-42.296-25.5S152.141 55 175.501 55z" fill="#5AC134"/><path fill-rule="evenodd" clip-rule="evenodd" d="M175.5 66c-12.62 0-22.849 6.492-22.849 14.5S162.88 95 175.5 95c12.619 0 22.849-6.492 22.849-14.5S188.119 66 175.5 66z" fill="#163723"/><path fill-rule="evenodd" clip-rule="evenodd" d="M161.402 65c-7.518 0-13.612 3.358-13.612 7.5 0 4.142 6.094 7.5 13.612 7.5 7.517 0 13.612-3.358 13.612-7.5 0-4.142-6.095-7.5-13.612-7.5z" fill="#fff"/><path fill-rule="evenodd" clip-rule="evenodd" d="M196.404 61c10.599 4.356 17.502 11.466 17.502 19.5s-6.903 15.144-17.502 19.5c7.623-4.985 12.342-11.88 12.342-19.5 0-7.62-4.719-14.515-12.342-19.5z" fill="#2EAB49"/></svg>