<svg width="90" height="202" fill="none" xmlns="http://www.w3.org/2000/svg"><path stroke="#fff" stroke-opacity=".7" stroke-width="2" stroke-linecap="square" d="M46 1v184"/><g filter="url(#filter0_d_2101_750)"><circle cx="45" cy="153" r="33" fill="#fff"/><path d="M56.785 158.862v3.549c.006 1.356-1.214 2.489-2.584 2.366-11.82.009-20.987-9.243-20.977-20.984-.124-1.362 1.003-2.577 2.358-2.579h3.556a2.379 2.379 0 011.569.572c1.24 1.065 2.037 4.677 1.73 6.113-.24 1.121-1.37 1.905-2.138 2.672a18.948 18.948 0 007.111 7.097c.769-.767 1.554-1.895 2.678-2.134 1.44-.307 5.076.492 6.136 1.74.376.443.575 1.008.561 1.588z" stroke="#404649" stroke-width="2" stroke-linecap="round" stroke-linejoin="round"/><path d="M48.274 145.798c.965.188 1.923.614 2.619 1.309.695.696 1.121 1.654 1.31 2.619m-3.274-8.512c2.005.223 3.81 1.193 5.238 2.619 1.428 1.426 2.393 3.233 2.619 5.238" stroke="#2E3A40" stroke-width="2" stroke-linecap="round" stroke-linejoin="round"/></g><defs><filter id="filter0_d_2101_750" x="0" y="112" width="90" height="90" filterUnits="userSpaceOnUse" color-interpolation-filters="sRGB"><feFlood flood-opacity="0" result="BackgroundImageFix"/><feColorMatrix in="SourceAlpha" values="0 0 0 0 0 0 0 0 0 0 0 0 0 0 0 0 0 0 127 0" result="hardAlpha"/><feOffset dy="4"/><feGaussianBlur stdDeviation="6"/><feComposite in2="hardAlpha" operator="out"/><feColorMatrix values="0 0 0 0 0.0981771 0 0 0 0 0.120833 0 0 0 0 0.111318 0 0 0 0.15 0"/><feBlend in2="BackgroundImageFix" result="effect1_dropShadow_2101_750"/><feBlend in="SourceGraphic" in2="effect1_dropShadow_2101_750" result="shape"/></filter></defs></svg>