<svg width="107" height="27" fill="none" xmlns="http://www.w3.org/2000/svg"><path d="M20.657 17h-1.174V9.535c0-.52.101-.96.305-1.32a1.98 1.98 0 01.87-.819c.376-.186.822-.28 1.339-.28.304 0 .603.039.895.115a9.4 9.4 0 01.901.273l-.197.99a6.192 6.192 0 00-.679-.216 3.067 3.067 0 00-.838-.108c-.503 0-.867.115-1.092.343-.22.224-.33.565-.33 1.022V17zm1.403-6.868v.901h-3.662v-.901h3.662zm2.31 0V17h-1.174v-6.868h1.175zm3.105 1.079V17H26.3v-6.868h1.143l.032 1.079zm2.145-1.117l-.006 1.091a1.7 1.7 0 00-.28-.037 2.959 2.959 0 00-.291-.013c-.271 0-.51.042-.718.127a1.486 1.486 0 00-.527.355 1.71 1.71 0 00-.342.546c-.08.207-.134.436-.16.686l-.33.19c0-.415.041-.804.121-1.168.085-.364.214-.686.388-.965.173-.283.393-.503.66-.66a1.86 1.86 0 011.257-.209.83.83 0 01.228.057zm5.085 5.084a.988.988 0 00-.115-.47c-.072-.148-.222-.28-.45-.4-.225-.122-.563-.228-1.016-.317a8.05 8.05 0 01-1.035-.285 3.143 3.143 0 01-.78-.4 1.678 1.678 0 01-.49-.553 1.54 1.54 0 01-.17-.742c0-.271.059-.527.177-.768a2.06 2.06 0 01.514-.641 2.5 2.5 0 01.807-.438 3.258 3.258 0 011.047-.16c.55 0 1.02.098 1.409.293.39.194.688.455.895.78.207.322.311.68.311 1.073h-1.174c0-.19-.057-.374-.172-.552a1.265 1.265 0 00-.488-.45c-.212-.119-.472-.178-.781-.178-.326 0-.59.05-.794.152a1.018 1.018 0 00-.438.375.942.942 0 00-.07.825.754.754 0 00.242.273 2 2 0 00.482.228c.208.072.472.144.794.216.563.127 1.026.28 1.39.457.364.178.635.396.812.654.178.258.267.571.267.94a1.83 1.83 0 01-.73 1.473 2.682 2.682 0 01-.838.418 3.744 3.744 0 01-1.085.146c-.606 0-1.118-.108-1.537-.324-.419-.216-.736-.495-.952-.838a2.005 2.005 0 01-.323-1.085h1.18c.017.321.11.577.28.768.169.186.376.32.622.4.245.076.488.114.73.114.321 0 .59-.042.806-.127.22-.085.387-.2.501-.349a.809.809 0 00.172-.508zm5.592-5.046v.901h-3.713v-.901h3.713zm-2.457-1.67h1.175V15.3c0 .233.036.408.108.527a.515.515 0 00.279.235c.114.038.237.057.368.057.097 0 .199-.009.305-.026.11-.02.192-.038.247-.05l.007.958a2.63 2.63 0 01-.369.082 2.8 2.8 0 01-.54.045 1.83 1.83 0 01-.793-.171 1.277 1.277 0 01-.577-.572c-.14-.27-.21-.635-.21-1.091v-6.83zm11.058 6.716a.988.988 0 00-.114-.47c-.072-.148-.222-.28-.451-.4-.224-.122-.563-.228-1.016-.317a8.047 8.047 0 01-1.034-.285 3.142 3.142 0 01-.781-.4 1.677 1.677 0 01-.489-.553 1.54 1.54 0 01-.171-.742c0-.271.059-.527.178-.768.122-.242.294-.455.514-.641a2.5 2.5 0 01.806-.438 3.259 3.259 0 011.047-.16c.55 0 1.02.098 1.41.293.389.194.687.455.894.78.208.322.311.68.311 1.073h-1.174c0-.19-.057-.374-.171-.552a1.265 1.265 0 00-.489-.45c-.212-.119-.472-.178-.78-.178-.327 0-.591.05-.794.152a1.018 1.018 0 00-.438.375.942.942 0 00-.07.825.756.756 0 00.241.273c.114.08.275.156.483.228.207.072.471.144.793.216.563.127 1.026.28 1.39.457.364.178.635.396.813.654.177.258.266.571.266.94a1.83 1.83 0 01-.73 1.473 2.684 2.684 0 01-.838.418 3.744 3.744 0 01-1.085.146c-.605 0-1.117-.108-1.536-.324-.42-.216-.736-.495-.952-.838a2.004 2.004 0 01-.324-1.085h1.18c.017.321.11.577.28.768.17.186.377.32.622.4.245.076.489.114.73.114.322 0 .59-.042.806-.127.22-.085.387-.2.502-.349a.81.81 0 00.17-.508zm5.567 1.949c-.478 0-.912-.08-1.301-.241a2.949 2.949 0 01-.997-.692 3.076 3.076 0 01-.635-1.054 3.864 3.864 0 01-.222-1.333v-.267c0-.558.083-1.055.248-1.491.165-.44.389-.813.672-1.117.284-.305.606-.536.965-.692.36-.157.732-.235 1.117-.235.491 0 .915.084 1.27.254.36.17.654.406.882.71.229.301.398.657.508 1.067.11.406.165.85.165 1.333v.527h-5.129v-.959h3.955v-.088a2.933 2.933 0 00-.19-.889 1.597 1.597 0 00-.508-.711c-.233-.186-.55-.28-.953-.28a1.6 1.6 0 00-1.313.667c-.161.22-.286.489-.375.806a4.089 4.089 0 00-.133 1.098v.267c0 .326.044.633.133.92.093.284.226.534.4.75.178.215.391.385.641.507.254.123.542.185.863.185.415 0 .766-.085 1.054-.254.288-.17.54-.396.755-.68l.711.565a3.284 3.284 0 01-.565.641c-.228.204-.51.369-.844.495-.33.128-.721.191-1.174.191zm8.042-1.949a.99.99 0 00-.114-.47c-.072-.148-.222-.28-.45-.4-.225-.122-.563-.228-1.016-.317a8.047 8.047 0 01-1.035-.285 3.143 3.143 0 01-.78-.4 1.677 1.677 0 01-.49-.553 1.54 1.54 0 01-.17-.742c0-.271.058-.527.177-.768a2.06 2.06 0 01.514-.641 2.5 2.5 0 01.806-.438 3.259 3.259 0 011.048-.16c.55 0 1.02.098 1.409.293.39.194.687.455.895.78.207.322.31.68.31 1.073h-1.173c0-.19-.058-.374-.172-.552a1.265 1.265 0 00-.489-.45c-.211-.119-.471-.178-.78-.178-.326 0-.59.05-.794.152a1.018 1.018 0 00-.438.375.943.943 0 00-.07.825.756.756 0 00.242.273 2 2 0 00.482.228c.207.072.472.144.793.216.563.127 1.027.28 1.39.457.365.178.635.396.813.654.178.258.267.571.267.94a1.83 1.83 0 01-.73 1.473 2.684 2.684 0 01-.838.418 3.744 3.744 0 01-1.086.146c-.605 0-1.117-.108-1.536-.324-.419-.216-.736-.495-.952-.838a2.005 2.005 0 01-.324-1.085h1.181c.017.321.11.577.28.768.169.186.376.32.621.4.246.076.49.114.73.114.322 0 .59-.042.806-.127.22-.085.388-.2.502-.349a.809.809 0 00.171-.508zm6.716 0a.988.988 0 00-.114-.47c-.072-.148-.222-.28-.45-.4-.225-.122-.564-.228-1.016-.317a8.047 8.047 0 01-1.035-.285 3.145 3.145 0 01-.78-.4 1.678 1.678 0 01-.49-.553 1.54 1.54 0 01-.171-.742c0-.271.06-.527.178-.768a2.06 2.06 0 01.514-.641 2.5 2.5 0 01.806-.438 3.259 3.259 0 011.047-.16c.55 0 1.02.098 1.41.293.389.194.687.455.895.78.207.322.31.68.31 1.073h-1.174c0-.19-.057-.374-.171-.552a1.265 1.265 0 00-.489-.45c-.211-.119-.472-.178-.78-.178-.326 0-.59.05-.794.152a1.018 1.018 0 00-.438.375.942.942 0 00-.07.825.756.756 0 00.241.273c.115.08.275.156.483.228.207.072.472.144.793.216.563.127 1.026.28 1.39.457.364.178.635.396.813.654.178.258.266.571.266.94a1.83 1.83 0 01-.73 1.473 2.684 2.684 0 01-.837.418 3.744 3.744 0 01-1.086.146c-.605 0-1.117-.108-1.536-.324-.419-.216-.736-.495-.952-.838a2.004 2.004 0 01-.324-1.085h1.18c.018.321.11.577.28.768.17.186.377.32.622.4.246.076.489.114.73.114.322 0 .59-.042.806-.127.22-.085.388-.2.502-.349a.81.81 0 00.171-.508zm3.993-5.046V17h-1.18v-6.868h1.18zm-1.27-1.822c0-.19.057-.351.172-.482.118-.132.292-.197.52-.197.224 0 .396.065.514.197a.68.68 0 01.184.482.664.664 0 01-.184.47c-.118.127-.29.19-.514.19-.228 0-.402-.063-.52-.19a.691.691 0 01-.172-.47zm2.844 5.332v-.146c0-.495.072-.954.216-1.377.144-.428.351-.798.622-1.111.27-.318.599-.563.984-.736a3.055 3.055 0 011.295-.267c.482 0 .916.089 1.301.266.39.174.72.42.99.737.275.313.485.683.629 1.11.144.424.216.883.216 1.378v.146c0 .495-.073.954-.216 1.378a3.296 3.296 0 01-.629 1.11 2.88 2.88 0 01-.984.737 3.09 3.09 0 01-1.295.26c-.482 0-.916-.087-1.3-.26a2.945 2.945 0 01-.991-.737 3.355 3.355 0 01-.622-1.11 4.252 4.252 0 01-.216-1.378zm1.174-.146v.146c0 .343.04.667.121.971.08.3.201.567.362.8.165.233.37.417.615.552.246.131.532.197.857.197.322 0 .603-.066.845-.197a1.78 1.78 0 00.609-.552c.16-.233.281-.5.362-.8.085-.304.127-.628.127-.97v-.147c0-.338-.042-.658-.127-.958a2.47 2.47 0 00-.368-.807 1.75 1.75 0 00-.61-.558 1.708 1.708 0 00-.85-.203 1.73 1.73 0 00-.85.203 1.826 1.826 0 00-.61.558 2.55 2.55 0 00-.362.807c-.08.3-.12.62-.12.958zm7.725-1.898V17h-1.174v-6.868h1.111l.063 1.466zm-.279 1.708l-.489-.02c.005-.47.074-.903.21-1.3.135-.403.326-.752.571-1.048a2.547 2.547 0 012.012-.933 2.8 2.8 0 01.914.14c.271.088.502.232.692.431.195.2.343.457.445.775.101.313.152.696.152 1.148V17h-1.18v-4.513c0-.36-.054-.648-.16-.864a.976.976 0 00-.463-.475 1.663 1.663 0 00-.749-.153 1.75 1.75 0 00-.8.184 1.914 1.914 0 00-.615.508c-.17.216-.303.463-.4.743-.093.275-.14.567-.14.876z" fill="#F69C0F"/><rect x="1" y="1" width="105" height="25" rx="12.5" stroke="#F69C0F"/></svg>