<svg width="276" height="27" fill="none" xmlns="http://www.w3.org/2000/svg"><path d="M28.184 15.826V12.29c0-.27-.055-.506-.165-.705a1.08 1.08 0 00-.482-.47c-.216-.11-.483-.164-.8-.164-.296 0-.557.05-.78.152a1.36 1.36 0 00-.521.4.877.877 0 00-.184.533h-1.175c0-.245.064-.489.19-.73.128-.241.31-.459.547-.654a2.73 2.73 0 01.863-.47 3.402 3.402 0 011.13-.177c.499 0 .94.084 1.32.254.385.17.686.425.901.768.22.338.33.764.33 1.276v3.199c0 .228.02.472.058.73.042.258.103.48.184.666V17h-1.226a2.194 2.194 0 01-.14-.54 4.345 4.345 0 01-.05-.634zm.203-2.99l.013.825h-1.187c-.334 0-.633.028-.895.083-.263.05-.483.129-.66.235a1.116 1.116 0 00-.407.4 1.06 1.06 0 00-.14.552c0 .216.05.412.147.59.097.178.243.32.438.425.199.102.442.153.73.153a1.98 1.98 0 001.606-.787c.165-.22.254-.434.266-.642l.502.565c-.03.178-.11.375-.241.59a2.823 2.823 0 01-1.302 1.111c-.296.128-.63.191-1.003.191-.465 0-.873-.091-1.225-.273a2.095 2.095 0 01-.812-.73 1.932 1.932 0 01-.286-1.035c0-.368.072-.691.216-.97.144-.284.351-.52.622-.705.27-.19.597-.335.978-.432.38-.097.806-.146 1.276-.146h1.364zM32.957 17h-1.174V9.408c0-.495.09-.912.267-1.25.182-.343.442-.601.78-.775.34-.177.741-.266 1.207-.266a3.272 3.272 0 01.812.101l-.063.959a1.944 1.944 0 00-.305-.045 4.306 4.306 0 00-.33-.012c-.25 0-.466.05-.648.152a.957.957 0 00-.406.432c-.093.19-.14.425-.14.704V17zm1.46-6.868v.901h-3.72v-.901h3.72zm4.184 0v.901h-3.714v-.901h3.714zm-2.457-1.67h1.174V15.3c0 .233.036.408.108.527a.515.515 0 00.28.235c.114.038.236.057.368.057.097 0 .199-.009.304-.026.11-.02.193-.038.248-.05l.006.958a2.75 2.75 0 01-.368.082c-.148.03-.328.045-.54.045a1.83 1.83 0 01-.793-.171 1.276 1.276 0 01-.578-.572c-.14-.27-.209-.635-.209-1.091v-6.83zm6.684 8.665c-.478 0-.912-.08-1.301-.241a2.949 2.949 0 01-.997-.692 3.076 3.076 0 01-.635-1.054 3.864 3.864 0 01-.222-1.333v-.267c0-.558.083-1.055.248-1.491.165-.44.39-.813.673-1.117.283-.305.605-.536.965-.692.36-.157.732-.235 1.117-.235.49 0 .914.084 1.27.254.359.17.653.406.882.71.228.301.397.657.507 1.067.11.406.166.85.166 1.333v.527h-5.13v-.959h3.955v-.088a2.933 2.933 0 00-.19-.889 1.597 1.597 0 00-.508-.711c-.233-.186-.55-.28-.952-.28a1.599 1.599 0 00-1.314.667c-.161.22-.286.489-.375.806a4.085 4.085 0 00-.133 1.098v.267c0 .326.044.633.133.92.093.284.227.534.4.75.178.215.392.385.641.507.254.123.542.185.864.185.414 0 .766-.085 1.053-.254.288-.17.54-.396.756-.68l.71.565a3.284 3.284 0 01-.564.641c-.229.204-.51.369-.845.495-.33.128-.721.191-1.174.191zm5.218-5.916V17h-1.174v-6.868h1.142l.032 1.079zm2.145-1.117l-.006 1.091a1.7 1.7 0 00-.28-.037 2.959 2.959 0 00-.291-.013c-.271 0-.51.042-.717.127a1.486 1.486 0 00-.527.355 1.708 1.708 0 00-.343.546c-.08.207-.133.436-.159.686l-.33.19c0-.415.04-.804.12-1.168.085-.364.214-.686.388-.965.173-.283.394-.503.66-.66a1.86 1.86 0 011.257-.209.83.83 0 01.228.057zm5.586-2.844V17h-1.18V7.25h1.18zm4.736 9.877c-.478 0-.912-.08-1.302-.241a2.949 2.949 0 01-.996-.692 3.077 3.077 0 01-.635-1.054 3.864 3.864 0 01-.222-1.333v-.267c0-.558.082-1.055.248-1.491a3.32 3.32 0 01.672-1.117c.284-.305.605-.536.965-.692.36-.157.732-.235 1.117-.235.491 0 .914.084 1.27.254.36.17.654.406.882.71.229.301.398.657.508 1.067.11.406.165.85.165 1.333v.527h-5.129v-.959h3.955v-.088a2.933 2.933 0 00-.19-.889 1.598 1.598 0 00-.508-.711c-.233-.186-.55-.28-.953-.28a1.6 1.6 0 00-1.314.667c-.16.22-.285.489-.374.806a4.085 4.085 0 00-.133 1.098v.267c0 .326.044.633.133.92.093.284.226.534.4.75.177.215.391.385.64.507.255.123.543.185.864.185.415 0 .766-.085 1.054-.254.288-.17.54-.396.755-.68l.711.565a3.282 3.282 0 01-.565.641c-.228.204-.51.369-.844.495-.33.128-.721.191-1.174.191zm5.218-5.529V17h-1.175v-6.868h1.111l.064 1.466zm-.28 1.708l-.489-.02a4.13 4.13 0 01.21-1.3c.135-.403.326-.752.571-1.048a2.545 2.545 0 012.012-.933 2.8 2.8 0 01.914.14c.271.088.502.232.692.431.195.2.343.457.445.775.101.313.152.696.152 1.148V17h-1.18v-4.513c0-.36-.054-.648-.16-.864a.976.976 0 00-.463-.475 1.663 1.663 0 00-.749-.153 1.75 1.75 0 00-.8.184 1.914 1.914 0 00-.615.508c-.17.216-.303.463-.4.743-.093.275-.14.567-.14.876zm10.29 1.872a.99.99 0 00-.115-.47c-.072-.148-.222-.28-.45-.4-.225-.122-.563-.228-1.016-.317a8.047 8.047 0 01-1.034-.285 3.143 3.143 0 01-.781-.4 1.677 1.677 0 01-.489-.553 1.54 1.54 0 01-.171-.742c0-.271.059-.527.177-.768a2.06 2.06 0 01.514-.641 2.5 2.5 0 01.807-.438 3.259 3.259 0 011.047-.16c.55 0 1.02.098 1.41.293.388.194.687.455.894.78.207.322.311.68.311 1.073h-1.174c0-.19-.057-.374-.172-.552a1.265 1.265 0 00-.488-.45c-.212-.119-.472-.178-.781-.178-.326 0-.59.05-.794.152a1.018 1.018 0 00-.438.375.943.943 0 00-.07.825.756.756 0 00.242.273 2 2 0 00.482.228c.208.072.472.144.794.216.563.127 1.026.28 1.39.457.364.178.635.396.812.654.178.258.267.571.267.94a1.83 1.83 0 01-.73 1.473 2.684 2.684 0 01-.838.418 3.744 3.744 0 01-1.085.146c-.605 0-1.118-.108-1.536-.324-.42-.216-.737-.495-.953-.838a2.005 2.005 0 01-.323-1.085h1.18c.017.321.11.577.28.768.169.186.376.32.622.4.245.076.489.114.73.114.321 0 .59-.042.806-.127.22-.085.387-.2.501-.349a.809.809 0 00.172-.508zm7.115-3.967V17h-1.174v-6.868h1.143l.031 1.079zm2.146-1.117l-.006 1.091a1.698 1.698 0 00-.28-.037 2.957 2.957 0 00-.292-.013c-.27 0-.51.042-.717.127a1.487 1.487 0 00-.527.355 1.709 1.709 0 00-.343.546c-.08.207-.133.436-.158.686l-.33.19c0-.415.04-.804.12-1.168a3.18 3.18 0 01.387-.965c.174-.283.394-.503.66-.66a1.865 1.865 0 011.257-.209.84.84 0 01.229.057zm3.809 7.033c-.479 0-.912-.08-1.302-.241a2.949 2.949 0 01-.996-.692 3.076 3.076 0 01-.635-1.054 3.864 3.864 0 01-.222-1.333v-.267c0-.558.082-1.055.247-1.491.165-.44.39-.813.673-1.117.284-.305.605-.536.965-.692.36-.157.732-.235 1.117-.235.491 0 .914.084 1.27.254.36.17.654.406.882.71.229.301.398.657.508 1.067.11.406.165.85.165 1.333v.527h-5.129v-.959h3.955v-.088a2.933 2.933 0 00-.19-.889 1.598 1.598 0 00-.509-.711c-.232-.186-.55-.28-.952-.28a1.6 1.6 0 00-1.314.667c-.16.22-.285.489-.374.806a4.089 4.089 0 00-.134 1.098v.267c0 .326.045.633.134.92.093.284.226.534.4.75.177.215.391.385.64.507.255.123.542.185.864.185.415 0 .766-.085 1.054-.254.288-.17.54-.396.755-.68l.711.565a3.284 3.284 0 01-.565.641c-.228.204-.51.369-.844.495-.33.128-.722.191-1.174.191zm5.217-5.675v8.189h-1.18v-9.51h1.079l.101 1.321zm4.628 2.057v.133c0 .5-.06.963-.178 1.39a3.417 3.417 0 01-.52 1.105 2.367 2.367 0 01-.832.73c-.33.173-.709.26-1.136.26a2.9 2.9 0 01-1.155-.216 2.277 2.277 0 01-.851-.628 3.208 3.208 0 01-.559-.99 5.734 5.734 0 01-.279-1.302v-.71c.05-.508.146-.963.286-1.366.14-.401.323-.744.552-1.028.233-.288.514-.505.844-.654a2.7 2.7 0 011.143-.228c.431 0 .814.084 1.149.254.334.165.615.402.844.71.228.31.4.68.514 1.112.119.427.178.903.178 1.428zm-1.18.133v-.133c0-.343-.037-.665-.109-.965a2.442 2.442 0 00-.336-.8 1.604 1.604 0 00-.572-.546 1.626 1.626 0 00-.831-.203c-.296 0-.554.05-.775.153-.215.101-.4.239-.552.412-.152.17-.277.364-.374.584-.093.216-.163.44-.21.673v1.644c.085.296.203.575.356.838.152.258.355.467.61.628.253.157.572.235.958.235.317 0 .59-.066.819-.197a1.66 1.66 0 00.57-.552c.153-.233.265-.5.337-.8.072-.304.108-.628.108-.97zm3.954-6.392V17h-1.181V7.25h1.181zm5.935 8.576V12.29c0-.27-.055-.506-.165-.705a1.082 1.082 0 00-.483-.47c-.216-.11-.482-.164-.8-.164-.296 0-.556.05-.78.152-.22.102-.394.235-.521.4a.875.875 0 00-.184.533h-1.174c0-.245.063-.489.19-.73s.309-.459.546-.654c.241-.198.529-.355.863-.47a3.408 3.408 0 011.13-.177c.5 0 .94.084 1.321.254.385.17.685.425.901.768.22.338.33.764.33 1.276v3.199c0 .228.019.472.057.73a2.9 2.9 0 00.184.666V17h-1.225a2.17 2.17 0 01-.139-.54 4.333 4.333 0 01-.051-.634zm.203-2.99l.013.825h-1.187a4.37 4.37 0 00-.895.083c-.263.05-.483.129-.661.235a1.12 1.12 0 00-.406.4c-.093.156-.14.34-.14.552 0 .216.049.412.146.59.098.178.244.32.438.425.199.102.443.153.73.153a1.97 1.97 0 001.606-.787c.165-.22.254-.434.267-.642l.501.565c-.029.178-.11.375-.241.59a2.837 2.837 0 01-1.301 1.11 2.506 2.506 0 01-1.003.192c-.465 0-.874-.091-1.225-.273a2.099 2.099 0 01-.813-.73 1.935 1.935 0 01-.285-1.035c0-.368.072-.691.216-.97.144-.284.351-.52.622-.705.271-.19.596-.335.977-.432a5.158 5.158 0 011.276-.146h1.365zm5.567 3.326c.279 0 .537-.057.774-.171a1.59 1.59 0 00.584-.47c.153-.203.239-.434.26-.692h1.118a2.1 2.1 0 01-.413 1.136 2.822 2.822 0 01-2.323 1.162c-.517 0-.967-.091-1.352-.273a2.67 2.67 0 01-.952-.749 3.341 3.341 0 01-.565-1.092 4.598 4.598 0 01-.184-1.314v-.266c0-.462.061-.897.184-1.308a3.33 3.33 0 01.565-1.098 2.67 2.67 0 01.952-.75c.385-.181.835-.272 1.352-.272.537 0 1.007.11 1.409.33.402.216.717.512.946.889.232.372.359.795.381 1.27h-1.118a1.685 1.685 0 00-.241-.769 1.499 1.499 0 00-.558-.546 1.563 1.563 0 00-.819-.21c-.36 0-.663.073-.908.216-.241.14-.434.33-.578.572a2.671 2.671 0 00-.304.793c-.06.288-.089.582-.089.883v.266c0 .3.029.597.089.889.059.292.158.556.298.793.144.237.336.428.578.572.245.14.55.21.914.21zm6.906.965c-.478 0-.912-.08-1.301-.241a2.948 2.948 0 01-.997-.692 3.092 3.092 0 01-.635-1.054 3.867 3.867 0 01-.222-1.333v-.267c0-.558.083-1.055.248-1.491a3.33 3.33 0 01.673-1.117c.283-.305.605-.536.964-.692a2.77 2.77 0 011.118-.235c.491 0 .914.084 1.269.254.36.17.654.406.883.71.228.301.397.657.507 1.067.11.406.165.85.165 1.333v.527h-5.129v-.959h3.955v-.088a2.93 2.93 0 00-.19-.889 1.598 1.598 0 00-.508-.711c-.233-.186-.55-.28-.952-.28a1.603 1.603 0 00-1.314.667c-.161.22-.286.489-.375.806a4.081 4.081 0 00-.133 1.098v.267c0 .326.044.633.133.92.093.284.227.534.4.75.178.215.392.385.641.507.254.123.542.185.863.185.415 0 .766-.085 1.054-.254.288-.17.54-.396.756-.68l.711.565a3.332 3.332 0 01-.565.641c-.229.204-.51.369-.845.495-.33.128-.721.191-1.174.191zm5.211-5.63V17h-1.18v-6.868h1.117l.063 1.365zm-.241 1.809l-.546-.02c.005-.47.066-.903.184-1.3a3.11 3.11 0 01.527-1.048 2.35 2.35 0 01.87-.686c.347-.165.749-.247 1.206-.247.322 0 .618.046.889.14.27.088.505.23.704.425.199.194.354.444.464.749.11.304.165.673.165 1.104V17h-1.175v-4.52c0-.36-.061-.647-.184-.863a1.05 1.05 0 00-.508-.47 1.83 1.83 0 00-.774-.152c-.347 0-.637.062-.87.184a1.468 1.468 0 00-.558.508c-.14.216-.241.463-.305.743a4.17 4.17 0 00-.089.876zm4.45-.648l-.787.241c.004-.376.065-.738.184-1.085.123-.347.298-.656.527-.927.233-.27.518-.484.857-.64a2.655 2.655 0 011.161-.242c.368 0 .694.048.978.146.288.097.529.247.723.45.199.2.35.455.451.769.102.313.153.685.153 1.117V17h-1.181v-4.526c0-.385-.062-.683-.184-.895a.962.962 0 00-.508-.45 2.031 2.031 0 00-.774-.134c-.259 0-.487.045-.686.133a1.41 1.41 0 00-.501.369 1.6 1.6 0 00-.312.526c-.067.2-.101.41-.101.635zm8.874 4.469c-.478 0-.912-.08-1.301-.241a2.948 2.948 0 01-.997-.692 3.077 3.077 0 01-.635-1.054 3.867 3.867 0 01-.222-1.333v-.267c0-.558.083-1.055.248-1.491a3.33 3.33 0 01.673-1.117c.283-.305.605-.536.964-.692a2.77 2.77 0 011.118-.235c.491 0 .914.084 1.269.254.36.17.654.406.882.71.229.301.398.657.508 1.067.11.406.165.85.165 1.333v.527h-5.129v-.959h3.955v-.088a2.93 2.93 0 00-.19-.889 1.598 1.598 0 00-.508-.711c-.233-.186-.55-.28-.952-.28a1.603 1.603 0 00-1.314.667c-.161.22-.286.489-.375.806a4.081 4.081 0 00-.133 1.098v.267c0 .326.044.633.133.92.093.284.227.534.4.75.178.215.391.385.641.507.254.123.542.185.863.185.415 0 .766-.085 1.054-.254.288-.17.54-.396.756-.68l.71.565a3.292 3.292 0 01-.564.641c-.229.204-.51.369-.845.495-.33.128-.721.191-1.174.191zm5.218-5.529V17h-1.175v-6.868h1.111l.064 1.466zm-.28 1.708l-.488-.02c.004-.47.074-.903.209-1.3.136-.403.326-.752.571-1.048.246-.296.538-.525.876-.686a2.588 2.588 0 011.137-.247c.338 0 .643.046.914.14.271.088.501.232.692.431.194.2.342.457.444.775.101.313.152.696.152 1.148V17h-1.18v-4.513c0-.36-.053-.648-.159-.864a.976.976 0 00-.463-.475 1.666 1.666 0 00-.749-.153c-.292 0-.559.062-.8.184a1.908 1.908 0 00-.616.508 2.553 2.553 0 00-.4.743c-.093.275-.14.567-.14.876zm9.166-3.174v.901h-3.713v-.901h3.713zm-2.456-1.67h1.174V15.3c0 .233.036.408.108.527a.516.516 0 00.279.235c.115.038.237.057.369.057.097 0 .198-.009.304-.026a7.67 7.67 0 00.248-.05l.006.958c-.093.03-.216.057-.368.082-.148.03-.328.045-.54.045a1.83 1.83 0 01-.793-.171 1.279 1.279 0 01-.578-.572c-.139-.27-.209-.635-.209-1.091v-6.83zm8.334 1.67V17h-1.18v-6.868h1.18zm-1.269-1.822a.71.71 0 01.171-.482c.119-.132.292-.197.521-.197.224 0 .395.065.514.197a.679.679 0 01.184.482.663.663 0 01-.184.47c-.119.127-.29.19-.514.19-.229 0-.402-.063-.521-.19a.692.692 0 01-.171-.47zm4.329 3.288V17h-1.174v-6.868h1.11l.064 1.466zm-.279 1.708l-.489-.02c.004-.47.074-.903.209-1.3a3.24 3.24 0 01.572-1.048c.245-.296.537-.525.876-.686a2.58 2.58 0 011.136-.247c.338 0 .643.046.914.14.271.088.501.232.692.431.194.2.343.457.444.775.102.313.152.696.152 1.148V17h-1.18v-4.513c0-.36-.053-.648-.159-.864a.976.976 0 00-.463-.475 1.663 1.663 0 00-.749-.153c-.292 0-.559.062-.8.184a1.92 1.92 0 00-.616.508 2.577 2.577 0 00-.539 1.619zm13.565 2.52V12.29c0-.27-.055-.506-.165-.705a1.082 1.082 0 00-.483-.47c-.216-.11-.482-.164-.8-.164-.296 0-.556.05-.78.152-.22.102-.394.235-.521.4a.875.875 0 00-.184.533h-1.174c0-.245.063-.489.19-.73s.309-.459.546-.654c.241-.198.529-.355.863-.47a3.404 3.404 0 011.13-.177c.5 0 .94.084 1.32.254.386.17.686.425.902.768.22.338.33.764.33 1.276v3.199c0 .228.019.472.057.73.042.258.104.48.184.666V17h-1.225a2.21 2.21 0 01-.14-.54 4.466 4.466 0 01-.05-.634zm.203-2.99l.012.825h-1.187a4.39 4.39 0 00-.895.083 2.05 2.05 0 00-.66.235 1.058 1.058 0 00-.546.952c0 .216.049.412.146.59.098.178.244.32.438.425.199.102.443.153.73.153.36 0 .677-.076.952-.229a1.97 1.97 0 00.654-.558c.165-.22.254-.434.267-.642l.501.565c-.029.178-.11.375-.241.59a2.853 2.853 0 01-1.301 1.11 2.506 2.506 0 01-1.003.192c-.466 0-.874-.091-1.225-.273a2.099 2.099 0 01-.813-.73 1.935 1.935 0 01-.285-1.035c0-.368.072-.691.215-.97.144-.284.352-.52.623-.705.27-.19.596-.335.977-.432a5.158 5.158 0 011.276-.146h1.365zm3.992-1.238V17h-1.174v-6.868h1.111l.063 1.466zm-.279 1.708l-.489-.02c.005-.47.074-.903.21-1.3.135-.403.326-.752.571-1.048.246-.296.538-.525.876-.686a2.587 2.587 0 011.136-.247c.339 0 .644.046.914.14.271.088.502.232.692.431.195.2.343.457.445.775.101.313.152.696.152 1.148V17h-1.181v-4.513c0-.36-.053-.648-.158-.864a.978.978 0 00-.464-.475 1.663 1.663 0 00-.749-.153 1.75 1.75 0 00-.8.184 1.905 1.905 0 00-.615.508 2.53 2.53 0 00-.4.743c-.093.275-.14.567-.14.876zm5.98.336v-.146c0-.495.072-.954.215-1.377.144-.428.352-.798.622-1.111.271-.318.599-.563.984-.736a3.056 3.056 0 011.295-.267c.483 0 .916.089 1.302.266.389.174.719.42.99.737.275.313.484.683.628 1.11.144.424.216.883.216 1.378v.146c0 .495-.072.954-.216 1.378a3.298 3.298 0 01-.628 1.11 2.882 2.882 0 01-.984.737c-.381.173-.813.26-1.295.26s-.916-.087-1.301-.26a2.958 2.958 0 01-.991-.737 3.372 3.372 0 01-.622-1.11 4.277 4.277 0 01-.215-1.378zm1.174-.146v.146c0 .343.04.667.121.971.08.3.201.567.361.8.165.233.371.417.616.552.245.131.531.197.857.197.322 0 .603-.066.844-.197.246-.135.449-.32.61-.552.16-.233.281-.5.361-.8a3.6 3.6 0 00.127-.97v-.147c0-.338-.042-.658-.127-.958a2.461 2.461 0 00-.368-.807 1.754 1.754 0 00-.609-.558 1.71 1.71 0 00-.851-.203 1.73 1.73 0 00-.85.203 1.82 1.82 0 00-.61.558 2.56 2.56 0 00-.361.807c-.081.3-.121.62-.121.958zm9.426-3.364v.901h-3.713v-.901h3.713zm-2.456-1.67h1.174V15.3c0 .233.036.408.108.527a.516.516 0 00.279.235c.114.038.237.057.368.057.098 0 .199-.009.305-.026a7.67 7.67 0 00.248-.05l.006.958c-.093.03-.216.057-.368.082-.148.03-.328.045-.54.045a1.83 1.83 0 01-.793-.171 1.279 1.279 0 01-.578-.572c-.14-.27-.209-.635-.209-1.091v-6.83zm5.008-1.212V17h-1.174V7.25h1.174zm-.279 6.056l-.489-.02c.004-.47.074-.903.209-1.3a3.24 3.24 0 01.572-1.048c.245-.296.537-.525.876-.686a2.58 2.58 0 011.136-.247c.338 0 .643.046.914.14.271.088.501.232.692.431.194.2.343.457.444.775.102.313.152.696.152 1.148V17h-1.18v-4.513c0-.36-.053-.648-.159-.864a.976.976 0 00-.463-.475 1.663 1.663 0 00-.749-.153c-.292 0-.559.062-.8.184a1.92 1.92 0 00-.616.508 2.577 2.577 0 00-.539 1.619zm9.115 3.821c-.478 0-.912-.08-1.301-.241a2.948 2.948 0 01-.997-.692 3.077 3.077 0 01-.635-1.054 3.867 3.867 0 01-.222-1.333v-.267c0-.558.083-1.055.248-1.491.165-.44.389-.813.672-1.117.284-.305.606-.536.965-.692.36-.157.732-.235 1.118-.235.49 0 .914.084 1.269.254.36.17.654.406.882.71.229.301.398.657.508 1.067.11.406.165.85.165 1.333v.527h-5.129v-.959h3.955v-.088a2.905 2.905 0 00-.191-.889 1.596 1.596 0 00-.507-.711c-.233-.186-.55-.28-.952-.28a1.6 1.6 0 00-1.314.667c-.161.22-.286.489-.375.806a4.081 4.081 0 00-.133 1.098v.267c0 .326.044.633.133.92.093.284.226.534.4.75.178.215.391.385.641.507.254.123.542.185.863.185.415 0 .766-.085 1.054-.254.288-.17.54-.396.755-.68l.711.565a3.265 3.265 0 01-.565.641 2.68 2.68 0 01-.844.495c-.33.128-.721.191-1.174.191zm5.218-5.916V17h-1.175v-6.868h1.143l.032 1.079zm2.145-1.117l-.006 1.091a1.718 1.718 0 00-.279-.037 2.963 2.963 0 00-.292-.013c-.271 0-.51.042-.718.127a1.491 1.491 0 00-.527.355 1.695 1.695 0 00-.342.546 2.584 2.584 0 00-.159.686l-.33.19c0-.415.04-.804.12-1.168.085-.364.214-.686.388-.965.173-.283.393-.503.66-.66a1.863 1.863 0 011.257-.209.83.83 0 01.228.057zm7.059 6.068c.279 0 .537-.057.774-.171a1.59 1.59 0 00.584-.47 1.31 1.31 0 00.26-.692h1.118a2.1 2.1 0 01-.413 1.136 2.822 2.822 0 01-2.323 1.162c-.517 0-.967-.091-1.352-.273a2.67 2.67 0 01-.952-.749 3.341 3.341 0 01-.565-1.092 4.598 4.598 0 01-.184-1.314v-.266c0-.462.061-.897.184-1.308a3.33 3.33 0 01.565-1.098 2.67 2.67 0 01.952-.75c.385-.181.835-.272 1.352-.272.537 0 1.007.11 1.409.33.402.216.717.512.946.889.232.372.359.795.381 1.27h-1.118a1.685 1.685 0 00-.241-.769 1.499 1.499 0 00-.558-.546 1.563 1.563 0 00-.819-.21c-.36 0-.663.073-.908.216-.241.14-.434.33-.578.572a2.671 2.671 0 00-.304.793c-.06.288-.089.582-.089.883v.266c0 .3.029.597.089.889.059.292.158.556.298.793.144.237.336.428.578.572.245.14.55.21.914.21zm6.906.965c-.478 0-.912-.08-1.301-.241a2.948 2.948 0 01-.997-.692 3.077 3.077 0 01-.635-1.054 3.867 3.867 0 01-.222-1.333v-.267c0-.558.083-1.055.248-1.491a3.33 3.33 0 01.673-1.117c.283-.305.605-.536.964-.692a2.77 2.77 0 011.118-.235c.491 0 .914.084 1.269.254.36.17.654.406.883.71.228.301.397.657.507 1.067.11.406.165.85.165 1.333v.527h-5.129v-.959h3.955v-.088a2.93 2.93 0 00-.19-.889 1.598 1.598 0 00-.508-.711c-.233-.186-.55-.28-.952-.28a1.603 1.603 0 00-1.314.667c-.161.22-.286.489-.375.806a4.081 4.081 0 00-.133 1.098v.267c0 .326.044.633.133.92.093.284.227.534.4.75.178.215.392.385.641.507.254.123.542.185.863.185.415 0 .766-.085 1.054-.254.288-.17.54-.396.756-.68l.71.565a3.292 3.292 0 01-.564.641c-.229.204-.51.369-.845.495-.33.128-.721.191-1.174.191zm5.218-5.529V17h-1.175v-6.868h1.111l.064 1.466zm-.28 1.708l-.488-.02c.004-.47.074-.903.209-1.3.136-.403.326-.752.571-1.048.246-.296.538-.525.876-.686a2.588 2.588 0 011.137-.247c.338 0 .643.046.914.14.271.088.501.232.692.431.194.2.342.457.444.775.102.313.152.696.152 1.148V17h-1.18v-4.513c0-.36-.053-.648-.159-.864a.976.976 0 00-.463-.475 1.666 1.666 0 00-.749-.153c-.292 0-.559.062-.8.184a1.92 1.92 0 00-.616.508 2.553 2.553 0 00-.4.743c-.093.275-.14.567-.14.876zm9.166-3.174v.901h-3.713v-.901h3.713zm-2.456-1.67h1.174V15.3c0 .233.036.408.108.527a.516.516 0 00.279.235c.115.038.237.057.369.057.097 0 .199-.009.304-.026a7.67 7.67 0 00.248-.05l.006.958c-.093.03-.216.057-.368.082-.148.03-.328.045-.539.045-.288 0-.553-.057-.794-.171a1.279 1.279 0 01-.578-.572c-.139-.27-.209-.635-.209-1.091v-6.83zm6.684 8.665c-.478 0-.912-.08-1.301-.241a2.948 2.948 0 01-.997-.692 3.092 3.092 0 01-.635-1.054 3.867 3.867 0 01-.222-1.333v-.267c0-.558.083-1.055.248-1.491a3.33 3.33 0 01.673-1.117c.283-.305.605-.536.965-.692a2.77 2.77 0 011.117-.235c.491 0 .914.084 1.269.254.36.17.654.406.883.71.228.301.397.657.507 1.067.11.406.165.85.165 1.333v.527h-5.129v-.959h3.955v-.088a2.93 2.93 0 00-.19-.889 1.598 1.598 0 00-.508-.711c-.233-.186-.55-.28-.952-.28a1.603 1.603 0 00-1.314.667c-.161.22-.286.489-.375.806a4.081 4.081 0 00-.133 1.098v.267c0 .326.044.633.133.92.093.284.227.534.4.75.178.215.392.385.641.507.254.123.542.185.864.185.414 0 .765-.085 1.053-.254.288-.17.54-.396.756-.68l.711.565a3.332 3.332 0 01-.565.641c-.229.204-.51.369-.845.495-.33.128-.721.191-1.174.191zm5.218-5.916V17h-1.175v-6.868h1.143l.032 1.079zm2.145-1.117l-.006 1.091a1.689 1.689 0 00-.279-.037 2.963 2.963 0 00-.292-.013c-.271 0-.51.042-.718.127a1.478 1.478 0 00-.526.355 1.697 1.697 0 00-.343.546 2.584 2.584 0 00-.159.686l-.33.19c0-.415.04-.804.121-1.168a3.15 3.15 0 01.387-.965c.173-.283.393-.503.66-.66a1.863 1.863 0 011.257-.209.83.83 0 01.228.057z" fill="#F69C0F"/><rect x="1" y="1" width="274" height="25" rx="12.5" stroke="#F69C0F"/></svg>