<svg width="134" height="26" fill="none" xmlns="http://www.w3.org/2000/svg"><path d="M13 0l3.056 8.793 9.308.19-7.419 5.624 2.696 8.91L13 18.2l-7.641 5.317 2.696-8.91L.636 8.983l9.308-.19L13 0zm54 0l3.056 8.793 9.308.19-7.419 5.624 2.696 8.91L67 18.2l-7.641 5.317 2.695-8.91-7.418-5.624 9.307-.19L67 0zM40 0l3.056 8.793 9.308.19-7.418 5.624 2.695 8.91L40 18.2l-7.641 5.317 2.695-8.91-7.418-5.624 9.308-.19L40 0zm54 0l3.056 8.793 9.308.19-7.419 5.624 2.696 8.91L94 18.2l-7.641 5.317 2.696-8.91-7.419-5.624 9.308-.19L94 0z" fill="#FFD362"/><path d="M121 0l3.056 8.793 9.308.19-7.419 5.624 2.696 8.91L121 18.2l-7.641 5.317 2.696-8.91-7.419-5.624 9.308-.19L121 0z" fill="#EAEAEA"/><path d="M113.359 23.517L121 18.2l1.883 1.31V5.417L121 0l-3.057 8.793-9.307.19 7.418 5.624-2.695 8.91z" fill="#FFD362"/></svg>