<svg width="20" height="20" fill="none" xmlns="http://www.w3.org/2000/svg"><path d="M19 14.477v2.71c.004 1.035-.928 1.9-1.974 1.806C8 19 1 11.935 1.007 2.969.913 1.93 1.774 1.001 2.808 1h2.715c.44-.004.865.151 1.198.437.947.812 1.556 3.57 1.322 4.667-.183.856-1.046 1.455-1.633 2.04a14.467 14.467 0 005.43 5.42c.587-.585 1.187-1.446 2.045-1.629 1.1-.234 3.877.376 4.686 1.329.287.338.44.77.428 1.213zM12.5 4.5c.737.144 1.469.469 2 1 .531.531.856 1.263 1 2M13 1c1.531.17 2.91.911 4 2 1.09 1.089 1.828 2.469 2 4" stroke="#F69C0F" stroke-width="2" stroke-linecap="round" stroke-linejoin="round"/></svg>