<svg width="39" height="39" fill="none" xmlns="http://www.w3.org/2000/svg"><path d="M38.992 19.495c0 10.766-8.728 19.494-19.496 19.494C8.729 38.99 0 30.261 0 19.495 0 8.727 8.73 0 19.496 0c10.768 0 19.496 8.727 19.496 19.495z" fill="#5AC134"/><path d="M29.153 12.098c-.676.306-1.422.491-2.15.614.345-.059.853-.686 1.057-.938.31-.386.568-.826.713-1.302l-.004-.112-.114.01c-.814.435-1.655.751-2.551.975l-.175-.045-.222-.228a4.5 4.5 0 00-1.235-.758 4.303 4.303 0 00-1.895-.305 4.535 4.535 0 00-1.797.508 4.629 4.629 0 00-1.45 1.184 4.451 4.451 0 00-.865 1.733c-.149.611-.137 1.215-.045 1.831l-.09.103c-3.5-.522-6.402-1.774-8.76-4.459-.1-.117-.157-.117-.24.008-1.031 1.547-.531 4.03.757 5.25.172.162.349.325.538.474-.07.013-.926-.079-1.69-.475l-.164.088c-.008.168.005.322.029.503.197 1.567 1.283 3.016 2.768 3.58.177.075.37.14.561.172-.338.075-.686.127-1.657.052-.121-.024-.167.037-.121.153.73 1.988 2.305 2.58 3.484 2.918.157.026.316.026.474.064l-.029.028c-.39.596-1.747 1.04-2.379 1.261-1.148.401-2.398.581-3.613.463-.193-.03-.235-.027-.288 0l.056.13c.247.162.497.306.753.446.771.408 1.574.733 2.415.965 4.34 1.199 9.23.319 12.49-2.92 2.558-2.543 3.455-6.05 3.455-9.561 0-.138.162-.212.259-.286.667-.5 1.203-1.098 1.7-1.768a.537.537 0 00.112-.337v-.019h-.087" fill="#fff"/></svg>