<svg width="39" height="39" fill="none" xmlns="http://www.w3.org/2000/svg"><path d="M38.992 19.495c0 10.768-8.73 19.496-19.496 19.496C8.729 38.99 0 30.263 0 19.495 0 8.728 8.73 0 19.496 0c10.767 0 19.496 8.728 19.496 19.495z" fill="#5AC134"/><path d="M15.363 26.622l.383.229a9.069 9.069 0 004.637 1.284c5.005 0 9.08-4.075 9.08-9.081 0-5.008-4.075-9.082-9.08-9.082-5.008 0-9.083 4.074-9.083 9.082a9.06 9.06 0 001.328 4.708l.236.387-.908 3.386 3.407-.913zm-6.4 3.906l1.627-6.065a11.149 11.149 0 01-1.406-5.41c0-6.174 5.024-11.197 11.199-11.197 6.173 0 11.197 5.023 11.197 11.198 0 6.174-5.024 11.198-11.197 11.198-1.855 0-3.685-.47-5.324-1.357l-6.096 1.633" fill="#fff"/><path fill-rule="evenodd" clip-rule="evenodd" d="M24.548 20.611c-.461-.276-1.061-.583-1.605-.362-.415.17-.682.823-.951 1.157-.139.17-.304.196-.517.111-1.564-.623-2.762-1.668-3.626-3.105-.145-.224-.12-.4.058-.607.26-.307.588-.656.657-1.069.07-.414-.124-.897-.293-1.265-.22-.472-.463-1.143-.935-1.41-.433-.244-1.005-.106-1.39.208-.667.543-.989 1.393-.978 2.235.003.24.03.48.087.71.136.556.392 1.075.681 1.57.217.372.455.732.71 1.08a10.968 10.968 0 003.083 2.86 9.26 9.26 0 001.922.914c.753.25 1.424.508 2.237.353.85-.161 1.69-.687 2.03-1.507.098-.244.149-.515.093-.771-.116-.53-.835-.846-1.263-1.102" fill="#fff"/></svg>